SplineFontDB: 3.0
FontName: Inconsoliga-Regular
FullName: Inconsoliga Regular
FamilyName: Inconsoliga
Weight: Regular
Copyright: Copyright 2006 The Inconsolata Project Authors
Version: 2.001
ItalicAngle: 0
UnderlinePosition: -200
UnderlineWidth: 50
Ascent: 800
Descent: 200
InvalidEm: 0
sfntRevision: 0x00020041
LayerCount: 2
Layer: 0 0 "Back" 1
Layer: 1 0 "Fore" 0
XUID: [1021 364 -2095688903 10370748]
StyleMap: 0x0040
FSType: 0
OS2Version: 4
OS2_WeightWidthSlopeOnly: 0
OS2_UseTypoMetrics: 1
CreationTime: 1485946471
ModificationTime: 1527005508
PfmFamily: 81
TTFWeight: 400
TTFWidth: 5
LineGap: 0
VLineGap: 0
Panose: 0 0 5 9 0 0 0 0 0 0
OS2TypoAscent: 859
OS2TypoAOffset: 0
OS2TypoDescent: -190
OS2TypoDOffset: 0
OS2TypoLinegap: 0
OS2WinAscent: 1004
OS2WinAOffset: 0
OS2WinDescent: 306
OS2WinDOffset: 0
HheadAscent: 859
HheadAOffset: 0
HheadDescent: -190
HheadDOffset: 0
OS2SubXSize: 650
OS2SubYSize: 600
OS2SubXOff: 0
OS2SubYOff: 75
OS2SupXSize: 650
OS2SupYSize: 600
OS2SupXOff: 0
OS2SupYOff: 350
OS2StrikeYSize: 50
OS2StrikeYPos: 274
OS2CapHeight: 623
OS2XHeight: 457
OS2Vendor: 'CYRE'
OS2CodePages: 20000193.00000000
OS2UnicodeRanges: 20000007.00000001.00000000.00000000
Lookup: 6 0 0 "'calt' '/+AD0A' Contextual Chaining Substitution CCS1" { "'calt' '/+AD0A' Contextual Chaining Substitution CCS1 3"  "'calt' '/+AD0A' Contextual Chaining Substitution CCS1 4"  } ['calt' ('DFLT' <'dflt' > 'grek' <'dflt' > 'latn' <'AZE ' 'CAT ' 'CRT ' 'KAZ ' 'MOL ' 'ROM ' 'TAT ' 'TRK ' 'dflt' > ) ]
Lookup: 1 0 0 "'/+AD0A' Single Substitution SS1" { "'/+AD0A' Single Substitution SS1-1"  } []
Lookup: 1 0 0 "'aalt' Access All Alternates in Latin lookup 0" { "'aalt' Access All Alternates in Latin lookup 0 subtable"  } ['aalt' ('DFLT' <'dflt' > 'latn' <'AZE ' 'CAT ' 'CRT ' 'KAZ ' 'MOL ' 'ROM ' 'TAT ' 'TRK ' 'dflt' > ) ]

StartChar: exclam
Encoding: 33 33 4
Width: 500
GlyphClass: 2
Flags: W
LayerCount: 2
Fore
SplineSet
190 594 m 2
 190 617.333007812 194.5 635.5 203.5 648.5 c 0
 212.5 661.5 225 668 241 668 c 0
 275 668 292 640 292 584 c 2
 265 194 l 1
 215 194 l 1
 190 594 l 2
197.5 6 m 0
 185.833007812 17.3330078125 180 31 180 47 c 0
 180 63 185.833007812 77 197.5 89 c 0
 209.166992188 101 223 107 239 107 c 0
 255 107 269 101 281 89 c 0
 293 77 299 63 299 47 c 0
 299 31.6669921875 293 18.1669921875 281 6.5 c 0
 269 -5.1669921875 255 -11 239 -11 c 0
 223 -11 209.166992188 -5.3330078125 197.5 6 c 0
EndSplineSet
Validated: 1
EndChar

StartChar: quotedbl
Encoding: 34 34 5
Width: 500
GlyphClass: 2
Flags: W
LayerCount: 2
Fore
SplineSet
215 665 m 1
 215 609 214.166992188 567.831054688 212.5 541.498046875 c 0
 210.833007812 515.165039062 208.333007812 486.33203125 205 454.999023438 c 2
 199 406.999023438 l 1
 151 406.999023438 l 1
 145 454.999023438 l 2
 141.666992188 484.999023438 139.166992188 513.33203125 137.5 539.999023438 c 0
 135.833007812 566.666015625 135 608.333007812 135 665 c 1
 215 665 l 1
365 664.998046875 m 1
 365 608.998046875 364.166992188 567.829101562 362.5 541.49609375 c 0
 360.833007812 515.163085938 358.333007812 486.330078125 355 454.997070312 c 2
 349 406.997070312 l 1
 301 406.997070312 l 1
 295 454.997070312 l 2
 291.666992188 484.997070312 289.166992188 513.330078125 287.5 539.997070312 c 0
 285.833007812 566.6640625 285 608.331054688 285 664.998046875 c 1
 365 664.998046875 l 1
EndSplineSet
Validated: 1
Substitution2: "'ss03' Style Set 3 in Latin lookup 27 subtable" quotedbl.ss03
Substitution2: "'aalt' Access All Alternates in Latin lookup 0 subtable" quotedbl.ss03
EndChar

StartChar: numbersign
Encoding: 35 35 6
Width: 500
GlyphClass: 2
Flags: W
LayerCount: 2
Fore
SplineSet
292 193 m 1
 181 193 l 1
 160 14 l 1
 101 13 l 1
 122 191 l 1
 25 191 l 1
 29 236 l 1
 128 236 l 1
 148 407 l 1
 39 407 l 1
 42 453 l 1
 153 453 l 1
 173 624 l 1
 234 626 l 1
 213 455 l 1
 323 455 l 1
 343 622 l 1
 405 623 l 1
 385 457 l 1
 476 457 l 1
 470 410 l 1
 379 410 l 1
 358 241 l 1
 457 241 l 1
 452 196 l 1
 353 196 l 1
 331 14 l 1
 270 10 l 1
 292 193 l 1
297 238 m 1
 318 408 l 1
 207 408 l 1
 187 238 l 1
 297 238 l 1
EndSplineSet
Validated: 1
EndChar

StartChar: dollar
Encoding: 36 36 7
Width: 500
GlyphClass: 2
Flags: W
LayerCount: 2
Fore
SplineSet
235 14 m 1
 163.666992188 18.6669921875 105.331054688 45.33203125 59.998046875 93.9990234375 c 1
 102.998046875 153.999023438 l 2
 104.998046875 152.666015625 106.331054688 149.166015625 106.998046875 143.499023438 c 0
 107.665039062 137.83203125 108.665039062 134.33203125 109.998046875 132.999023438 c 0
 142.665039062 97.666015625 184.33203125 77.3330078125 234.999023438 72 c 1
 234.999023438 292 l 1
 181.666015625 310 142.333007812 331.166992188 117 355.5 c 0
 91.6669921875 379.833007812 79 410 79 446 c 0
 79 482.666992188 93.5 514.333984375 122.5 541.000976562 c 0
 151.5 567.66796875 189 584.334960938 235 591.001953125 c 1
 235 651.001953125 l 1
 299 651.001953125 l 2
 299.666992188 650.334960938 300 649.334960938 300 648.001953125 c 0
 300 646.668945312 299 644.168945312 297 640.501953125 c 0
 295 636.834960938 293.666992188 633.334960938 293 630.001953125 c 2
 293 592.001953125 l 1
 355 585.334960938 404.666992188 559.66796875 442 515.000976562 c 1
 399 461.000976562 l 2
 396.333007812 462.333984375 394.333007812 465.666992188 393 471 c 0
 391.666992188 476.333007812 390 480 388 482 c 0
 365.333007812 508.666992188 333.666015625 525.666992188 292.999023438 533 c 1
 292.999023438 340 l 1
 352.999023438 320.666992188 395.83203125 299.333984375 421.499023438 276.000976562 c 0
 447.166015625 252.66796875 459.999023438 221.000976562 459.999023438 181.000976562 c 0
 459.999023438 155.66796875 453.166015625 131.16796875 439.499023438 107.500976562 c 0
 425.83203125 83.833984375 406.33203125 63.6669921875 380.999023438 47 c 0
 355.666015625 30.3330078125 326.333007812 20 293 16 c 1
 293 -47 l 1
 235 -47 l 1
 235 14 l 1
234.997070312 533.998046875 m 1
 206.330078125 530.665039062 184.1640625 521.666015625 168.497070312 506.999023438 c 0
 152.830078125 492.33203125 144.997070312 474.665039062 144.997070312 453.998046875 c 0
 144.997070312 415.998046875 174.997070312 384.998046875 234.997070312 360.998046875 c 1
 234.997070312 533.998046875 l 1
367.498046875 111.999023438 m 0
 385.831054688 131.33203125 395 153 395 177 c 0
 395 200.333007812 387.166992188 219.166015625 371.5 233.499023438 c 0
 355.833007812 247.83203125 329.666015625 260.999023438 292.999023438 272.999023438 c 1
 292.999023438 73.9990234375 l 1
 324.33203125 79.9990234375 349.165039062 92.666015625 367.498046875 111.999023438 c 0
EndSplineSet
Validated: 1
EndChar

StartChar: percent
Encoding: 37 37 8
Width: 500
GlyphClass: 2
Flags: W
LayerCount: 2
Fore
SplineSet
84 390 m 0
 66.6669921875 401.333007812 53 416.999023438 43 436.999023438 c 0
 33 456.999023438 28 479.33203125 28 503.999023438 c 0
 28 527.999023438 33 549.83203125 43 569.499023438 c 0
 53 589.166015625 66.6669921875 604.833007812 84 616.5 c 0
 101.333007812 628.166992188 120 634 140 634 c 0
 160 634 178.666992188 628.166992188 196 616.5 c 0
 213.333007812 604.833007812 227 589 237 569 c 0
 247 549 252 527 252 503 c 0
 252 465 241.333007812 433.833007812 220 409.5 c 0
 198.666992188 385.166992188 172 373 140 373 c 0
 120 373 101.333007812 378.666992188 84 390 c 0
391 622.999023438 m 1
 448 622.999023438 l 1
 100 -0.0009765625 l 1
 46 -0.0009765625 l 1
 391 622.999023438 l 1
175 444.999023438 m 0
 184.333007812 457.666015625 189 477.33203125 189 503.999023438 c 0
 189 530.666015625 184 550.333007812 174 563 c 0
 164 575.666992188 152 582 138 582 c 0
 124.666992188 582 113.166992188 575.666992188 103.5 563 c 0
 93.8330078125 550.333007812 89 530.666015625 89 503.999023438 c 0
 89 477.999023438 94 458.499023438 104 445.499023438 c 0
 114 432.499023438 126 425.999023438 140 425.999023438 c 0
 154 425.999023438 165.666992188 432.33203125 175 444.999023438 c 0
315 6.998046875 m 0
 297.666992188 18.3310546875 283.999023438 33.830078125 273.999023438 53.4970703125 c 0
 263.999023438 73.1640625 258.999023438 94.9970703125 258.999023438 118.997070312 c 0
 258.999023438 142.997070312 263.999023438 164.830078125 273.999023438 184.497070312 c 0
 283.999023438 204.1640625 297.666015625 219.831054688 314.999023438 231.498046875 c 0
 332.33203125 243.165039062 350.999023438 248.998046875 370.999023438 248.998046875 c 0
 401.666015625 248.998046875 427.833007812 236.331054688 449.5 210.998046875 c 0
 471.166992188 185.665039062 482 154.998046875 482 118.998046875 c 0
 482 94.998046875 477 73.1650390625 467 53.498046875 c 0
 457 33.8310546875 443.5 18.3310546875 426.5 6.998046875 c 0
 409.5 -4.3349609375 391 -10.001953125 371 -10.001953125 c 0
 351 -10.001953125 332.333007812 -4.3349609375 315 6.998046875 c 0
408.499023438 59.9970703125 m 0
 418.166015625 73.330078125 422.997070312 92.6640625 422.997070312 117.997070312 c 0
 422.997070312 141.330078125 418.1640625 160.497070312 408.497070312 175.497070312 c 0
 398.830078125 190.497070312 385.997070312 197.997070312 369.997070312 197.997070312 c 0
 355.330078125 197.997070312 342.997070312 191.497070312 332.997070312 178.497070312 c 0
 322.997070312 165.497070312 317.997070312 145.997070312 317.997070312 119.997070312 c 0
 317.997070312 93.330078125 323.330078125 73.330078125 333.997070312 59.9970703125 c 0
 344.6640625 46.6640625 357.331054688 39.9970703125 371.998046875 39.9970703125 c 0
 386.665039062 39.9970703125 398.83203125 46.6640625 408.499023438 59.9970703125 c 0
EndSplineSet
Validated: 1
EndChar

StartChar: ampersand
Encoding: 38 38 9
Width: 500
GlyphClass: 2
Flags: W
LayerCount: 2
Fore
SplineSet
361 76 m 1
 340.333007812 49.3330078125 314.999023438 28.3359375 284.999023438 13.0029296875 c 0
 254.999023438 -2.330078125 223.999023438 -9.9970703125 191.999023438 -9.9970703125 c 0
 162.666015625 -9.9970703125 135.999023438 -3.1640625 111.999023438 10.5029296875 c 0
 87.9990234375 24.169921875 69.33203125 42.5029296875 55.9990234375 65.5029296875 c 0
 42.666015625 88.5029296875 35.9990234375 113.669921875 35.9990234375 141.002929688 c 0
 35.9990234375 182.3359375 47.33203125 220.8359375 69.9990234375 256.502929688 c 0
 92.666015625 292.169921875 123.333007812 321.002929688 162 343.002929688 c 1
 114.666992188 400.3359375 91 452.002929688 91 498.002929688 c 0
 91 522.669921875 97.1669921875 545.002929688 109.5 565.002929688 c 0
 121.833007812 585.002929688 138.5 600.669921875 159.5 612.002929688 c 0
 180.5 623.3359375 203.333007812 629.002929688 228 629.002929688 c 0
 254 629.002929688 277.333007812 622.8359375 298 610.502929688 c 0
 318.666992188 598.169921875 334.666992188 582.002929688 346 562.002929688 c 0
 357.333007812 542.002929688 363 520.669921875 363 498.002929688 c 0
 363 465.3359375 352.833007812 432.668945312 332.5 400.001953125 c 0
 312.166992188 367.334960938 286.333984375 344.001953125 255.000976562 330.001953125 c 1
 367.000976562 173.001953125 l 1
 383.000976562 192.334960938 394.16796875 209.16796875 400.500976562 223.500976562 c 0
 406.833984375 237.833984375 410.666992188 254.666992188 412 274 c 0
 412 278 413.333007812 281.333007812 416 284 c 2
 481 239 l 1
 456.333007812 195.666992188 431 157 405 123 c 1
 475 32 l 1
 416 -12 l 1
 361 76 l 1
276.499023438 424.002929688 m 0
 290.166015625 446.669921875 296.998046875 469.3359375 296.998046875 492.002929688 c 0
 296.998046875 514.002929688 290.165039062 532.502929688 276.498046875 547.502929688 c 0
 262.831054688 562.502929688 246.998046875 570.002929688 228.998046875 570.002929688 c 0
 209.665039062 570.002929688 193.33203125 563.169921875 179.999023438 549.502929688 c 0
 166.666015625 535.8359375 159.999023438 518.3359375 159.999023438 497.002929688 c 0
 159.999023438 465.002929688 180.33203125 423.669921875 220.999023438 373.002929688 c 1
 244.33203125 384.3359375 262.83203125 401.3359375 276.499023438 424.002929688 c 0
323.998046875 123.001953125 m 1
 196.997070312 296.002929688 l 1
 170.997070312 280.002929688 150.330078125 258.669921875 134.997070312 232.002929688 c 0
 119.6640625 205.3359375 111.997070312 178.668945312 111.997070312 152.001953125 c 0
 111.997070312 124.668945312 120.497070312 101.501953125 137.497070312 82.501953125 c 0
 154.497070312 63.501953125 174.997070312 54.001953125 198.997070312 54.001953125 c 0
 241.6640625 54.001953125 283.331054688 77.001953125 323.998046875 123.001953125 c 1
EndSplineSet
Validated: 1
EndChar

StartChar: quotesingle
Encoding: 39 39 10
Width: 500
GlyphClass: 2
Flags: W
LayerCount: 2
Fore
SplineSet
290 665 m 1
 290 609 289.166992188 567.831054688 287.5 541.498046875 c 0
 285.833007812 515.165039062 283.333007812 486.33203125 280 454.999023438 c 2
 274 406.999023438 l 1
 226 406.999023438 l 1
 220 454.999023438 l 2
 216.666992188 484.999023438 214.166992188 513.33203125 212.5 539.999023438 c 0
 210.833007812 566.666015625 210 608.333007812 210 665 c 1
 290 665 l 1
EndSplineSet
Validated: 1
Substitution2: "'ss03' Style Set 3 in Latin lookup 27 subtable" quotesingle.ss03
Substitution2: "'aalt' Access All Alternates in Latin lookup 0 subtable" quotesingle.ss03
EndChar

StartChar: parenleft
Encoding: 40 40 11
Width: 500
GlyphClass: 2
Flags: W
LayerCount: 2
Fore
SplineSet
251 -70 m 0
 209.666992188 -26 177.833984375 23.6669921875 155.500976562 79 c 0
 133.16796875 134.333007812 122.000976562 191.333007812 122.000976562 250 c 0
 122.000976562 308.666992188 133.000976562 365 155.000976562 419 c 0
 177.000976562 473 208.16796875 521.166992188 248.500976562 563.5 c 0
 288.833984375 605.833007812 335.666992188 639.666015625 389 664.999023438 c 1
 408 602.999023438 l 1
 342.666992188 567.666015625 290.5 517.999023438 251.5 453.999023438 c 0
 212.5 389.999023438 193 320.999023438 193 246.999023438 c 0
 193 172.33203125 213 102.33203125 253 36.9990234375 c 0
 293 -28.333984375 346.666992188 -78.6669921875 414 -114 c 1
 395 -174 l 1
 340.333007812 -148.666992188 292.333007812 -114 251 -70 c 0
EndSplineSet
Validated: 1
EndChar

StartChar: parenright
Encoding: 41 41 12
Width: 500
GlyphClass: 2
Flags: W
LayerCount: 2
Fore
SplineSet
114 -114 m 1
 181.333007812 -78.6669921875 235 -28.333984375 275 36.9990234375 c 0
 315 102.33203125 335 172.33203125 335 246.999023438 c 0
 335 320.999023438 315.5 389.999023438 276.5 453.999023438 c 0
 237.5 517.999023438 185.333007812 567.666015625 120 602.999023438 c 1
 139 664.999023438 l 1
 192.333007812 639.666015625 239.166015625 605.833007812 279.499023438 563.5 c 0
 319.83203125 521.166992188 350.999023438 473 372.999023438 419 c 0
 394.999023438 365 405.999023438 308.666992188 405.999023438 250 c 0
 405.999023438 191.333007812 394.83203125 134.333007812 372.499023438 79 c 0
 350.166015625 23.6669921875 318.333007812 -26 277 -70 c 0
 235.666992188 -114 187.666992188 -148.666992188 133 -174 c 1
 114 -114 l 1
EndSplineSet
Validated: 1
EndChar

StartChar: asterisk
Encoding: 42 42 13
Width: 500
GlyphClass: 2
Flags: W
LayerCount: 2
Fore
SplineSet
84 167 m 1
 214 317 l 1
 41 370 l 1
 67 435 l 1
 229 359 l 1
 213 536 l 1
 291 536 l 1
 273 359 l 1
 432 431 l 1
 458 370 l 1
 287 318 l 1
 413 167 l 1
 358 124 l 1
 250 290 l 1
 138 123 l 1
 84 167 l 1
EndSplineSet
Validated: 1
Substitution2: "'ss01' Style Set 1 in Latin lookup 25 subtable" asterisk.ss01
Substitution2: "'salt' Stylistic Alternatives in Latin lookup 24 subtable" asterisk.ss01
Substitution2: "'aalt' Access All Alternates in Latin lookup 0 subtable" asterisk.ss01
EndChar

StartChar: plus
Encoding: 43 43 14
Width: 500
GlyphClass: 2
Flags: W
LayerCount: 2
Fore
SplineSet
222 291 m 1
 45 291 l 1
 45 352 l 1
 222 352 l 1
 222 523 l 1
 285 523 l 1
 285 352 l 1
 456 352 l 1
 456 291 l 1
 285 291 l 1
 285 104 l 1
 222 104 l 1
 222 291 l 1
EndSplineSet
Validated: 1
EndChar

StartChar: comma
Encoding: 44 44 15
Width: 500
GlyphClass: 2
Flags: W
LayerCount: 2
Fore
SplineSet
165 -138 m 1
 183.666992188 -120.666992188 199.166992188 -102 211.5 -82 c 0
 223.833007812 -62 230 -45.6669921875 230 -33 c 0
 230 -27 228.333007812 -22 225 -18 c 0
 221.666992188 -14 215.666992188 -8 207 0 c 0
 197.666992188 8.6669921875 190.666992188 16 186 22 c 0
 181.333007812 28 179 35.3330078125 179 44 c 0
 179 60.6669921875 184.5 74.6669921875 195.5 86 c 0
 206.5 97.3330078125 220.666992188 103 238 103 c 0
 256 103 271.833007812 95.1669921875 285.5 79.5 c 0
 299.166992188 63.8330078125 306 44 306 20 c 0
 306 -32 270.333007812 -94.6669921875 199 -168 c 1
 165 -138 l 1
EndSplineSet
Validated: 1
EndChar

StartChar: hyphen
Encoding: 45 45 16
Width: 500
GlyphClass: 2
Flags: W
LayerCount: 2
Fore
SplineSet
71 348 m 1
 431 348 l 1
 431 281 l 1
 71 281 l 1
 71 348 l 1
EndSplineSet
Validated: 1
EndChar

StartChar: period
Encoding: 46 46 17
Width: 500
GlyphClass: 2
Flags: W
LayerCount: 2
Fore
SplineSet
197 6 m 0
 185.666992188 17.3330078125 180 30.666015625 180 45.9990234375 c 0
 180 61.33203125 185.666992188 74.6650390625 197 85.998046875 c 0
 208.333007812 97.3310546875 222 102.998046875 238 102.998046875 c 0
 253.333007812 102.998046875 266.666015625 97.3310546875 277.999023438 85.998046875 c 0
 289.33203125 74.6650390625 294.999023438 61.33203125 294.999023438 45.9990234375 c 0
 294.999023438 30.666015625 289.33203125 17.3330078125 277.999023438 6 c 0
 266.666015625 -5.3330078125 253.333007812 -11 238 -11 c 0
 222 -11 208.333007812 -5.3330078125 197 6 c 0
EndSplineSet
Validated: 1
EndChar

StartChar: slash
Encoding: 47 47 18
Width: 500
GlyphClass: 2
Flags: HWO
LayerCount: 2
Fore
SplineSet
50 -6 m 1
 363 672 l 1
 456 625 l 1
 142 -51 l 1
 50 -6 l 1
EndSplineSet
Substitution2: "'/+AD0A' Single Substitution SS1-1" LIG
Substitution2: "'frac' Diagonal Fractions in Latin lookup 17 subtable" fraction
Substitution2: "'aalt' Access All Alternates in Latin lookup 0 subtable" fraction
EndChar

StartChar: zero
Encoding: 48 48 19
Width: 500
GlyphClass: 2
Flags: W
LayerCount: 2
Fore
SplineSet
392.5 542 m 0
 426.166992188 485.333007812 443 407.333007812 443 308 c 0
 443 206 426.333007812 127.333007812 393 72 c 0
 359.666992188 16.6669921875 312 -11 250 -11 c 0
 188 -11 140.333007812 16.6669921875 107 72 c 0
 73.6669921875 127.333007812 57 206 57 308 c 0
 57 407.333007812 73.8330078125 485.333007812 107.5 542 c 0
 141.166992188 598.666992188 188.666992188 627 250 627 c 0
 311.333007812 627 358.833007812 598.666992188 392.5 542 c 0
161 496.5 m 0
 139.666992188 450.166992188 129 387.33203125 129 307.999023438 c 0
 129 264.666015625 132 226.333007812 138 193 c 1
 350 467 l 1
 340 499 326.5 523.5 309.5 540.5 c 0
 292.5 557.5 272.666992188 566 250 566 c 0
 212 566 182.333007812 542.833007812 161 496.5 c 0
339 116.998046875 m 0
 360.333007812 161.665039062 371 225.331054688 371 307.998046875 c 0
 371 346.665039062 368.666992188 379.998046875 364 407.998046875 c 1
 152 137.998046875 l 1
 173.333007812 79.3310546875 206 49.998046875 250 49.998046875 c 0
 288 49.998046875 317.666992188 72.3310546875 339 116.998046875 c 0
EndSplineSet
Validated: 1
Substitution2: "'ss02' Style Set 2 in Latin lookup 26 subtable" zero.ss02
Substitution2: "'zero' Slashed Zero in Latin lookup 23 subtable" zero.zero
Substitution2: "'frac' Diagonal Fractions in Latin lookup 18 subtable" zero.numr
Substitution2: "'dnom' Denominators in Latin lookup 16 subtable" zero.dnom
Substitution2: "'numr' Numerators in Latin lookup 15 subtable" zero.numr
Substitution2: "'sups' Superscript in Latin lookup 14 subtable" uni2070
Substitution2: "'subs' Subscript in Latin lookup 13 subtable" uni2080
AlternateSubs2: "'aalt' Access All Alternates in Latin lookup 1 subtable" uni2080 uni2070 zero.numr zero.dnom zero.zero zero.ss02
EndChar

StartChar: one
Encoding: 49 49 20
Width: 500
GlyphClass: 2
Flags: W
LayerCount: 2
Fore
SplineSet
230 537 m 1
 104 500 l 1
 88 539 l 1
 251 624 l 1
 300 624 l 1
 300 0 l 1
 230 0 l 1
 230 537 l 1
EndSplineSet
Validated: 1
Substitution2: "'frac' Diagonal Fractions in Latin lookup 18 subtable" one.numr
Substitution2: "'dnom' Denominators in Latin lookup 16 subtable" one.dnom
Substitution2: "'numr' Numerators in Latin lookup 15 subtable" one.numr
Substitution2: "'sups' Superscript in Latin lookup 14 subtable" uni00B9
Substitution2: "'subs' Subscript in Latin lookup 13 subtable" uni2081
AlternateSubs2: "'aalt' Access All Alternates in Latin lookup 1 subtable" uni2081 uni00B9 one.numr one.dnom
EndChar

StartChar: two
Encoding: 50 50 21
Width: 500
GlyphClass: 2
Flags: W
LayerCount: 2
Fore
SplineSet
73 56 m 1
 154 138 l 2
 208 192 248.5 234.333007812 275.5 265 c 0
 302.5 295.666992188 324 326.166992188 340 356.5 c 0
 356 386.833007812 364 418.333007812 364 451 c 0
 364 491.666992188 354.333007812 521 335 539 c 0
 315.666992188 557 290 566 258 566 c 0
 208 566 166.333007812 545 133 503 c 0
 124.333007812 492.333007812 120 483 120 475 c 0
 120 471 120.333007812 468 121 466 c 2
 117 461 l 1
 109 466 l 1
 58 506 l 1
 78 544.666992188 105.333007812 574.5 140 595.5 c 0
 174.666992188 616.5 213.666992188 627 257 627 c 0
 310.333007812 627 353.5 611 386.5 579 c 0
 419.5 547 436 503.666992188 436 449 c 0
 436 413 427.333007812 378 410 344 c 0
 392.666992188 310 370.5 277.666992188 343.5 247 c 0
 316.5 216.333007812 279 177.333007812 231 130 c 2
 163 61 l 1
 395 61 l 2
 405.666992188 61 413.5 61.6669921875 418.5 63 c 0
 423.5 64.3330078125 428 67 432 71 c 1
 439 71 l 1
 439 0 l 1
 73 0 l 1
 73 56 l 1
EndSplineSet
Validated: 1
Substitution2: "'frac' Diagonal Fractions in Latin lookup 18 subtable" two.numr
Substitution2: "'dnom' Denominators in Latin lookup 16 subtable" two.dnom
Substitution2: "'numr' Numerators in Latin lookup 15 subtable" two.numr
Substitution2: "'sups' Superscript in Latin lookup 14 subtable" uni00B2
Substitution2: "'subs' Subscript in Latin lookup 13 subtable" uni2082
AlternateSubs2: "'aalt' Access All Alternates in Latin lookup 1 subtable" uni2082 uni00B2 two.numr two.dnom
EndChar

StartChar: three
Encoding: 51 51 22
Width: 500
GlyphClass: 2
Flags: W
LayerCount: 2
Fore
SplineSet
145.5 7 m 0
 115.833007812 19 90.3330078125 36.66796875 69 60.0009765625 c 1
 115 115.000976562 l 1
 122 123.000976562 l 1
 127 118.000976562 l 1
 127.666992188 111.333984375 129 105.500976562 131 100.500976562 c 0
 133 95.5009765625 137.666992188 89.66796875 145 83.0009765625 c 0
 157.666992188 72.333984375 171.166992188 64.0009765625 185.5 58.0009765625 c 0
 199.833007812 52.0009765625 217 49.0009765625 237 49.0009765625 c 0
 275.666992188 49.0009765625 305 60.333984375 325 83.0009765625 c 0
 345 105.66796875 355 136.000976562 355 174.000976562 c 0
 355 215.333984375 342.5 246.333984375 317.5 267.000976562 c 0
 292.5 287.66796875 257.333007812 298.000976562 212 298.000976562 c 0
 205.333007812 298.000976562 194.666015625 297.333984375 179.999023438 296.000976562 c 1
 179.999023438 352.000976562 l 1
 239.33203125 352.000976562 279.83203125 363.000976562 301.499023438 385.000976562 c 0
 323.166015625 407.000976562 333.999023438 437.000976562 333.999023438 475.000976562 c 0
 333.999023438 503.000976562 325.83203125 525.333984375 309.499023438 542.000976562 c 0
 293.166015625 558.66796875 271.666015625 567.000976562 244.999023438 567.000976562 c 0
 201.666015625 567.000976562 163.666015625 551.66796875 130.999023438 521.000976562 c 1
 88.9990234375 563.000976562 l 1
 129.666015625 605.66796875 181.333007812 627.000976562 244 627.000976562 c 0
 294 627.000976562 333.5 612.833984375 362.5 584.500976562 c 0
 391.5 556.16796875 406 518.66796875 406 472.000976562 c 0
 406 438.000976562 397.666992188 408.333984375 381 383.000976562 c 0
 364.333007812 357.66796875 340 340.000976562 308 330.000976562 c 1
 344.666992188 318.000976562 373.666992188 298.66796875 395 272.000976562 c 0
 416.333007812 245.333984375 427 211.666992188 427 171 c 0
 427 137.666992188 419.666992188 107.166992188 405 79.5 c 0
 390.333007812 51.8330078125 369 29.8330078125 341 13.5 c 0
 313 -2.8330078125 279.333007812 -11 240 -11 c 0
 206.666992188 -11 175.166992188 -5 145.5 7 c 0
EndSplineSet
Validated: 1
Substitution2: "'frac' Diagonal Fractions in Latin lookup 18 subtable" three.numr
Substitution2: "'dnom' Denominators in Latin lookup 16 subtable" three.dnom
Substitution2: "'numr' Numerators in Latin lookup 15 subtable" three.numr
Substitution2: "'sups' Superscript in Latin lookup 14 subtable" uni00B3
Substitution2: "'subs' Subscript in Latin lookup 13 subtable" uni2083
AlternateSubs2: "'aalt' Access All Alternates in Latin lookup 1 subtable" uni2083 uni00B3 three.numr three.dnom
EndChar

StartChar: four
Encoding: 52 52 23
Width: 500
GlyphClass: 2
Flags: W
LayerCount: 2
Fore
SplineSet
318 153 m 1
 48 153 l 1
 48 204 l 1
 333 624 l 1
 392 624 l 1
 392 211 l 1
 472 211 l 1
 472 152 l 1
 392 152 l 1
 392 0 l 1
 318 0 l 1
 318 153 l 1
318 212 m 1
 318 498 l 1
 129 212 l 1
 318 212 l 1
EndSplineSet
Validated: 1
Substitution2: "'frac' Diagonal Fractions in Latin lookup 18 subtable" four.numr
Substitution2: "'dnom' Denominators in Latin lookup 16 subtable" four.dnom
Substitution2: "'numr' Numerators in Latin lookup 15 subtable" four.numr
Substitution2: "'sups' Superscript in Latin lookup 14 subtable" uni2074
Substitution2: "'subs' Subscript in Latin lookup 13 subtable" uni2084
AlternateSubs2: "'aalt' Access All Alternates in Latin lookup 1 subtable" uni2084 uni2074 four.numr four.dnom
EndChar

StartChar: five
Encoding: 53 53 24
Width: 500
GlyphClass: 2
Flags: W
LayerCount: 2
Fore
SplineSet
143.5 14 m 0
 111.166992188 30.6669921875 84.66796875 54.333984375 64.0009765625 85.0009765625 c 1
 128.000976562 133.000976562 l 1
 132.000976562 128.000976562 l 1
 131.333984375 122.000976562 132.000976562 116.500976562 134.000976562 111.500976562 c 0
 136.000976562 106.500976562 140.66796875 100.333984375 148.000976562 93.0009765625 c 0
 161.333984375 78.333984375 176.333984375 67.5009765625 193.000976562 60.5009765625 c 0
 209.66796875 53.5009765625 229.66796875 50.0009765625 253.000976562 50.0009765625 c 0
 274.333984375 50.0009765625 294.333984375 56.16796875 313.000976562 68.5009765625 c 0
 331.66796875 80.833984375 346.500976562 98.1669921875 357.500976562 120.5 c 0
 368.500976562 142.833007812 374.000976562 169 374.000976562 199 c 0
 374.000976562 244.333007812 361.833984375 280.333007812 337.500976562 307 c 0
 313.16796875 333.666992188 282.66796875 347 246.000976562 347 c 0
 224.66796875 347 203.66796875 341.833007812 183.000976562 331.5 c 0
 162.333984375 321.166992188 144.333984375 306.666992188 129.000976562 288 c 1
 85.0009765625 306 l 1
 106.000976562 623 l 1
 422.000976562 623 l 1
 422.000976562 560 l 1
 165.000976562 560 l 1
 155.000976562 381 l 1
 187.66796875 397 221.66796875 405 257.000976562 405 c 0
 293.000976562 405 325.16796875 396.5 353.500976562 379.5 c 0
 381.833984375 362.5 404.166992188 338.166992188 420.5 306.5 c 0
 436.833007812 274.833007812 445 238 445 196 c 0
 445 154 436.5 117.333007812 419.5 86 c 0
 402.5 54.6669921875 379.166992188 30.6669921875 349.5 14 c 0
 319.833007812 -2.6669921875 286.333007812 -11 249 -11 c 0
 211 -11 175.833007812 -2.6669921875 143.5 14 c 0
EndSplineSet
Validated: 1
Substitution2: "'frac' Diagonal Fractions in Latin lookup 18 subtable" five.numr
Substitution2: "'dnom' Denominators in Latin lookup 16 subtable" five.dnom
Substitution2: "'numr' Numerators in Latin lookup 15 subtable" five.numr
Substitution2: "'sups' Superscript in Latin lookup 14 subtable" uni2075
Substitution2: "'subs' Subscript in Latin lookup 13 subtable" uni2085
AlternateSubs2: "'aalt' Access All Alternates in Latin lookup 1 subtable" uni2085 uni2075 five.numr five.dnom
EndChar

StartChar: six
Encoding: 54 54 25
Width: 500
GlyphClass: 2
Flags: W
LayerCount: 2
Fore
SplineSet
118 68.5 m 0
 84 120.833007812 66.9990234375 192.66796875 66.9990234375 284.000976562 c 0
 66.9990234375 357.333984375 75.9990234375 420.000976562 93.9990234375 472.000976562 c 0
 111.999023438 524.000976562 137.499023438 563.333984375 170.499023438 590.000976562 c 0
 203.499023438 616.66796875 242.33203125 630.000976562 286.999023438 630.000976562 c 0
 338.999023438 630.000976562 384.666015625 611.000976562 423.999023438 573.000976562 c 1
 372.999023438 515.000976562 l 1
 367.999023438 520.000976562 l 1
 367.33203125 526.66796875 365.83203125 532.334960938 363.499023438 537.001953125 c 0
 361.166015625 541.668945312 355.666015625 547.001953125 346.999023438 553.001953125 c 0
 332.33203125 563.001953125 312.999023438 568.001953125 288.999023438 568.001953125 c 0
 266.999023438 568.001953125 244.666015625 561.168945312 221.999023438 547.501953125 c 0
 199.33203125 533.834960938 179.499023438 509.16796875 162.499023438 473.500976562 c 0
 145.499023438 437.833984375 136.666015625 389.000976562 135.999023438 327.000976562 c 1
 149.999023438 350.333984375 168.83203125 368.666992188 192.499023438 382 c 0
 216.166015625 395.333007812 241.333007812 402 268 402 c 0
 299.333007812 402 328 393.5 354 376.5 c 0
 380 359.5 400.666992188 335.5 416 304.5 c 0
 431.333007812 273.5 439 238 439 198 c 0
 439 157.333007812 431.166992188 121.333007812 415.5 90 c 0
 399.833007812 58.6669921875 378.333007812 34.1669921875 351 16.5 c 0
 323.666992188 -1.1669921875 293.666992188 -10 261 -10 c 0
 199.666992188 -10 152 16.1669921875 118 68.5 c 0
339.999023438 90.501953125 m 0
 360.666015625 116.168945312 371.000976562 151.668945312 371.000976562 197.001953125 c 0
 371.000976562 228.334960938 365.66796875 254.834960938 355.000976562 276.501953125 c 0
 344.333984375 298.168945312 330.666992188 314.3359375 314 325.002929688 c 0
 297.333007812 335.669921875 280 341.002929688 262 341.002929688 c 0
 238.666992188 341.002929688 216 333.169921875 194 317.502929688 c 0
 172 301.8359375 154 281.668945312 140 257.001953125 c 1
 138.666992188 246.334960938 138 237.66796875 138 231.000976562 c 0
 138 201.66796875 143.166992188 173.334960938 153.5 146.001953125 c 0
 163.833007812 118.668945312 178.666015625 96.1689453125 197.999023438 78.501953125 c 0
 217.33203125 60.8349609375 239.33203125 52.001953125 263.999023438 52.001953125 c 0
 293.999023438 52.001953125 319.33203125 64.8349609375 339.999023438 90.501953125 c 0
EndSplineSet
Validated: 1
Substitution2: "'frac' Diagonal Fractions in Latin lookup 18 subtable" six.numr
Substitution2: "'dnom' Denominators in Latin lookup 16 subtable" six.dnom
Substitution2: "'numr' Numerators in Latin lookup 15 subtable" six.numr
Substitution2: "'sups' Superscript in Latin lookup 14 subtable" uni2076
Substitution2: "'subs' Subscript in Latin lookup 13 subtable" uni2086
AlternateSubs2: "'aalt' Access All Alternates in Latin lookup 1 subtable" uni2086 uni2076 six.numr six.dnom
EndChar

StartChar: seven
Encoding: 55 55 26
Width: 500
GlyphClass: 2
Flags: W
LayerCount: 2
Fore
SplineSet
345 557 m 1
 79 557.000976562 l 1
 79 623.000976562 l 1
 432 623.000976562 l 1
 432 584.000976562 l 1
 350 377.333984375 284 182.666992188 234 0 c 1
 155 0 l 1
 213 190 276.333007812 375.666992188 345 557 c 1
EndSplineSet
Validated: 1
Substitution2: "'frac' Diagonal Fractions in Latin lookup 18 subtable" seven.numr
Substitution2: "'dnom' Denominators in Latin lookup 16 subtable" seven.dnom
Substitution2: "'numr' Numerators in Latin lookup 15 subtable" seven.numr
Substitution2: "'sups' Superscript in Latin lookup 14 subtable" uni2077
Substitution2: "'subs' Subscript in Latin lookup 13 subtable" uni2087
AlternateSubs2: "'aalt' Access All Alternates in Latin lookup 1 subtable" uni2087 uni2077 seven.numr seven.dnom
EndChar

StartChar: eight
Encoding: 56 56 27
Width: 500
GlyphClass: 2
Flags: W
LayerCount: 2
Fore
SplineSet
149.5 12 m 0
 120.5 26.6669921875 98.3310546875 46.6689453125 82.998046875 72.001953125 c 0
 67.6650390625 97.3349609375 59.998046875 125.66796875 59.998046875 157.000976562 c 0
 59.998046875 193.000976562 71.3310546875 226.66796875 93.998046875 258.000976562 c 0
 116.665039062 289.333984375 146.998046875 313.666992188 184.998046875 331 c 1
 156.331054688 345.666992188 133.331054688 366.166992188 115.998046875 392.5 c 0
 98.6650390625 418.833007812 89.998046875 447 89.998046875 477 c 0
 89.998046875 521.666992188 104.331054688 558.5 132.998046875 587.5 c 0
 161.665039062 616.5 202.33203125 631 254.999023438 631 c 0
 309.666015625 631 350.833007812 617.166992188 378.5 589.5 c 0
 406.166992188 561.833007812 420 526.333007812 420 483 c 0
 420 453 411 424.5 393 397.5 c 0
 375 370.5 351 349 321 333 c 1
 357 316.333007812 386 292.5 408 261.5 c 0
 430 230.5 441 197 441 161 c 0
 441 129 433.166992188 100 417.5 74 c 0
 401.833007812 48 379.5 27.5 350.5 12.5 c 0
 321.5 -2.5 288 -10 250 -10 c 0
 212 -10 178.5 -2.6669921875 149.5 12 c 0
327.998046875 412.501953125 m 0
 343.998046875 434.834960938 351.99609375 457.668945312 351.99609375 481.001953125 c 0
 351.99609375 506.334960938 343.329101562 527.834960938 325.99609375 545.501953125 c 0
 308.663085938 563.168945312 284.330078125 572.001953125 252.997070312 572.001953125 c 0
 221.6640625 572.001953125 197.831054688 563.501953125 181.498046875 546.501953125 c 0
 165.165039062 529.501953125 156.998046875 508.668945312 156.998046875 484.001953125 c 0
 156.998046875 456.001953125 165.998046875 433.001953125 183.998046875 415.001953125 c 0
 201.998046875 397.001953125 229.665039062 378.001953125 266.998046875 358.001953125 c 1
 291.665039062 372.001953125 311.998046875 390.168945312 327.998046875 412.501953125 c 0
338.99609375 83.5029296875 m 0
 359.663085938 103.8359375 369.99609375 129.666015625 369.99609375 160.999023438 c 0
 369.99609375 191.666015625 357.99609375 219.833007812 333.99609375 245.5 c 0
 309.99609375 271.166992188 277.663085938 290.333984375 236.99609375 303.000976562 c 1
 206.329101562 290.333984375 181.162109375 271.333984375 161.495117188 246.000976562 c 0
 141.828125 220.66796875 131.995117188 193.334960938 131.995117188 164.001953125 c 0
 131.995117188 132.668945312 142.828125 106.3359375 164.495117188 85.0029296875 c 0
 186.162109375 63.669921875 215.329101562 53.0029296875 251.99609375 53.0029296875 c 0
 289.329101562 53.0029296875 318.329101562 63.169921875 338.99609375 83.5029296875 c 0
EndSplineSet
Validated: 1
Substitution2: "'frac' Diagonal Fractions in Latin lookup 18 subtable" eight.numr
Substitution2: "'dnom' Denominators in Latin lookup 16 subtable" eight.dnom
Substitution2: "'numr' Numerators in Latin lookup 15 subtable" eight.numr
Substitution2: "'sups' Superscript in Latin lookup 14 subtable" uni2078
Substitution2: "'subs' Subscript in Latin lookup 13 subtable" uni2088
AlternateSubs2: "'aalt' Access All Alternates in Latin lookup 1 subtable" uni2088 uni2078 eight.numr eight.dnom
EndChar

StartChar: nine
Encoding: 57 57 28
Width: 500
GlyphClass: 2
Flags: W
LayerCount: 2
Fore
SplineSet
348.5 593.5 m 0
 377.5 571.166992188 399.833007812 540.000976562 415.5 500.000976562 c 0
 431.166992188 460.000976562 439 414.333984375 439 363.000976562 c 0
 439 240.333984375 420.666992188 147.833984375 384 85.5009765625 c 0
 347.333007812 23.16796875 295.333007812 -8.6650390625 228 -9.998046875 c 0
 168 -9.998046875 118.333007812 9.001953125 79 47.001953125 c 1
 129 104.001953125 l 1
 134 99.001953125 l 1
 134.666992188 92.3349609375 136.333984375 86.66796875 139.000976562 82.0009765625 c 0
 141.66796875 77.333984375 147.000976562 72.333984375 155.000976562 67.0009765625 c 0
 173.000976562 55.66796875 195.333984375 50.0009765625 222.000976562 50.0009765625 c 0
 267.333984375 50.0009765625 302.333984375 72.0009765625 327.000976562 116.000976562 c 0
 351.66796875 160.000976562 366.334960938 215.000976562 371.001953125 281.000976562 c 1
 354.334960938 266.333984375 336.16796875 255.166992188 316.500976562 247.5 c 0
 296.833984375 239.833007812 274.333984375 236 249.000976562 236 c 0
 215.000976562 236 184.16796875 244 156.500976562 260 c 0
 128.833984375 276 107.166992188 298.166992188 91.5 326.5 c 0
 75.8330078125 354.833007812 68 387.333007812 68 424 c 0
 68 462 76 496.5 92 527.5 c 0
 108 558.5 129.666992188 582.833007812 157 600.5 c 0
 184.333007812 618.166992188 214.333007812 627 247 627 c 0
 285.666992188 627 319.5 615.833007812 348.5 593.5 c 0
320.5 309.000976562 m 0
 339.5 317.000976562 356.668945312 330.333007812 372.001953125 349 c 1
 369.334960938 422.333007812 358.16796875 476.833007812 338.500976562 512.5 c 0
 318.833984375 548.166992188 289.333984375 566 250.000976562 566 c 0
 215.333984375 566 187.666992188 553.333007812 167 528 c 0
 146.333007812 502.666992188 136 468.333984375 136 425.000976562 c 0
 136 386.333984375 147 355.333984375 169 332.000976562 c 0
 191 308.66796875 218 297.000976562 250 297.000976562 c 0
 278 297.000976562 301.5 301.000976562 320.5 309.000976562 c 0
EndSplineSet
Validated: 1
Substitution2: "'frac' Diagonal Fractions in Latin lookup 18 subtable" nine.numr
Substitution2: "'dnom' Denominators in Latin lookup 16 subtable" nine.dnom
Substitution2: "'numr' Numerators in Latin lookup 15 subtable" nine.numr
Substitution2: "'sups' Superscript in Latin lookup 14 subtable" uni2079
Substitution2: "'subs' Subscript in Latin lookup 13 subtable" uni2089
AlternateSubs2: "'aalt' Access All Alternates in Latin lookup 1 subtable" uni2089 uni2079 nine.numr nine.dnom
EndChar

StartChar: colon
Encoding: 58 58 29
Width: 500
GlyphClass: 2
Flags: W
LayerCount: 2
Fore
SplineSet
197 325 m 0
 185 336.333007812 179 349.666015625 179 364.999023438 c 0
 179 380.999023438 184.833007812 394.666015625 196.5 405.999023438 c 0
 208.166992188 417.33203125 222 422.999023438 238 422.999023438 c 0
 254 422.999023438 268 417.33203125 280 405.999023438 c 0
 292 394.666015625 298 380.999023438 298 364.999023438 c 0
 298 349.666015625 292 336.333007812 280 325 c 0
 268 313.666992188 254 308 238 308 c 0
 222.666992188 308 209 313.666992188 197 325 c 0
196 5.5 m 0
 184.666992188 16.5 179.000976562 29.9990234375 179.000976562 45.9990234375 c 0
 179.000976562 61.9990234375 184.833984375 75.666015625 196.500976562 86.9990234375 c 0
 208.16796875 98.33203125 222.000976562 103.999023438 238.000976562 103.999023438 c 0
 254.000976562 103.999023438 268.000976562 98.33203125 280.000976562 86.9990234375 c 0
 292.000976562 75.666015625 298.000976562 61.9990234375 298.000976562 45.9990234375 c 0
 298.000976562 30.666015625 292.16796875 17.3330078125 280.500976562 6 c 0
 268.833984375 -5.3330078125 254.666992188 -11 238 -11 c 0
 221.333007812 -11 207.333007812 -5.5 196 5.5 c 0
EndSplineSet
Validated: 1
EndChar

StartChar: semicolon
Encoding: 59 59 30
Width: 500
GlyphClass: 2
Flags: W
LayerCount: 2
Fore
SplineSet
197 325 m 0
 185 336.333007812 179 349.666015625 179 364.999023438 c 0
 179 380.999023438 184.833007812 394.666015625 196.5 405.999023438 c 0
 208.166992188 417.33203125 222 422.999023438 238 422.999023438 c 0
 254 422.999023438 268 417.33203125 280 405.999023438 c 0
 292 394.666015625 298 380.999023438 298 364.999023438 c 0
 298 349.666015625 292 336.333007812 280 325 c 0
 268 313.666992188 254 308 238 308 c 0
 222.666992188 308 209 313.666992188 197 325 c 0
165 -138 m 1
 183.666992188 -120.666992188 199.166992188 -102 211.5 -82 c 0
 223.833007812 -62 230 -45.6669921875 230 -33 c 0
 230 -27 228.333007812 -22 225 -18 c 0
 221.666992188 -14 215.666992188 -8 207 0 c 0
 197.666992188 8.6669921875 190.666992188 16 186 22 c 0
 181.333007812 28 179 35.3330078125 179 44 c 0
 179 60.6669921875 184.5 74.6669921875 195.5 86 c 0
 206.5 97.3330078125 220.666992188 103 238 103 c 0
 256 103 271.833007812 95.1669921875 285.5 79.5 c 0
 299.166992188 63.8330078125 306 44 306 20 c 0
 306 -32 270.333007812 -94.6669921875 199 -168 c 1
 165 -138 l 1
EndSplineSet
Validated: 1
EndChar

StartChar: less
Encoding: 60 60 31
Width: 500
GlyphClass: 2
Flags: HMW
LayerCount: 2
Fore
SplineSet
35 296 m 1
 35 344 l 5
 458 567 l 5
 458 496 l 1
 111 319 l 1
 461 123 l 1
 461 47 l 1
 35 296 l 1
EndSplineSet
EndChar

StartChar: equal
Encoding: 61 61 32
Width: 500
GlyphClass: 2
Flags: W
LayerCount: 2
Fore
SplineSet
45 438 m 5
 456 438 l 5
 456 377 l 5
 45 377 l 5
 45 438 l 5
45 281 m 5
 456 281 l 5
 456 220 l 5
 45 220 l 5
 45 281 l 5
EndSplineSet
Validated: 1
Substitution2: "'/+AD0A' Single Substitution SS1-1" slash_equal.liga
EndChar

StartChar: greater
Encoding: 62 62 33
Width: 500
GlyphClass: 2
Flags: MW
HStem: 47 520
LayerCount: 2
Fore
SplineSet
40 123 m 1
 389 319 l 1
 42 496 l 1
 42 567 l 1
 466 344 l 1
 466 296 l 1
 40 47 l 1
 40 123 l 1
EndSplineSet
EndChar

StartChar: question
Encoding: 63 63 34
Width: 500
GlyphClass: 2
Flags: W
LayerCount: 2
Fore
SplineSet
226 226 m 2
 226 258.666992188 232.001953125 285 244.001953125 305 c 0
 256.001953125 325 273.668945312 346.333007812 297.001953125 369 c 0
 319.668945312 391.666992188 336.668945312 412.333984375 348.001953125 431.000976562 c 0
 359.334960938 449.66796875 365.001953125 474.000976562 365.001953125 504.000976562 c 0
 365.001953125 534.000976562 354.668945312 558.16796875 334.001953125 576.500976562 c 0
 313.334960938 594.833984375 286.66796875 604.000976562 254.000976562 604.000976562 c 0
 228.66796875 604.000976562 206.334960938 600.333984375 187.001953125 593.000976562 c 0
 167.668945312 585.66796875 150.668945312 574.000976562 136.001953125 558.000976562 c 0
 129.334960938 550.66796875 125.16796875 544.66796875 123.500976562 540.000976562 c 0
 121.833984375 535.333984375 121.333984375 529.666992188 122.000976562 523 c 1
 118.000976562 517 l 1
 110.000976562 523 l 1
 64.0009765625 561 l 1
 87.333984375 595.666992188 113.666992188 621.666992188 143 639 c 0
 172.333007812 656.333007812 210.333007812 665 257 665 c 0
 310.333007812 665 353.166015625 651 385.499023438 623 c 0
 417.83203125 595 433.999023438 557 433.999023438 509 c 0
 433.999023438 471 427.33203125 440.666992188 413.999023438 418 c 0
 400.666015625 395.333007812 381.333007812 372 356 348 c 0
 334 326 317.833007812 306.666992188 307.5 290 c 0
 297.166992188 273.333007812 292 252 292 226 c 2
 292 185 l 1
 226 185 l 1
 226 226 l 2
220.001953125 6 m 0
 208.668945312 17.3330078125 203.001953125 30.666015625 203.001953125 45.9990234375 c 0
 203.001953125 61.33203125 208.668945312 74.6650390625 220.001953125 85.998046875 c 0
 231.334960938 97.3310546875 245.001953125 102.998046875 261.001953125 102.998046875 c 0
 276.334960938 102.998046875 289.66796875 97.3310546875 301.000976562 85.998046875 c 0
 312.333984375 74.6650390625 318.000976562 61.33203125 318.000976562 45.9990234375 c 0
 318.000976562 30.666015625 312.333984375 17.3330078125 301.000976562 6 c 0
 289.66796875 -5.3330078125 276.334960938 -11 261.001953125 -11 c 0
 245.001953125 -11 231.334960938 -5.3330078125 220.001953125 6 c 0
EndSplineSet
Validated: 1
EndChar

StartChar: at
Encoding: 64 64 35
Width: 500
GlyphClass: 2
Flags: W
LayerCount: 2
Fore
SplineSet
165.5 25 m 0
 125.166992188 49 92.666015625 85.3330078125 67.9990234375 134 c 0
 43.33203125 182.666992188 30.9990234375 242.333984375 30.9990234375 313.000976562 c 0
 30.9990234375 383.000976562 42.666015625 442.000976562 65.9990234375 490.000976562 c 0
 89.33203125 538.000976562 119.33203125 573.833984375 155.999023438 597.500976562 c 0
 192.666015625 621.16796875 230.999023438 633.000976562 270.999023438 633.000976562 c 0
 304.999023438 633.000976562 336.83203125 624.500976562 366.499023438 607.500976562 c 0
 396.166015625 590.500976562 419.999023438 565.000976562 437.999023438 531.000976562 c 0
 455.999023438 497.000976562 464.999023438 456.000976562 464.999023438 408.000976562 c 2
 464.999023438 175.000976562 l 1
 404.999023438 175.000976562 l 1
 404.999023438 213.000976562 l 1
 378.999023438 182.333984375 346.666015625 167.000976562 307.999023438 167.000976562 c 0
 269.999023438 167.000976562 238.33203125 179.500976562 212.999023438 204.500976562 c 0
 187.666015625 229.500976562 174.999023438 261.000976562 174.999023438 299.000976562 c 0
 174.999023438 342.333984375 191.999023438 377.500976562 225.999023438 404.500976562 c 0
 259.999023438 431.500976562 308.666015625 445.000976562 371.999023438 445.000976562 c 0
 385.33203125 445.000976562 395.33203125 444.66796875 401.999023438 444.000976562 c 1
 401.999023438 482.66796875 389.83203125 514.834960938 365.499023438 540.501953125 c 0
 341.166015625 566.168945312 308.666015625 579.001953125 267.999023438 579.001953125 c 0
 235.33203125 579.001953125 205.33203125 569.668945312 177.999023438 551.001953125 c 0
 150.666015625 532.334960938 128.999023438 503.834960938 112.999023438 465.501953125 c 0
 96.9990234375 427.168945312 88.9990234375 380.001953125 88.9990234375 324.001953125 c 0
 88.9990234375 263.334960938 98.9990234375 212.16796875 118.999023438 170.500976562 c 0
 138.999023438 128.833984375 165.166015625 97.6669921875 197.499023438 77 c 0
 229.83203125 56.3330078125 264.33203125 46 300.999023438 46 c 0
 339.666015625 46 375.333007812 57 408 79 c 1
 435 30 l 1
 391.666992188 2.6669921875 345 -11 295 -11 c 0
 249 -11 205.833007812 1 165.5 25 c 0
384.499023438 261 m 0
 398.166015625 287 404.999023438 331.331054688 404.999023438 393.998046875 c 1
 388.999023438 395.331054688 377.666015625 395.998046875 370.999023438 395.998046875 c 0
 327.666015625 395.998046875 294.499023438 387.831054688 271.499023438 371.498046875 c 0
 248.499023438 355.165039062 236.999023438 332.33203125 236.999023438 302.999023438 c 0
 236.999023438 277.666015625 243.83203125 257.833007812 257.499023438 243.5 c 0
 271.166015625 229.166992188 290.999023438 222 316.999023438 222 c 0
 348.33203125 222 370.83203125 235 384.499023438 261 c 0
EndSplineSet
Validated: 1
EndChar

StartChar: A
Encoding: 65 65 36
Width: 500
GlyphClass: 2
Flags: W
AnchorPoint: "Anchor-8" 0 0 basechar 0
AnchorPoint: "Anchor-7" 0 0 basechar 0
AnchorPoint: "Anchor-6" 250 623 basechar 0
AnchorPoint: "Anchor-5" 414 0 basechar 0
AnchorPoint: "Anchor-4" 250 0 basechar 0
LayerCount: 2
Fore
SplineSet
349 182 m 1
 148 182 l 1
 85 0 l 1
 16 0 l 1
 246 634 l 1
 254 634 l 1
 484 0 l 1
 412 0 l 1
 349 182 l 1
331 236 m 1
 249 474 l 1
 167 236 l 1
 331 236 l 1
EndSplineSet
Validated: 1
Substitution2: "Single Substitution lookup 28 subtable" ordfeminine
Substitution2: "'aalt' Access All Alternates in Latin lookup 0 subtable" ordfeminine
EndChar

StartChar: B
Encoding: 66 66 37
Width: 500
GlyphClass: 2
Flags: W
AnchorPoint: "Anchor-8" 0 0 basechar 0
AnchorPoint: "Anchor-7" 0 0 basechar 0
AnchorPoint: "Anchor-6" 250 623 basechar 0
AnchorPoint: "Anchor-5" 0 0 basechar 0
AnchorPoint: "Anchor-4" 250 0 basechar 0
LayerCount: 2
Fore
SplineSet
48 623 m 1
 225 623.001953125 l 2
 294.333007812 623.001953125 346.166015625 609.501953125 380.499023438 582.501953125 c 0
 414.83203125 555.501953125 431.999023438 518.668945312 431.999023438 472.001953125 c 0
 431.999023438 441.334960938 423.83203125 413.16796875 407.499023438 387.500976562 c 0
 391.166015625 361.833984375 368.666015625 344.000976562 339.999023438 334.000976562 c 1
 374.666015625 322.000976562 402.833007812 301.16796875 424.5 271.500976562 c 0
 446.166992188 241.833984375 457 209.666992188 457 175 c 0
 457 120.333007812 437.666992188 77.5 399 46.5 c 0
 360.333007812 15.5 302 0 224 0 c 2
 48 0 l 1
 48 623 l 1
215 365.001953125 m 2
 313 365.001953125 362 398.001953125 362 464.001953125 c 0
 362 494.001953125 351 518.168945312 329 536.501953125 c 0
 307 554.834960938 272.666992188 564.001953125 226 564.001953125 c 2
 117 564.001953125 l 1
 117 365.001953125 l 1
 215 365.001953125 l 2
236 61.001953125 m 2
 334 61.001953125 383 100.334960938 383 179.001953125 c 0
 383 263.668945312 328.333007812 306.001953125 219 306.001953125 c 2
 117 306.001953125 l 1
 117 61.001953125 l 1
 236 61.001953125 l 2
EndSplineSet
Validated: 1
EndChar

StartChar: C
Encoding: 67 67 38
Width: 500
GlyphClass: 2
Flags: W
AnchorPoint: "Anchor-8" 0 0 basechar 0
AnchorPoint: "Anchor-7" 0 0 basechar 0
AnchorPoint: "Anchor-6" 270 623 basechar 0
AnchorPoint: "Anchor-5" 0 0 basechar 0
AnchorPoint: "Anchor-4" 280 0 basechar 0
LayerCount: 2
Fore
SplineSet
160.5 24.5 m 0
 124.166992188 47.5 95.166015625 82.666015625 73.4990234375 129.999023438 c 0
 51.83203125 177.33203125 40.9990234375 236.665039062 40.9990234375 307.998046875 c 0
 40.9990234375 384.665039062 52.666015625 446.83203125 75.9990234375 494.499023438 c 0
 99.33203125 542.166015625 128.999023438 576.333007812 164.999023438 597 c 0
 200.999023438 617.666992188 239.666015625 628 280.999023438 628 c 0
 324.999023438 628 363.166015625 617 395.499023438 595 c 0
 427.83203125 573 452.33203125 543 468.999023438 505 c 1
 408.999023438 477 l 1
 399.999023438 473 l 1
 396.999023438 480 l 1
 398.999023438 488 l 2
 398.999023438 494.666992188 394.33203125 504 384.999023438 516 c 0
 369.666015625 536.666992188 353.333007812 551.166992188 336 559.5 c 0
 318.666992188 567.833007812 299.666992188 572 279 572 c 0
 226.333007812 572 184.833007812 549.166992188 154.5 503.5 c 0
 124.166992188 457.833007812 109 394.333007812 109 313 c 0
 109 261.666992188 116.666992188 216 132 176 c 0
 147.333007812 136 168.166015625 105 194.499023438 83 c 0
 220.83203125 61 249.999023438 50 281.999023438 50 c 0
 306.666015625 50 330.333007812 56.8330078125 353 70.5 c 0
 375.666992188 84.1669921875 394 102.666992188 408 126 c 1
 460 92 l 1
 439.333007812 58 415 32.5 387 15.5 c 0
 359 -1.5 325 -10 285 -10 c 0
 238.333007812 -10 196.833007812 1.5 160.5 24.5 c 0
EndSplineSet
Validated: 1
EndChar

StartChar: D
Encoding: 68 68 39
Width: 500
GlyphClass: 2
Flags: W
AnchorPoint: "Anchor-8" 0 0 basechar 0
AnchorPoint: "Anchor-7" 250 312 basechar 0
AnchorPoint: "Anchor-6" 220 623 basechar 0
AnchorPoint: "Anchor-5" 0 0 basechar 0
AnchorPoint: "Anchor-4" 250 0 basechar 0
LayerCount: 2
Fore
SplineSet
54 623 m 1
 199.000976562 623.000976562 l 2
 250.333984375 623.000976562 291.000976562 616.16796875 321.000976562 602.500976562 c 0
 351.000976562 588.833984375 377.000976562 567.333984375 399.000976562 538.000976562 c 0
 439.66796875 483.333984375 460.000976562 406.666992188 460.000976562 308 c 0
 456.000976562 207.333007812 432.66796875 130.5 390.000976562 77.5 c 0
 347.333984375 24.5 279.666992188 -1.6669921875 187 -1 c 2
 54 -1 l 1
 54 623 l 1
184.000976562 54.0009765625 m 2
 321.333984375 54.0009765625 390.001953125 137.333984375 390.001953125 304.000976562 c 0
 389.334960938 388.66796875 373.66796875 453.16796875 343.000976562 497.500976562 c 0
 312.333984375 541.833984375 263.000976562 564.000976562 195.000976562 564.000976562 c 2
 120.000976562 564.000976562 l 1
 120.000976562 54.0009765625 l 1
 184.000976562 54.0009765625 l 2
EndSplineSet
Validated: 33
EndChar

StartChar: E
Encoding: 69 69 40
Width: 500
GlyphClass: 2
Flags: W
AnchorPoint: "Anchor-8" 0 0 basechar 0
AnchorPoint: "Anchor-7" 0 0 basechar 0
AnchorPoint: "Anchor-6" 270 623 basechar 0
AnchorPoint: "Anchor-5" 450 10 basechar 0
AnchorPoint: "Anchor-4" 250 0 basechar 0
LayerCount: 2
Fore
SplineSet
59 624 m 1
 441 624 l 1
 441 562 l 1
 125 562 l 1
 125 357 l 1
 386 357 l 1
 386 293 l 1
 125 293 l 1
 125 62 l 1
 438 62 l 1
 438 0 l 1
 59 0 l 1
 59 624 l 1
EndSplineSet
Validated: 1
EndChar

StartChar: F
Encoding: 70 70 41
Width: 500
GlyphClass: 2
Flags: W
AnchorPoint: "Anchor-8" 0 0 basechar 0
AnchorPoint: "Anchor-7" 0 0 basechar 0
AnchorPoint: "Anchor-6" 250 623 basechar 0
AnchorPoint: "Anchor-5" 0 0 basechar 0
AnchorPoint: "Anchor-4" 250 0 basechar 0
LayerCount: 2
Fore
SplineSet
78 624 m 1
 437 624 l 1
 437 563 l 1
 148 563 l 1
 148 367 l 1
 381 367 l 1
 381 306 l 1
 148 306 l 1
 148 0 l 1
 78 0 l 1
 78 624 l 1
EndSplineSet
Validated: 1
EndChar

StartChar: G
Encoding: 71 71 42
Width: 500
GlyphClass: 2
Flags: W
AnchorPoint: "Anchor-8" 0 0 basechar 0
AnchorPoint: "Anchor-7" 0 0 basechar 0
AnchorPoint: "Anchor-6" 274 623 basechar 0
AnchorPoint: "Anchor-5" 0 0 basechar 0
AnchorPoint: "Anchor-4" 266 0 basechar 0
LayerCount: 2
Fore
SplineSet
148.5 29 m 0
 112.166992188 55 84.330078125 91.666015625 64.9970703125 138.999023438 c 0
 45.6640625 186.33203125 35.9970703125 241.33203125 35.9970703125 303.999023438 c 0
 35.330078125 386.666015625 47.330078125 452.166015625 71.9970703125 500.499023438 c 0
 96.6640625 548.83203125 126.997070312 582.499023438 162.997070312 601.499023438 c 0
 198.997070312 620.499023438 235.330078125 629.999023438 271.997070312 629.999023438 c 0
 309.330078125 629.999023438 345.330078125 620.33203125 379.997070312 600.999023438 c 0
 414.6640625 581.666015625 440.6640625 556.333007812 457.997070312 525 c 1
 408.997070312 486 l 1
 400.997070312 479 l 1
 396.997070312 485 l 2
 397.6640625 490.333007812 396.831054688 495.333007812 394.498046875 500 c 0
 392.165039062 504.666992188 387.33203125 511 379.999023438 519 c 0
 363.999023438 536.333007812 347.83203125 548.833007812 331.499023438 556.5 c 0
 315.166015625 564.166992188 295.666015625 568 272.999023438 568 c 0
 222.999023438 568 182.499023438 548.666992188 151.499023438 510 c 0
 120.499023438 471.333007812 104.999023438 407.666015625 104.999023438 318.999023438 c 0
 104.999023438 233.666015625 120.166015625 167.833007812 150.499023438 121.5 c 0
 180.83203125 75.1669921875 222.999023438 52 276.999023438 52 c 0
 296.999023438 52 317.999023438 55.1669921875 339.999023438 61.5 c 0
 361.999023438 67.8330078125 380.33203125 77.3330078125 394.999023438 90 c 1
 394.999023438 238 l 1
 281.999023438 238 l 1
 281.999023438 299 l 1
 459.999023438 299 l 1
 459.999023438 55 l 1
 400.666015625 11.6669921875 339.666015625 -10 276.999023438 -10 c 0
 227.666015625 -10 184.833007812 3 148.5 29 c 0
EndSplineSet
Validated: 33
EndChar

StartChar: H
Encoding: 72 72 43
Width: 500
GlyphClass: 2
Flags: W
AnchorPoint: "Anchor-8" 0 0 basechar 0
AnchorPoint: "Anchor-7" 250 312 basechar 0
AnchorPoint: "Anchor-6" 250 623 basechar 0
AnchorPoint: "Anchor-5" 0 0 basechar 0
AnchorPoint: "Anchor-4" 250 0 basechar 0
LayerCount: 2
Fore
SplineSet
50 623 m 1
 132 623 l 1
 132 616 l 1
 128 612 125.5 607.666992188 124.5 603 c 0
 123.5 598.333007812 123 590.333007812 123 579 c 2
 123 357 l 1
 367 357 l 1
 367 623 l 1
 449 623 l 1
 449 616 l 1
 445 612 442.5 607.666992188 441.5 603 c 0
 440.5 598.333007812 440 590.333007812 440 579 c 2
 440 0 l 1
 366 0 l 1
 366 297 l 1
 123 297 l 1
 123 0 l 1
 50 0 l 1
 50 623 l 1
EndSplineSet
Validated: 1
EndChar

StartChar: I
Encoding: 73 73 44
Width: 500
GlyphClass: 2
Flags: W
AnchorPoint: "Anchor-8" 0 0 basechar 0
AnchorPoint: "Anchor-7" 0 0 basechar 0
AnchorPoint: "Anchor-6" 239 623 basechar 0
AnchorPoint: "Anchor-5" 353 0 basechar 0
AnchorPoint: "Anchor-4" 250 0 basechar 0
LayerCount: 2
Fore
SplineSet
81 59 m 1
 204 59 l 1
 204 564 l 1
 88 564 l 1
 88 623 l 1
 397 623 l 1
 397 564 l 1
 274 564 l 1
 274 58 l 1
 403 58 l 1
 403 0 l 1
 81 0 l 1
 81 59 l 1
EndSplineSet
Validated: 1
EndChar

StartChar: J
Encoding: 74 74 45
Width: 500
GlyphClass: 2
Flags: W
AnchorPoint: "Anchor-8" 0 0 basechar 0
AnchorPoint: "Anchor-7" 0 0 basechar 0
AnchorPoint: "Anchor-6" 330 623 basechar 0
AnchorPoint: "Anchor-5" 0 0 basechar 0
AnchorPoint: "Anchor-4" 250 0 basechar 0
LayerCount: 2
Fore
SplineSet
49 58 m 1
 89 108.002929688 l 1
 96 116.002929688 l 1
 101 112.002929688 l 1
 101.666992188 105.3359375 103.333984375 99.6689453125 106.000976562 95.001953125 c 0
 108.66796875 90.3349609375 114.000976562 84.66796875 122.000976562 78.0009765625 c 0
 145.333984375 60.0009765625 170.000976562 51.0009765625 196.000976562 51.0009765625 c 0
 230.000976562 51.0009765625 254.500976562 62.833984375 269.500976562 86.5009765625 c 0
 284.500976562 110.16796875 292.000976562 150.66796875 292.000976562 208.000976562 c 2
 292.000976562 564.000976562 l 1
 172.000976562 564.000976562 l 1
 172.000976562 623.000976562 l 1
 457.000976562 623.000976562 l 1
 457.000976562 564.000976562 l 1
 361.000976562 564.000976562 l 1
 361.000976562 209.000976562 l 2
 362.333984375 158.333984375 355.666992188 116.666992188 341 84 c 0
 326.333007812 51.3330078125 306.5 27.3330078125 281.5 12 c 0
 256.5 -3.3330078125 228.666992188 -11 198 -11 c 0
 136.666992188 -11 87 12 49 58 c 1
EndSplineSet
Validated: 33
EndChar

StartChar: K
Encoding: 75 75 46
Width: 500
GlyphClass: 2
Flags: W
LayerCount: 2
Fore
SplineSet
166 312 m 1
 117 258 l 1
 117 0 l 1
 42 0 l 1
 42 623 l 1
 126 623 l 1
 126 616 l 1
 122 612 119.5 607.666992188 118.5 603 c 0
 117.5 598.333007812 117 590.333007812 117 579 c 2
 117 336 l 1
 377 628 l 1
 393.666992188 624.666992188 411 623 429 623 c 2
 455 623 l 1
 219 354 l 1
 471 0 l 1
 381 -4 l 1
 166 312 l 1
EndSplineSet
Validated: 1
EndChar

StartChar: L
Encoding: 76 76 47
Width: 500
GlyphClass: 2
Flags: W
AnchorPoint: "Anchor-8" 180 457 basechar 0
AnchorPoint: "Anchor-7" 107 312 basechar 0
AnchorPoint: "Anchor-6" 200 623 basechar 0
AnchorPoint: "Anchor-5" 0 0 basechar 0
AnchorPoint: "Anchor-4" 250 0 basechar 0
LayerCount: 2
Fore
SplineSet
66 623 m 1
 148 623 l 1
 148 616 l 1
 144 612 141.5 607.666992188 140.5 603 c 0
 139.5 598.333007812 139 590.333007812 139 579 c 2
 139 60 l 1
 439 60 l 1
 439 0 l 1
 66 0 l 1
 66 623 l 1
EndSplineSet
Validated: 1
EndChar

StartChar: M
Encoding: 77 77 48
Width: 500
GlyphClass: 2
Flags: W
AnchorPoint: "Anchor-8" 0 0 basechar 0
AnchorPoint: "Anchor-7" 0 0 basechar 0
AnchorPoint: "Anchor-6" 250 623 basechar 0
AnchorPoint: "Anchor-5" 0 0 basechar 0
AnchorPoint: "Anchor-4" 250 0 basechar 0
LayerCount: 2
Fore
SplineSet
41 623 m 1
 96 623 l 1
 250 318 l 1
 407 624 l 1
 460 624 l 1
 460 0 l 1
 394 0 l 1
 394 470 l 1
 259 219 l 1
 232 219 l 1
 106 467 l 1
 106 0 l 1
 41 0 l 1
 41 623 l 1
EndSplineSet
Validated: 1
EndChar

StartChar: N
Encoding: 78 78 49
Width: 500
GlyphClass: 2
Flags: W
AnchorPoint: "Anchor-8" 0 0 basechar 0
AnchorPoint: "Anchor-7" 0 0 basechar 0
AnchorPoint: "Anchor-6" 250 623 basechar 0
AnchorPoint: "Anchor-5" 0 0 basechar 0
AnchorPoint: "Anchor-4" 250 0 basechar 0
LayerCount: 2
Fore
SplineSet
50 623 m 1
 118 623 l 1
 380 161 l 1
 380 623 l 1
 456 623 l 1
 456 616 l 1
 452 612 449.5 607.666992188 448.5 603 c 0
 447.5 598.333007812 447 590.333007812 447 579 c 2
 447 0 l 1
 392 0 l 1
 117 490 l 1
 117 0 l 1
 50 0 l 1
 50 623 l 1
EndSplineSet
Validated: 1
EndChar

StartChar: O
Encoding: 79 79 50
Width: 500
GlyphClass: 2
Flags: W
AnchorPoint: "Anchor-8" 379 584 basechar 0
AnchorPoint: "Anchor-7" 250 312 basechar 0
AnchorPoint: "Anchor-6" 250 623 basechar 0
AnchorPoint: "Anchor-5" 287 10 basechar 0
AnchorPoint: "Anchor-4" 250 0 basechar 0
LayerCount: 2
Fore
SplineSet
85 72 m 0
 46.3330078125 127.333007812 27 206 27 308 c 0
 27 407.333007812 46.5 485.333007812 85.5 542 c 0
 124.5 598.666992188 179.333007812 627 250 627 c 0
 320.666992188 627 375.5 598.666992188 414.5 542 c 0
 453.5 485.333007812 473 407.333007812 473 308 c 0
 473 206 453.666992188 127.333007812 415 72 c 0
 376.333007812 16.6669921875 321.333007812 -11 250 -11 c 0
 178.666992188 -11 123.666992188 16.6669921875 85 72 c 0
361.5 117 m 0
 387.833007812 161.666992188 401 225.333984375 401 308.000976562 c 0
 401 387.333984375 387.666992188 450.166992188 361 496.5 c 0
 334.333007812 542.833007812 297.333007812 566 250 566 c 0
 202.666992188 566 165.666992188 542.833007812 139 496.5 c 0
 112.333007812 450.166992188 99 387.333984375 99 308.000976562 c 0
 99 225.333984375 112.166992188 161.666992188 138.5 117 c 0
 164.833007812 72.3330078125 202 50 250 50 c 0
 298 50 335.166992188 72.3330078125 361.5 117 c 0
EndSplineSet
Validated: 1
Substitution2: "Single Substitution lookup 28 subtable" ordmasculine
Substitution2: "'aalt' Access All Alternates in Latin lookup 0 subtable" ordmasculine
EndChar

StartChar: P
Encoding: 80 80 51
Width: 500
GlyphClass: 2
Flags: W
AnchorPoint: "Anchor-8" 0 0 basechar 0
AnchorPoint: "Anchor-7" 0 0 basechar 0
AnchorPoint: "Anchor-6" 250 623 basechar 0
AnchorPoint: "Anchor-5" 0 0 basechar 0
AnchorPoint: "Anchor-4" 93 0 basechar 0
LayerCount: 2
Fore
SplineSet
59 623 m 1
 259 623 l 2
 325 623 374.333007812 606.666992188 407 574 c 0
 439.666992188 541.333007812 456 499 456 447 c 0
 456 395.666992188 440 354.166992188 408 322.5 c 0
 376 290.833007812 328 275 264 275 c 2
 131 275 l 1
 131 0 l 1
 59 0 l 1
 59 623 l 1
256 337 m 2
 300 337 332.333007812 346.5 353 365.5 c 0
 373.666992188 384.5 384 411 384 445 c 0
 384 477.666992188 373.333007812 504.5 352 525.5 c 0
 330.666992188 546.5 299 557 257 557 c 2
 131 557 l 1
 131 337 l 1
 256 337 l 2
EndSplineSet
Validated: 1
EndChar

StartChar: Q
Encoding: 81 81 52
Width: 500
GlyphClass: 2
Flags: W
AnchorPoint: "Anchor-8" 0 0 basechar 0
AnchorPoint: "Anchor-7" 0 0 basechar 0
AnchorPoint: "Anchor-6" 250 623 basechar 0
AnchorPoint: "Anchor-5" 0 0 basechar 0
AnchorPoint: "Anchor-4" 250 0 basechar 0
LayerCount: 2
Fore
SplineSet
265 -117.5 m 0
 239 -96.5 225.999023438 -59.6669921875 225.999023438 -7 c 1
 191.33203125 -2.3330078125 158.999023438 12.5 128.999023438 37.5 c 0
 98.9990234375 62.5 74.83203125 97.8330078125 56.4990234375 143.5 c 0
 38.166015625 189.166992188 28.9990234375 244 28.9990234375 308 c 0
 28.9990234375 385.333007812 40.33203125 448 62.9990234375 496 c 0
 85.666015625 544 113.833007812 578.333007812 147.5 599 c 0
 181.166992188 619.666992188 215.666992188 630 251 630 c 0
 291 630 328 618.666992188 362 596 c 0
 396 573.333007812 423 538 443 490 c 0
 463 442 472.333007812 382.333007812 471 311 c 0
 471 219 455.5 146.333007812 424.5 93 c 0
 393.5 39.6669921875 347.666992188 6.333984375 287 -6.9990234375 c 1
 288.333007812 -31.666015625 294.5 -50.3330078125 305.5 -63 c 0
 316.5 -75.6669921875 335 -82 361 -82 c 2
 442 -77 l 1
 440 -145 l 1
 401 -145 l 2
 336.333007812 -147.666992188 291 -138.5 265 -117.5 c 0
326.499023438 79.5 m 0
 348.83203125 95.8330078125 367.333007812 121.833984375 382 157.500976562 c 0
 396.666992188 193.16796875 404 238.66796875 404 294.000976562 c 0
 404 363.333984375 396.166992188 418.333984375 380.5 459.000976562 c 0
 364.833007812 499.66796875 345.5 528.16796875 322.5 544.500976562 c 0
 299.5 560.833984375 275.666992188 569.000976562 251 569.000976562 c 0
 201.666992188 569.000976562 163.666992188 545.16796875 137 497.500976562 c 0
 110.333007812 449.833984375 97 391.666992188 97 323 c 0
 97 243 111.166992188 178.333007812 139.5 129 c 0
 167.833007812 79.6669921875 206.666015625 55 255.999023438 55 c 0
 280.666015625 55 304.166015625 63.1669921875 326.499023438 79.5 c 0
EndSplineSet
Validated: 33
EndChar

StartChar: R
Encoding: 82 82 53
Width: 500
GlyphClass: 2
Flags: W
AnchorPoint: "Anchor-8" 0 0 basechar 0
AnchorPoint: "Anchor-7" 0 0 basechar 0
AnchorPoint: "Anchor-6" 250 623 basechar 0
AnchorPoint: "Anchor-5" 0 0 basechar 0
AnchorPoint: "Anchor-4" 250 0 basechar 0
LayerCount: 2
Fore
SplineSet
56 623 m 1
 239.999023438 623.000976562 l 2
 310.666015625 623.000976562 362.833007812 607.333984375 396.5 576.000976562 c 0
 430.166992188 544.66796875 447 501.000976562 447 445.000976562 c 0
 447 408.333984375 435.166992188 373.666992188 411.5 341 c 0
 387.833007812 308.333007812 357.333007812 287.333007812 320 278 c 1
 464 0 l 1
 386 0 l 1
 248 275 l 1
 127 275 l 1
 127 0 l 1
 56 0 l 1
 56 623 l 1
247.999023438 337.000976562 m 2
 291.33203125 337.000976562 323.33203125 346.500976562 343.999023438 365.500976562 c 0
 364.666015625 384.500976562 374.999023438 411.000976562 374.999023438 445.000976562 c 0
 374.999023438 478.333984375 364.499023438 505.333984375 343.499023438 526.000976562 c 0
 322.499023438 546.66796875 290.666015625 557.000976562 247.999023438 557.000976562 c 2
 126.999023438 557.000976562 l 1
 126.999023438 337.000976562 l 1
 247.999023438 337.000976562 l 2
EndSplineSet
Validated: 1
EndChar

StartChar: S
Encoding: 83 83 54
Width: 500
GlyphClass: 2
Flags: W
AnchorPoint: "Anchor-8" 0 0 basechar 0
AnchorPoint: "Anchor-7" 0 0 basechar 0
AnchorPoint: "Anchor-6" 261 623 basechar 0
AnchorPoint: "Anchor-5" 0 0 basechar 0
AnchorPoint: "Anchor-4" 247 0 basechar 0
LayerCount: 2
Fore
SplineSet
52 69 m 1
 88.0009765625 132 l 1
 92.0009765625 141 l 1
 99.0009765625 137 l 2
 99.66796875 135 100.500976562 131.666992188 101.500976562 127 c 0
 102.500976562 122.333007812 104.16796875 117.833007812 106.500976562 113.5 c 0
 108.833984375 109.166992188 112.666992188 105 118 101 c 0
 155.333007812 69 201.666015625 53 256.999023438 53 c 0
 293.666015625 53 324.333007812 63.3330078125 349 84 c 0
 373.666992188 104.666992188 386 130 386 160 c 0
 386 179.333007812 382.166992188 195.5 374.5 208.5 c 0
 366.833007812 221.5 353 234.333007812 333 247 c 0
 313 259.666992188 283 274.666992188 243 292 c 0
 181.666992188 316 137.833984375 343.333007812 111.500976562 374 c 0
 85.16796875 404.666992188 72.0009765625 439 72.0009765625 477 c 0
 72.0009765625 523.666992188 89.0009765625 561 123.000976562 589 c 0
 157.000976562 617 203.333984375 631 262.000976562 631 c 0
 296.000976562 631 327.833984375 624.166992188 357.500976562 610.5 c 0
 387.16796875 596.833007812 413.000976562 577.666015625 435.000976562 552.999023438 c 1
 390.000976562 492.999023438 l 1
 384.000976562 496.999023438 l 2
 384.000976562 498.33203125 383.500976562 501.33203125 382.500976562 505.999023438 c 0
 381.500976562 510.666015625 379.66796875 515.166015625 377.000976562 519.499023438 c 0
 374.333984375 523.83203125 370.666992188 528.33203125 366 532.999023438 c 0
 350.666992188 547.666015625 334 557.999023438 316 563.999023438 c 0
 298 569.999023438 276.333007812 572.999023438 251 572.999023438 c 0
 219 572.999023438 193.166992188 564.166015625 173.5 546.499023438 c 0
 153.833007812 528.83203125 144 507.33203125 144 481.999023438 c 0
 144 462.666015625 148.166992188 445.833007812 156.5 431.5 c 0
 164.833007812 417.166992188 180 403.166992188 202 389.5 c 0
 224 375.833007812 256 360.666015625 298 343.999023438 c 0
 357.333007812 319.33203125 398.333007812 293.999023438 421 267.999023438 c 0
 443.666992188 241.999023438 455 209.33203125 455 169.999023438 c 0
 455 139.33203125 447.5 110.33203125 432.5 82.9990234375 c 0
 417.5 55.666015625 394.333007812 33.3330078125 363 16 c 0
 331.666992188 -1.3330078125 293 -10 247 -10 c 0
 166.333007812 -10 101.333007812 16.3330078125 52 69 c 1
EndSplineSet
Validated: 1
EndChar

StartChar: T
Encoding: 84 84 55
Width: 500
GlyphClass: 2
Flags: W
AnchorPoint: "Anchor-8" 0 0 basechar 0
AnchorPoint: "Anchor-7" 244 312 basechar 0
AnchorPoint: "Anchor-6" 250 623 basechar 0
AnchorPoint: "Anchor-5" 0 0 basechar 0
AnchorPoint: "Anchor-4" 250 0 basechar 0
LayerCount: 2
Fore
SplineSet
208 561 m 1
 31 561 l 1
 31 624 l 1
 463 624 l 1
 463 561 l 1
 279 561 l 1
 279 0 l 1
 208 0 l 1
 208 561 l 1
EndSplineSet
Validated: 1
EndChar

StartChar: U
Encoding: 85 85 56
Width: 500
GlyphClass: 2
Flags: W
AnchorPoint: "Anchor-8" 454 623 basechar 0
AnchorPoint: "Anchor-7" 0 0 basechar 0
AnchorPoint: "Anchor-6" 250 623 basechar 0
AnchorPoint: "Anchor-5" 302 10 basechar 0
AnchorPoint: "Anchor-4" 250 0 basechar 0
LayerCount: 2
Fore
SplineSet
101 48 m 0
 67 87.3330078125 50 143 50 215 c 2
 50 623 l 1
 128 623 l 1
 128 616 l 1
 124 612 121.5 607.666992188 120.5 603 c 0
 119.5 598.333007812 119 590.333007812 119 579 c 2
 119 214 l 2
 119 160.666992188 129.333007812 119.666992188 150 91 c 0
 170.666992188 62.3330078125 204.666992188 48 252 48 c 0
 300 48 334.5 62.3330078125 355.5 91 c 0
 376.5 119.666992188 387 161.666992188 387 217 c 2
 387 623 l 1
 454 623 l 1
 454 218 l 2
 454 141.333007812 436.166992188 84 400.5 46 c 0
 364.833007812 8 315 -11 251 -11 c 0
 185 -11 135 8.6669921875 101 48 c 0
EndSplineSet
Validated: 1
EndChar

StartChar: V
Encoding: 86 86 57
Width: 500
GlyphClass: 2
Flags: W
AnchorPoint: "Anchor-8" 0 0 basechar 0
AnchorPoint: "Anchor-7" 0 0 basechar 0
AnchorPoint: "Anchor-6" 250 623 basechar 0
AnchorPoint: "Anchor-5" 0 0 basechar 0
AnchorPoint: "Anchor-4" 250 0 basechar 0
LayerCount: 2
Fore
SplineSet
25 624 m 1
 98 624 l 1
 258 145 l 1
 409 623 l 1
 478 623 l 1
 269 -4 l 1
 237 -4 l 1
 25 624 l 1
EndSplineSet
Validated: 1
EndChar

StartChar: W
Encoding: 87 87 58
Width: 500
GlyphClass: 2
Flags: W
AnchorPoint: "Anchor-8" 0 0 basechar 0
AnchorPoint: "Anchor-7" 0 0 basechar 0
AnchorPoint: "Anchor-6" 260 623 basechar 0
AnchorPoint: "Anchor-5" 0 0 basechar 0
AnchorPoint: "Anchor-4" 254 0 basechar 0
LayerCount: 2
Fore
SplineSet
17 623 m 1
 82 623 l 1
 149 202 l 1
 249 577 l 1
 271 577 l 1
 372 200 l 1
 429 623 l 1
 488 623 l 1
 389 0 l 1
 362 0 l 1
 255 407 l 1
 146 0 l 1
 117 0 l 1
 17 623 l 1
EndSplineSet
Validated: 1
EndChar

StartChar: X
Encoding: 88 88 59
Width: 500
GlyphClass: 2
Flags: W
AnchorPoint: "Anchor-8" 0 0 basechar 0
AnchorPoint: "Anchor-7" 0 0 basechar 0
AnchorPoint: "Anchor-6" 250 623 basechar 0
AnchorPoint: "Anchor-5" 0 0 basechar 0
AnchorPoint: "Anchor-4" 250 0 basechar 0
LayerCount: 2
Fore
SplineSet
211 318 m 1
 44 624 l 1
 119 624 l 1
 250 387 l 1
 379 624 l 1
 449 624 l 1
 291 319 l 1
 468 0 l 1
 389 0 l 1
 251 247 l 1
 117 0 l 1
 41 0 l 1
 211 318 l 1
EndSplineSet
Validated: 1
EndChar

StartChar: Y
Encoding: 89 89 60
Width: 500
GlyphClass: 2
Flags: W
AnchorPoint: "Anchor-8" 0 0 basechar 0
AnchorPoint: "Anchor-7" 0 0 basechar 0
AnchorPoint: "Anchor-6" 250 623 basechar 0
AnchorPoint: "Anchor-5" 0 0 basechar 0
AnchorPoint: "Anchor-4" 258 0 basechar 0
LayerCount: 2
Fore
SplineSet
220 246 m 1
 28 623 l 1
 108 623 l 1
 261 321 l 1
 399 623 l 1
 473 623 l 1
 296 246 l 1
 296 0 l 1
 220 0 l 1
 220 246 l 1
EndSplineSet
Validated: 1
EndChar

StartChar: Z
Encoding: 90 90 61
Width: 500
GlyphClass: 2
Flags: W
AnchorPoint: "Anchor-8" 0 0 basechar 0
AnchorPoint: "Anchor-7" 0 0 basechar 0
AnchorPoint: "Anchor-6" 260 623 basechar 0
AnchorPoint: "Anchor-5" 0 0 basechar 0
AnchorPoint: "Anchor-4" 270 0 basechar 0
LayerCount: 2
Fore
SplineSet
50 49 m 1
 364 560 l 1
 62 560 l 1
 62 623 l 1
 447 623 l 1
 447 574 l 1
 138 62 l 1
 419 62 l 2
 429.666992188 62 437.5 62.6669921875 442.5 64 c 0
 447.5 65.3330078125 452 68 456 72 c 1
 463 72 l 1
 463 0 l 1
 50 0 l 1
 50 49 l 1
EndSplineSet
Validated: 1
EndChar

StartChar: bracketleft
Encoding: 91 91 62
Width: 500
GlyphClass: 2
Flags: W
LayerCount: 2
Fore
SplineSet
131 670 m 1
 417 670 l 1
 417 610 l 1
 195 610 l 1
 195 -32 l 1
 418 -32 l 1
 418 -89 l 1
 131 -89 l 1
 131 670 l 1
EndSplineSet
Validated: 1
EndChar

StartChar: backslash
Encoding: 92 92 63
Width: 500
GlyphClass: 2
Flags: W
LayerCount: 2
Fore
SplineSet
64 634 m 1
 123 665 l 1
 437 -13 l 1
 378 -42 l 1
 64 634 l 1
EndSplineSet
Validated: 1
EndChar

StartChar: bracketright
Encoding: 93 93 64
Width: 500
GlyphClass: 2
Flags: W
LayerCount: 2
Fore
SplineSet
131 -89 m 1
 131 -32 l 1
 354 -32 l 1
 354 610 l 1
 132 610 l 1
 132 670 l 1
 418 670 l 1
 418 -89 l 1
 131 -89 l 1
EndSplineSet
Validated: 1
EndChar

StartChar: asciicircum
Encoding: 94 94 65
Width: 500
GlyphClass: 2
Flags: W
LayerCount: 2
Fore
SplineSet
93 367 m 1
 246 623 l 1
 268 623 l 1
 403 368 l 1
 350 343 l 1
 253 518 l 1
 143 343 l 1
 93 367 l 1
EndSplineSet
Validated: 1
Substitution2: "'ss01' Style Set 1 in Latin lookup 25 subtable" asciicircum.ss01
Substitution2: "'salt' Stylistic Alternatives in Latin lookup 24 subtable" asciicircum.ss01
Substitution2: "'aalt' Access All Alternates in Latin lookup 0 subtable" asciicircum.ss01
EndChar

StartChar: underscore
Encoding: 95 95 66
Width: 500
GlyphClass: 2
Flags: W
LayerCount: 2
Fore
SplineSet
35 -19 m 1
 466 -19 l 1
 466 -80 l 1
 35 -80 l 1
 35 -19 l 1
EndSplineSet
Validated: 1
EndChar

StartChar: grave
Encoding: 96 96 67
Width: 500
GlyphClass: 4
Flags: W
AnchorPoint: "Anchor-10" 229 609 basemark 0
LayerCount: 2
Fore
SplineSet
154 642 m 1
 209 682 l 1
 293 533 l 1
 255 507 l 1
 154 642 l 1
EndSplineSet
Validated: 1
Substitution2: "Single Substitution lookup 28 subtable" grave.case
Substitution2: "'case' Case-Sensitive Forms in Latin lookup 22 subtable" grave.case
Substitution2: "'aalt' Access All Alternates in Latin lookup 0 subtable" grave.case
EndChar

StartChar: a
Encoding: 97 97 68
Width: 500
GlyphClass: 2
Flags: W
AnchorPoint: "Anchor-8" 0 0 basechar 0
AnchorPoint: "Anchor-7" 0 0 basechar 0
AnchorPoint: "Anchor-6" 250 457 basechar 0
AnchorPoint: "Anchor-5" 385 0 basechar 0
AnchorPoint: "Anchor-4" 250 0 basechar 0
LayerCount: 2
Fore
SplineSet
393.5 416 m 0
 427.833007812 382 445.001953125 324.333984375 445.001953125 243.000976562 c 2
 445.001953125 0.0009765625 l 1
 367.001953125 0.0009765625 l 1
 367.001953125 70.0009765625 l 1
 339.001953125 16.0009765625 287.001953125 -10.9990234375 211.001953125 -10.9990234375 c 0
 160.334960938 -10.9990234375 120.66796875 0.5009765625 92.0009765625 23.5009765625 c 0
 63.333984375 46.5009765625 49.0009765625 77.0009765625 49.0009765625 115.000976562 c 0
 49.0009765625 147.000976562 59.333984375 175.000976562 80.0009765625 199.000976562 c 0
 100.66796875 223.000976562 128.500976562 241.500976562 163.500976562 254.500976562 c 0
 198.500976562 267.500976562 237.000976562 274.000976562 279.000976562 274.000976562 c 0
 317.000976562 274.000976562 351.333984375 272.000976562 382.000976562 268.000976562 c 1
 378.000976562 319.333984375 364.500976562 355.500976562 341.500976562 376.500976562 c 0
 318.500976562 397.500976562 284.333984375 408.000976562 239.000976562 408.000976562 c 0
 216.333984375 408.000976562 194.500976562 403.66796875 173.500976562 395.000976562 c 0
 152.500976562 386.333984375 133.333984375 373.666992188 116.000976562 357 c 1
 81.0009765625 403 l 1
 123.66796875 445.666992188 178.000976562 467 244.000976562 467 c 0
 309.333984375 467 359.166992188 450 393.5 416 c 0
335.001953125 87.5009765625 m 0
 363.668945312 116.500976562 379.334960938 158.333984375 382.001953125 213.000976562 c 1
 352.001953125 217.66796875 319.668945312 220.000976562 285.001953125 220.000976562 c 0
 234.334960938 220.000976562 194.334960938 211.66796875 165.001953125 195.000976562 c 0
 135.668945312 178.333984375 121.001953125 153.000976562 121.001953125 119.000976562 c 0
 121.001953125 69.0009765625 153.334960938 44.0009765625 218.001953125 44.0009765625 c 0
 267.334960938 44.0009765625 306.334960938 58.5009765625 335.001953125 87.5009765625 c 0
EndSplineSet
Validated: 1
Substitution2: "Single Substitution lookup 28 subtable" ordfeminine
Substitution2: "'aalt' Access All Alternates in Latin lookup 0 subtable" ordfeminine
EndChar

StartChar: b
Encoding: 98 98 69
Width: 500
GlyphClass: 2
Flags: W
AnchorPoint: "Anchor-8" 0 0 basechar 0
AnchorPoint: "Anchor-7" 0 0 basechar 0
AnchorPoint: "Anchor-6" 250 457 basechar 0
AnchorPoint: "Anchor-5" 0 0 basechar 0
AnchorPoint: "Anchor-4" 250 0 basechar 0
LayerCount: 2
Fore
SplineSet
190 7.5 m 0
 166.666992188 19.8330078125 146.999023438 37.33203125 130.999023438 59.9990234375 c 1
 105.999023438 -0.0009765625 l 1
 59.9990234375 -0.0009765625 l 1
 59.9990234375 664.999023438 l 1
 141.999023438 664.999023438 l 1
 141.999023438 657.999023438 l 1
 137.999023438 653.999023438 135.499023438 649.666015625 134.499023438 644.999023438 c 0
 133.499023438 640.33203125 132.999023438 632.33203125 132.999023438 620.999023438 c 2
 132.999023438 386.999023438 l 1
 147.666015625 411.666015625 167.499023438 431.333007812 192.499023438 446 c 0
 217.499023438 460.666992188 242.999023438 468 268.999023438 468 c 0
 326.33203125 468 371.999023438 448 405.999023438 408 c 0
 439.999023438 368 456.999023438 309.666992188 456.999023438 233 c 0
 456.999023438 181 447.999023438 136.5 429.999023438 99.5 c 0
 411.999023438 62.5 388.33203125 34.8330078125 358.999023438 16.5 c 0
 329.666015625 -1.8330078125 298.666015625 -11 265.999023438 -11 c 0
 238.666015625 -11 213.333007812 -4.8330078125 190 7.5 c 0
346.999023438 95.4990234375 m 0
 370.999023438 123.83203125 382.998046875 168.331054688 382.998046875 228.998046875 c 0
 382.998046875 287.665039062 371.831054688 331.83203125 349.498046875 361.499023438 c 0
 327.165039062 391.166015625 296.998046875 405.999023438 258.998046875 405.999023438 c 0
 221.665039062 405.999023438 191.33203125 389.33203125 167.999023438 355.999023438 c 0
 144.666015625 322.666015625 132.999023438 279.666015625 132.999023438 226.999023438 c 0
 132.999023438 110.999023438 174.33203125 52.9990234375 256.999023438 52.9990234375 c 0
 292.999023438 52.9990234375 322.999023438 67.166015625 346.999023438 95.4990234375 c 0
EndSplineSet
Validated: 1
EndChar

StartChar: c
Encoding: 99 99 70
Width: 500
GlyphClass: 2
Flags: W
AnchorPoint: "Anchor-8" 0 0 basechar 0
AnchorPoint: "Anchor-7" 0 0 basechar 0
AnchorPoint: "Anchor-6" 286 457 basechar 0
AnchorPoint: "Anchor-5" 0 0 basechar 0
AnchorPoint: "Anchor-4" 286 0 basechar 0
LayerCount: 2
Fore
SplineSet
167 20 m 0
 132.333007812 40.6669921875 105.166015625 69.166015625 85.4990234375 105.499023438 c 0
 65.83203125 141.83203125 55.9990234375 182.665039062 55.9990234375 227.998046875 c 0
 55.9990234375 273.331054688 65.83203125 313.998046875 85.4990234375 349.998046875 c 0
 105.166015625 385.998046875 132.333007812 414.331054688 167 434.998046875 c 0
 201.666992188 455.665039062 240.666992188 465.998046875 284 465.998046875 c 0
 320.666992188 465.998046875 354 458.498046875 384 443.498046875 c 0
 414 428.498046875 438.333007812 407.665039062 457 380.998046875 c 1
 412 336.998046875 l 1
 405 329.998046875 l 1
 400 334.998046875 l 1
 400 340.998046875 398.833007812 346.498046875 396.5 351.498046875 c 0
 394.166992188 356.498046875 389 362.331054688 381 368.998046875 c 0
 367 381.665039062 351.666992188 390.83203125 335 396.499023438 c 0
 318.333007812 402.166015625 298.666015625 404.999023438 275.999023438 404.999023438 c 0
 249.999023438 404.999023438 225.83203125 397.83203125 203.499023438 383.499023438 c 0
 181.166015625 369.166015625 163.333007812 348.999023438 150 322.999023438 c 0
 136.666992188 296.999023438 130 266.999023438 130 232.999023438 c 0
 130 198.999023438 136.833007812 168.33203125 150.5 140.999023438 c 0
 164.166992188 113.666015625 183.166992188 92.3330078125 207.5 77 c 0
 231.833007812 61.6669921875 259 54 289 54 c 0
 335 54 374.666992188 72.6669921875 408 110 c 1
 450 61 l 1
 405.333007812 13 350.333007812 -11 285 -11 c 0
 241 -11 201.666992188 -0.6669921875 167 20 c 0
EndSplineSet
Validated: 1
EndChar

StartChar: d
Encoding: 100 100 71
Width: 500
GlyphClass: 2
Flags: W
AnchorPoint: "Anchor-8" 470 457 basechar 0
AnchorPoint: "Anchor-7" 360 549 basechar 0
AnchorPoint: "Anchor-6" 250 457 basechar 0
AnchorPoint: "Anchor-5" 0 0 basechar 0
AnchorPoint: "Anchor-4" 250 0 basechar 0
LayerCount: 2
Fore
SplineSet
142 17.5 m 0
 113.333007812 35.8330078125 90.0009765625 63.33203125 72.0009765625 99.9990234375 c 0
 54.0009765625 136.666015625 45.0009765625 180.999023438 45.0009765625 232.999023438 c 0
 45.0009765625 285.666015625 54.333984375 329.666015625 73.0009765625 364.999023438 c 0
 91.66796875 400.33203125 115.66796875 426.499023438 145.000976562 443.499023438 c 0
 174.333984375 460.499023438 205.333984375 468.999023438 238.000976562 468.999023438 c 0
 268.66796875 468.999023438 295.500976562 461.999023438 318.500976562 447.999023438 c 0
 341.500976562 433.999023438 359.000976562 414.666015625 371.000976562 389.999023438 c 1
 371.000976562 664.999023438 l 1
 447.000976562 664.999023438 l 1
 447.000976562 657.999023438 l 1
 443.000976562 653.999023438 440.500976562 649.666015625 439.500976562 644.999023438 c 0
 438.500976562 640.33203125 438.000976562 632.33203125 438.000976562 620.999023438 c 2
 439.000976562 70.9990234375 l 2
 439.000976562 54.9990234375 439.500976562 41.83203125 440.500976562 31.4990234375 c 0
 441.500976562 21.166015625 444.333984375 10.666015625 449.000976562 -0.0009765625 c 1
 378.000976562 -0.0009765625 l 1
 373.333984375 10.666015625 370.500976562 21.166015625 369.500976562 31.4990234375 c 0
 368.500976562 41.83203125 368.000976562 54.9990234375 368.000976562 70.9990234375 c 1
 353.333984375 45.666015625 334.500976562 25.8330078125 311.500976562 11.5 c 0
 288.500976562 -2.8330078125 262.66796875 -10 234.000976562 -10 c 0
 201.333984375 -10 170.666992188 -0.8330078125 142 17.5 c 0
336.000976562 101.999023438 m 0
 355.333984375 134.666015625 365.001953125 177.666015625 365.001953125 230.999023438 c 0
 365.001953125 284.999023438 354.501953125 328.33203125 333.501953125 360.999023438 c 0
 312.501953125 393.666015625 281.001953125 409.999023438 239.001953125 409.999023438 c 0
 199.001953125 409.999023438 168.334960938 395.166015625 147.001953125 365.499023438 c 0
 125.668945312 335.83203125 115.001953125 295.33203125 115.001953125 243.999023438 c 0
 115.001953125 185.33203125 126.168945312 138.83203125 148.501953125 104.499023438 c 0
 170.834960938 70.166015625 203.001953125 52.9990234375 245.001953125 52.9990234375 c 0
 286.334960938 52.9990234375 316.66796875 69.33203125 336.000976562 101.999023438 c 0
EndSplineSet
Validated: 1
EndChar

StartChar: e
Encoding: 101 101 72
Width: 500
GlyphClass: 2
Flags: W
AnchorPoint: "Anchor-8" 0 0 basechar 0
AnchorPoint: "Anchor-7" 0 0 basechar 0
AnchorPoint: "Anchor-6" 260 457 basechar 0
AnchorPoint: "Anchor-5" 318 10 basechar 0
AnchorPoint: "Anchor-4" 280 0 basechar 0
LayerCount: 2
Fore
SplineSet
109.5 52 m 0
 69.1669921875 93.3330078125 48.9990234375 151.666992188 48.9990234375 227 c 0
 48.9990234375 277 58.33203125 320.166992188 76.9990234375 356.5 c 0
 95.666015625 392.833007812 120.833007812 420.5 152.5 439.5 c 0
 184.166992188 458.5 219.666992188 468 259 468 c 0
 314.333007812 468 359.166015625 449.666992188 393.499023438 413 c 0
 427.83203125 376.333007812 444.999023438 322.333007812 444.999023438 251 c 0
 444.999023438 243.666992188 444.33203125 232.666992188 442.999023438 218 c 1
 117.999023438 218 l 1
 120.666015625 162 136.333007812 119.666992188 165 91 c 0
 193.666992188 62.3330078125 230 48 274 48 c 0
 322 48 361.333007812 65 392 99 c 1
 432 60 l 1
 393.333007812 13.3330078125 340 -10 272 -10 c 0
 204 -10 149.833007812 10.6669921875 109.5 52 c 0
371.999023438 274.000976562 m 1
 371.999023438 316.66796875 361.166015625 350.500976562 339.499023438 375.500976562 c 0
 317.83203125 400.500976562 289.33203125 413.000976562 253.999023438 413.000976562 c 0
 220.666015625 413.000976562 191.666015625 401.333984375 166.999023438 378.000976562 c 0
 142.33203125 354.66796875 126.999023438 320.000976562 120.999023438 274.000976562 c 1
 371.999023438 274.000976562 l 1
EndSplineSet
Validated: 1
EndChar

StartChar: f
Encoding: 102 102 73
Width: 500
GlyphClass: 2
Flags: W
LayerCount: 2
Fore
SplineSet
162 400 m 1
 63.001953125 400.000976562 l 1
 63.001953125 457.000976562 l 1
 162.001953125 457.000976562 l 1
 162.001953125 495.000976562 l 2
 162.001953125 553.66796875 177.168945312 597.66796875 207.501953125 627.000976562 c 0
 237.834960938 656.333984375 278.66796875 671.000976562 330.000976562 671.000976562 c 0
 359.333984375 671.000976562 386.500976562 665.66796875 411.500976562 655.000976562 c 0
 436.500976562 644.333984375 457.000976562 628.666992188 473.000976562 608 c 1
 435.000976562 555 l 1
 429.000976562 547 l 1
 423.000976562 551 l 2
 423.000976562 552.333007812 422.500976562 555.166015625 421.500976562 559.499023438 c 0
 420.500976562 563.83203125 418.66796875 568.33203125 416.000976562 572.999023438 c 0
 413.333984375 577.666015625 409.333984375 582.333007812 404.000976562 587 c 0
 394.000976562 596.333007812 383.66796875 603 373.000976562 607 c 0
 362.333984375 611 348.666992188 613 332 613 c 0
 300.666992188 613 276 603.666992188 258 585 c 0
 240 566.333007812 231 536.333007812 231 495 c 2
 231 457 l 1
 381 457 l 1
 381 400 l 1
 231 400 l 1
 231 0 l 1
 162 0 l 1
 162 400 l 1
EndSplineSet
Validated: 1
EndChar

StartChar: g
Encoding: 103 103 74
Width: 500
GlyphClass: 2
Flags: W
AnchorPoint: "Anchor-8" 0 0 basechar 0
AnchorPoint: "Anchor-7" 0 0 basechar 0
AnchorPoint: "Anchor-6" 226 457 basechar 0
AnchorPoint: "Anchor-5" 0 0 basechar 0
AnchorPoint: "Anchor-4" 240 -162 basechar 0
LayerCount: 2
Fore
SplineSet
449 411 m 0
 417 411 390.333007812 403.998046875 369 389.998046875 c 1
 380.333007812 367.331054688 386 342.331054688 386 314.998046875 c 0
 386 284.998046875 379.5 257.831054688 366.5 233.498046875 c 0
 353.5 209.165039062 334.833007812 189.998046875 310.5 175.998046875 c 0
 286.166992188 161.998046875 258 154.998046875 226 154.998046875 c 0
 200.666992188 154.998046875 177 159.665039062 155 168.998046875 c 1
 143 154.331054688 137 140.331054688 137 126.998046875 c 0
 137 110.998046875 147.166992188 99.498046875 167.5 92.498046875 c 0
 187.833007812 85.498046875 224.333007812 81.998046875 277 81.998046875 c 0
 341.666992188 81.998046875 385.833984375 72.1650390625 409.500976562 52.498046875 c 0
 433.16796875 32.8310546875 445.000976562 3.998046875 445.000976562 -34.001953125 c 0
 445.000976562 -73.3349609375 429.000976562 -106.16796875 397.000976562 -132.500976562 c 0
 365.000976562 -158.833984375 315.000976562 -172.000976562 247.000976562 -172.000976562 c 0
 181.66796875 -172.000976562 130.500976562 -162.000976562 93.5009765625 -142.000976562 c 0
 56.5009765625 -122.000976562 38.0009765625 -92.66796875 38.0009765625 -54.0009765625 c 0
 38.0009765625 -30.0009765625 44.66796875 -9.333984375 58.0009765625 7.9990234375 c 0
 71.333984375 25.33203125 88.333984375 38.9990234375 109.000976562 48.9990234375 c 1
 87.0009765625 63.666015625 76.0009765625 83.9990234375 76.0009765625 109.999023438 c 0
 76.0009765625 136.666015625 89.66796875 164.666015625 117.000976562 193.999023438 c 1
 100.333984375 208.666015625 87.6669921875 226.333007812 79 247 c 0
 70.3330078125 267.666992188 66 290.333984375 66 315.000976562 c 0
 66 344.333984375 72.5 371.166992188 85.5 395.5 c 0
 98.5 419.833007812 117.166992188 439 141.5 453 c 0
 165.833007812 467 194 474 226 474 c 0
 274.666992188 474 313.666992188 458.333007812 343 427 c 1
 359 441.666992188 375.5 452.5 392.5 459.5 c 0
 409.5 466.5 428.333007812 470 449 470 c 2
 466 469 l 1
 475 410 l 1
 469 410.666992188 460.333007812 411 449 411 c 0
297.5 243.998046875 m 0
 316.5 263.331054688 326 286.998046875 326 314.998046875 c 0
 326 342.998046875 316.5 366.665039062 297.5 385.998046875 c 0
 278.5 405.331054688 254.666992188 414.998046875 226 414.998046875 c 0
 197.333007812 414.998046875 173.5 405.331054688 154.5 385.998046875 c 0
 135.5 366.665039062 126 342.998046875 126 314.998046875 c 0
 126 286.998046875 135.5 263.331054688 154.5 243.998046875 c 0
 173.5 224.665039062 197.333007812 214.998046875 226 214.998046875 c 0
 254.666992188 214.998046875 278.5 224.665039062 297.5 243.998046875 c 0
370.5 -7.501953125 m 0
 364.833007812 1.498046875 353.66796875 8.166015625 337.000976562 12.4990234375 c 0
 320.333984375 16.83203125 295.333984375 18.9990234375 262.000976562 18.9990234375 c 0
 214.000976562 18.9990234375 175.66796875 23.33203125 147.000976562 31.9990234375 c 1
 131.000976562 21.33203125 119.833984375 10.33203125 113.500976562 -1.0009765625 c 0
 107.16796875 -12.333984375 104.000976562 -27.333984375 104.000976562 -46.0009765625 c 0
 104.000976562 -68.66796875 116.66796875 -86.3349609375 142.000976562 -99.001953125 c 0
 167.333984375 -111.668945312 202.666992188 -118.001953125 248 -118.001953125 c 0
 292 -118.001953125 324.833007812 -111.501953125 346.5 -98.501953125 c 0
 368.166992188 -85.501953125 379 -67.6689453125 379 -45.001953125 c 0
 379 -29.001953125 376.166992188 -16.501953125 370.5 -7.501953125 c 0
EndSplineSet
Validated: 1
EndChar

StartChar: h
Encoding: 104 104 75
Width: 500
GlyphClass: 2
Flags: W
AnchorPoint: "Anchor-8" 0 0 basechar 0
AnchorPoint: "Anchor-7" 130 549 basechar 0
AnchorPoint: "Anchor-6" 118 665 basechar 0
AnchorPoint: "Anchor-5" 0 0 basechar 0
AnchorPoint: "Anchor-4" 250 0 basechar 0
LayerCount: 2
Fore
SplineSet
73 665 m 1
 152 665.000976562 l 1
 152 658.000976562 l 1
 148 654.000976562 145.5 649.66796875 144.5 645.000976562 c 0
 143.5 640.333984375 143 632.333984375 143 621.000976562 c 2
 143 376.000976562 l 1
 161 404.000976562 183.5 426.333984375 210.5 443.000976562 c 0
 237.5 459.66796875 265 468.000976562 293 468.000976562 c 0
 336.333007812 468.000976562 370.333007812 452.66796875 395 422.000976562 c 0
 419.666992188 391.333984375 432 343.000976562 432 277.000976562 c 2
 432 0.0009765625 l 1
 362 0.0009765625 l 1
 362 275.000976562 l 2
 362 320.333984375 354.333007812 353.333984375 339 374.000976562 c 0
 323.666992188 394.66796875 303.333984375 405.000976562 278.000976562 405.000976562 c 0
 256.66796875 405.000976562 235.66796875 399.16796875 215.000976562 387.500976562 c 0
 194.333984375 375.833984375 177.166992188 359.166992188 163.5 337.5 c 0
 149.833007812 315.833007812 143 291 143 263 c 2
 143 0 l 1
 73 0 l 1
 73 665 l 1
EndSplineSet
Validated: 1
EndChar

StartChar: i
Encoding: 105 105 76
Width: 500
GlyphClass: 2
Flags: W
AnchorPoint: "Anchor-8" 0 0 basechar 0
AnchorPoint: "Anchor-7" 0 0 basechar 0
AnchorPoint: "Anchor-6" 250 605 basechar 0
AnchorPoint: "Anchor-5" 346 0 basechar 0
AnchorPoint: "Anchor-4" 250 0 basechar 0
LayerCount: 2
Fore
SplineSet
100 58 m 1
 217 58 l 1
 217 399 l 1
 106 399 l 1
 106 457 l 1
 289 457 l 1
 289 58 l 1
 396 58 l 1
 396 0 l 1
 100 0 l 1
 100 58 l 1
213 568 m 0
 203 578 197.999023438 590 197.999023438 604 c 0
 197.999023438 618.666992188 202.83203125 631 212.499023438 641 c 0
 222.166015625 651 234.333007812 656 249 656 c 0
 263 656 275.166992188 650.833007812 285.5 640.5 c 0
 295.833007812 630.166992188 301 618 301 604 c 0
 301 590 295.833007812 578 285.5 568 c 0
 275.166992188 558 263 553 249 553 c 0
 235 553 223 558 213 568 c 0
EndSplineSet
Validated: 1
Substitution2: "Single Substitution lookup 28 subtable" dotlessi
Substitution2: "'locl' Localized Forms in Latin lookup 12 subtable" i.loclTRK
Substitution2: "'locl' Localized Forms in Latin lookup 11 subtable" i.loclTRK
Substitution2: "'locl' Localized Forms in Latin lookup 10 subtable" i.loclTRK
Substitution2: "'locl' Localized Forms in Latin lookup 9 subtable" i.loclTRK
Substitution2: "'locl' Localized Forms in Latin lookup 8 subtable" i.loclTRK
AlternateSubs2: "'aalt' Access All Alternates in Latin lookup 1 subtable" i.loclTRK dotlessi
EndChar

StartChar: j
Encoding: 106 106 77
Width: 500
GlyphClass: 2
Flags: W
AnchorPoint: "Anchor-8" 0 0 basechar 0
AnchorPoint: "Anchor-7" 0 0 basechar 0
AnchorPoint: "Anchor-6" 328 605 basechar 0
AnchorPoint: "Anchor-5" 0 0 basechar 0
AnchorPoint: "Anchor-4" 250 -190 basechar 0
LayerCount: 2
Fore
SplineSet
112 -158 m 0
 86.6669921875 -147.333007812 65.33203125 -131.333984375 47.9990234375 -110.000976562 c 1
 87.9990234375 -56.0009765625 l 1
 93.9990234375 -48.0009765625 l 1
 99.9990234375 -52.0009765625 l 2
 99.9990234375 -53.333984375 100.499023438 -56.1669921875 101.499023438 -60.5 c 0
 102.499023438 -64.8330078125 104.33203125 -69.3330078125 106.999023438 -74 c 0
 109.666015625 -78.6669921875 113.666015625 -83 118.999023438 -87 c 0
 140.33203125 -103.666992188 164.999023438 -112 192.999023438 -112 c 0
 224.33203125 -112 249.33203125 -101.333007812 267.999023438 -80 c 0
 286.666015625 -58.6669921875 295.999023438 -26 295.999023438 18 c 2
 295.999023438 398 l 1
 125.999023438 398 l 1
 125.999023438 457 l 1
 368.999023438 457 l 1
 368.999023438 22 l 2
 368.999023438 -44 352.666015625 -93.1669921875 319.999023438 -125.5 c 0
 287.33203125 -157.833007812 245.33203125 -174 193.999023438 -174 c 0
 164.666015625 -174 137.333007812 -168.666992188 112 -158 c 0
290.998046875 567.999023438 m 0
 280.998046875 577.999023438 275.997070312 589.999023438 275.997070312 603.999023438 c 0
 275.997070312 618.666015625 280.830078125 630.999023438 290.497070312 640.999023438 c 0
 300.1640625 650.999023438 312.331054688 655.999023438 326.998046875 655.999023438 c 0
 340.998046875 655.999023438 353.165039062 650.83203125 363.498046875 640.499023438 c 0
 373.831054688 630.166015625 378.998046875 617.999023438 378.998046875 603.999023438 c 0
 378.998046875 589.999023438 373.831054688 577.999023438 363.498046875 567.999023438 c 0
 353.165039062 557.999023438 340.998046875 552.999023438 326.998046875 552.999023438 c 0
 312.998046875 552.999023438 300.998046875 557.999023438 290.998046875 567.999023438 c 0
EndSplineSet
Validated: 1
Substitution2: "Single Substitution lookup 28 subtable" uni0237
Substitution2: "'aalt' Access All Alternates in Latin lookup 0 subtable" uni0237
EndChar

StartChar: k
Encoding: 107 107 78
Width: 500
GlyphClass: 2
Flags: W
AnchorPoint: "Anchor-8" 0 0 basechar 0
AnchorPoint: "Anchor-7" 0 0 basechar 0
AnchorPoint: "Anchor-6" 104 665 basechar 0
AnchorPoint: "Anchor-5" 0 0 basechar 0
AnchorPoint: "Anchor-4" 250 0 basechar 0
LayerCount: 2
Fore
SplineSet
199 229 m 1
 138.999023438 173 l 1
 138.999023438 0 l 1
 65.9990234375 0 l 1
 65.9990234375 665 l 1
 147.999023438 665 l 1
 147.999023438 658 l 1
 143.999023438 654 141.499023438 649.666992188 140.499023438 645 c 0
 139.499023438 640.333007812 138.999023438 632.333007812 138.999023438 621 c 2
 138.999023438 247 l 1
 367.999023438 459 l 1
 384.666015625 455.666992188 402.333007812 454 421 454 c 2
 447 454 l 1
 255 273 l 1
 479 0 l 1
 386 -4 l 1
 199 229 l 1
EndSplineSet
Validated: 1
EndChar

StartChar: l
Encoding: 108 108 79
Width: 500
GlyphClass: 2
Flags: W
AnchorPoint: "Anchor-8" 480 457 basechar 0
AnchorPoint: "Anchor-7" 250 229 basechar 0
AnchorPoint: "Anchor-6" 250 665 basechar 0
AnchorPoint: "Anchor-5" 0 0 basechar 0
AnchorPoint: "Anchor-4" 250 0 basechar 0
LayerCount: 2
Fore
SplineSet
79 58 m 1
 214 58 l 1
 214 607 l 1
 85 607 l 1
 85 665 l 1
 287 665 l 1
 287 58 l 1
 421 58 l 1
 421 0 l 1
 79 0 l 1
 79 58 l 1
EndSplineSet
Validated: 1
EndChar

StartChar: m
Encoding: 109 109 80
Width: 500
GlyphClass: 2
Flags: W
AnchorPoint: "Anchor-8" 0 0 basechar 0
AnchorPoint: "Anchor-7" 0 0 basechar 0
AnchorPoint: "Anchor-6" 250 457 basechar 0
AnchorPoint: "Anchor-5" 0 0 basechar 0
AnchorPoint: "Anchor-4" 250 0 basechar 0
LayerCount: 2
Fore
SplineSet
38 457 m 1
 103.997070312 457 l 1
 103.997070312 412 l 1
 114.6640625 428.666992188 128.331054688 442.166992188 144.998046875 452.5 c 0
 161.665039062 462.833007812 178.998046875 468 196.998046875 468 c 0
 216.998046875 468 234.498046875 461.666992188 249.498046875 449 c 0
 264.498046875 436.333007812 273.998046875 420.333007812 277.998046875 401 c 1
 286.665039062 421 300.33203125 437.166992188 318.999023438 449.5 c 0
 337.666015625 461.833007812 358.333007812 468 381 468 c 0
 411 468 433.5 457.166992188 448.5 435.5 c 0
 463.5 413.833007812 470.333007812 385.666015625 469 350.999023438 c 2
 469 -0.0009765625 l 1
 403 -0.0009765625 l 1
 403 323.999023438 l 2
 403 361.999023438 399.333007812 386.666015625 392 397.999023438 c 0
 384.666992188 409.33203125 374 414.999023438 360 414.999023438 c 0
 348 414.999023438 336.333007812 409.33203125 325 397.999023438 c 0
 313.666992188 386.666015625 304.5 372.166015625 297.5 354.499023438 c 0
 290.5 336.83203125 287 319.33203125 287 301.999023438 c 2
 287 -0.0009765625 l 1
 220 -0.0009765625 l 1
 220 317.999023438 l 2
 220 355.33203125 216.5 380.499023438 209.5 393.499023438 c 0
 202.5 406.499023438 189.333007812 412.999023438 170 412.999023438 c 0
 160 412.999023438 149.833007812 408.499023438 139.5 399.499023438 c 0
 129.166992188 390.499023438 120.666992188 377.83203125 114 361.499023438 c 0
 107.333007812 345.166015625 104 326.333007812 104 305 c 2
 104 0 l 1
 38 0 l 1
 38 457 l 1
EndSplineSet
Validated: 33
EndChar

StartChar: n
Encoding: 110 110 81
Width: 500
GlyphClass: 2
Flags: W
AnchorPoint: "Anchor-8" 0 0 basechar 0
AnchorPoint: "Anchor-7" 0 0 basechar 0
AnchorPoint: "Anchor-6" 265 457 basechar 0
AnchorPoint: "Anchor-5" 0 0 basechar 0
AnchorPoint: "Anchor-4" 260 0 basechar 0
LayerCount: 2
Fore
SplineSet
72 457 m 1
 141.999023438 457 l 1
 141.999023438 376 l 1
 159.999023438 404 182.666015625 426.333007812 209.999023438 443 c 0
 237.33203125 459.666992188 266.33203125 468 296.999023438 468 c 0
 337.666015625 468 370.166015625 452.5 394.499023438 421.5 c 0
 418.83203125 390.5 430.999023438 342.333007812 430.999023438 277 c 2
 430.999023438 0 l 1
 360.999023438 0 l 1
 360.999023438 275 l 2
 360.999023438 320.333007812 353.33203125 353.333007812 337.999023438 374 c 0
 322.666015625 394.666992188 302.333007812 405 277 405 c 0
 256.333007812 405 235.5 399 214.5 387 c 0
 193.5 375 176.166992188 358.166992188 162.5 336.5 c 0
 148.833007812 314.833007812 142 290.333007812 142 263 c 2
 142 0 l 1
 72 0 l 1
 72 457 l 1
EndSplineSet
Validated: 1
EndChar

StartChar: o
Encoding: 111 111 82
Width: 500
GlyphClass: 2
Flags: W
AnchorPoint: "Anchor-8" 359 436 basechar 0
AnchorPoint: "Anchor-7" 250 229 basechar 0
AnchorPoint: "Anchor-6" 250 457 basechar 0
AnchorPoint: "Anchor-5" 286 10 basechar 0
AnchorPoint: "Anchor-4" 250 0 basechar 0
LayerCount: 2
Fore
SplineSet
141 22 m 0
 109 42 84 70 66 106 c 0
 48 142 39 183 39 229 c 0
 39 275 48 316 66 352 c 0
 84 388 109 416.166992188 141 436.5 c 0
 173 456.833007812 209.333007812 467 250 467 c 0
 290.666992188 467 327 456.833007812 359 436.5 c 0
 391 416.166992188 416 388 434 352 c 0
 452 316 461 275 461 229 c 0
 461 183 452 142 434 106 c 0
 416 70 391 42 359 22 c 0
 327 2 290.666992188 -8 250 -8 c 0
 209.333007812 -8 173 2 141 22 c 0
319.5 75 m 0
 339.833007812 90.3330078125 355.831054688 111.5 367.498046875 138.5 c 0
 379.165039062 165.5 384.998046875 196 384.998046875 230 c 0
 384.998046875 282 372.331054688 324.5 346.998046875 357.5 c 0
 321.665039062 390.5 289.33203125 407 249.999023438 407 c 0
 210.666015625 407 178.333007812 390.5 153 357.5 c 0
 127.666992188 324.5 115 282 115 230 c 0
 115 196 120.833007812 165.5 132.5 138.5 c 0
 144.166992188 111.5 160.166992188 90.3330078125 180.5 75 c 0
 200.833007812 59.6669921875 224 52 250 52 c 0
 276 52 299.166992188 59.6669921875 319.5 75 c 0
EndSplineSet
Validated: 1
Substitution2: "Single Substitution lookup 28 subtable" ordmasculine
Substitution2: "'aalt' Access All Alternates in Latin lookup 0 subtable" ordmasculine
EndChar

StartChar: p
Encoding: 112 112 83
Width: 500
GlyphClass: 2
Flags: W
AnchorPoint: "Anchor-8" 0 0 basechar 0
AnchorPoint: "Anchor-7" 0 0 basechar 0
AnchorPoint: "Anchor-6" 270 457 basechar 0
AnchorPoint: "Anchor-5" 0 0 basechar 0
AnchorPoint: "Anchor-4" 270 0 basechar 0
LayerCount: 2
Fore
SplineSet
60 457 m 1
 133 456.999023438 l 1
 133 366.999023438 l 1
 143 400.33203125 160.333007812 425.33203125 185 441.999023438 c 0
 209.666992188 458.666015625 238.666992188 466.999023438 272 466.999023438 c 0
 306.666992188 466.999023438 338.5 458.166015625 367.5 440.499023438 c 0
 396.5 422.83203125 419.666992188 396.33203125 437 360.999023438 c 0
 454.333007812 325.666015625 463 282.666015625 463 231.999023438 c 0
 463 180.666015625 454 136.499023438 436 99.4990234375 c 0
 418 62.4990234375 394.166992188 34.666015625 364.5 15.9990234375 c 0
 334.833007812 -2.66796875 303.333007812 -12.0009765625 270 -12.0009765625 c 0
 242.666992188 -12.0009765625 217 -5.66796875 193 6.9990234375 c 0
 169 19.666015625 149.333007812 37.3330078125 134 60 c 1
 134 -167 l 1
 60 -167 l 1
 60 457 l 1
350.5 93.4990234375 m 0
 375.5 121.166015625 388 166.333007812 388 229 c 0
 388 285.666992188 377 329.166992188 355 359.5 c 0
 333 389.833007812 301.666992188 405 261 405 c 0
 223 405 192.166992188 389.166992188 168.5 357.5 c 0
 144.833007812 325.833007812 133 277.666015625 133 212.999023438 c 0
 134.333007812 160.33203125 146 120.33203125 168 92.9990234375 c 0
 190 65.666015625 220 51.9990234375 258 51.9990234375 c 0
 294.666992188 51.9990234375 325.5 65.83203125 350.5 93.4990234375 c 0
EndSplineSet
Validated: 1
EndChar

StartChar: q
Encoding: 113 113 84
Width: 500
GlyphClass: 2
Flags: W
LayerCount: 2
Fore
SplineSet
370 73 m 1
 356 47 336.66796875 26.66796875 312.000976562 12.0009765625 c 0
 287.333984375 -2.666015625 260.000976562 -9.9990234375 230.000976562 -9.9990234375 c 0
 195.333984375 -9.9990234375 163.666992188 0.16796875 135 20.5009765625 c 0
 106.333007812 40.833984375 83.666015625 69.1669921875 66.9990234375 105.5 c 0
 50.33203125 141.833007812 41.9990234375 183.333007812 41.9990234375 230 c 0
 41.9990234375 278.666992188 50.9990234375 321.166992188 68.9990234375 357.5 c 0
 86.9990234375 393.833007812 111.33203125 421.5 141.999023438 440.5 c 0
 172.666015625 459.5 206.333007812 469 243 469 c 0
 274.333007812 469 301 462.166992188 323 448.5 c 0
 345 434.833007812 362 415.333007812 374 390 c 1
 374 457 l 1
 442 457 l 1
 442 -167 l 1
 370 -167 l 1
 370 73 l 1
333.500976562 99.5009765625 m 0
 356.500976562 130.500976562 368.000976562 177.666992188 368.000976562 241 c 0
 368.000976562 353.666992188 329.000976562 410 251.000976562 410 c 0
 211.000976562 410 178.333984375 395 153.000976562 365 c 0
 127.66796875 335 115.000976562 291 115.000976562 233 c 0
 115.000976562 177.666992188 126.500976562 133.833984375 149.500976562 101.500976562 c 0
 172.500976562 69.16796875 203.66796875 53.0009765625 243.000976562 53.0009765625 c 0
 280.333984375 53.0009765625 310.500976562 68.5009765625 333.500976562 99.5009765625 c 0
EndSplineSet
Validated: 1
EndChar

StartChar: r
Encoding: 114 114 85
Width: 500
GlyphClass: 2
Flags: W
AnchorPoint: "Anchor-8" 0 0 basechar 0
AnchorPoint: "Anchor-7" 0 0 basechar 0
AnchorPoint: "Anchor-6" 250 457 basechar 0
AnchorPoint: "Anchor-5" 0 0 basechar 0
AnchorPoint: "Anchor-4" 270 0 basechar 0
LayerCount: 2
Fore
SplineSet
458 418 m 1
 426.000976562 362.001953125 l 1
 422.000976562 353.001953125 l 1
 415.000976562 357.001953125 l 1
 413.000976562 364.334960938 410.66796875 370.16796875 408.000976562 374.500976562 c 0
 405.333984375 378.833984375 399.666992188 383.666992188 391 389 c 0
 373.666992188 400.333007812 354 406 332 406 c 0
 308 406 285.333007812 400 264 388 c 0
 242.666992188 376 225.333984375 357.833007812 212.000976562 333.5 c 0
 198.66796875 309.166992188 192.000976562 278.666992188 192.000976562 242 c 2
 192.000976562 -1 l 1
 119.000976562 -1 l 1
 119.000976562 457 l 1
 194.000976562 457 l 1
 192.000976562 373 l 1
 204.66796875 403 224.16796875 426.333007812 250.500976562 443 c 0
 276.833984375 459.666992188 305.666992188 468 337 468 c 0
 385.666992188 468 426 451.333007812 458 418 c 1
EndSplineSet
Validated: 1
EndChar

StartChar: s
Encoding: 115 115 86
Width: 500
GlyphClass: 2
Flags: W
LayerCount: 2
Fore
SplineSet
57 62 m 1
 96.998046875 130.000976562 l 1
 102.998046875 139.000976562 l 1
 108.998046875 135.000976562 l 2
 108.998046875 133.66796875 109.498046875 130.66796875 110.498046875 126.000976562 c 0
 111.498046875 121.333984375 113.331054688 116.666992188 115.998046875 112 c 0
 118.665039062 107.333007812 122.33203125 102.666015625 126.999023438 97.9990234375 c 0
 142.33203125 82.666015625 159.83203125 70.8330078125 179.499023438 62.5 c 0
 199.166015625 54.1669921875 223.666015625 50 252.999023438 50 c 0
 288.999023438 50 317.33203125 56.5 337.999023438 69.5 c 0
 358.666015625 82.5 368.999023438 100.333007812 368.999023438 123 c 0
 368.999023438 142.333007812 360.666015625 158.333007812 343.999023438 171 c 0
 327.33203125 183.666992188 297.33203125 197 253.999023438 211 c 0
 139.33203125 243.666992188 81.9990234375 291 81.9990234375 353 c 0
 81.9990234375 388.333007812 96.4990234375 416.333007812 125.499023438 437 c 0
 154.499023438 457.666992188 195.999023438 468 249.999023438 468 c 0
 291.33203125 468 326.165039062 462.166992188 354.498046875 450.5 c 0
 382.831054688 438.833007812 408.6640625 420.666015625 431.997070312 395.999023438 c 1
 390.997070312 345.999023438 l 1
 383.997070312 337.999023438 l 1
 378.997070312 342.999023438 l 1
 378.330078125 350.33203125 376.830078125 356.33203125 374.497070312 360.999023438 c 0
 372.1640625 365.666015625 367.331054688 370.999023438 359.998046875 376.999023438 c 0
 344.665039062 388.999023438 327.498046875 398.166015625 308.498046875 404.499023438 c 0
 289.498046875 410.83203125 270.665039062 413.999023438 251.998046875 413.999023438 c 0
 223.331054688 413.999023438 199.831054688 408.999023438 181.498046875 398.999023438 c 0
 163.165039062 388.999023438 153.998046875 374.999023438 153.998046875 356.999023438 c 0
 153.998046875 340.33203125 163.331054688 324.999023438 181.998046875 310.999023438 c 0
 200.665039062 296.999023438 234.33203125 282.999023438 282.999023438 268.999023438 c 0
 340.33203125 251.666015625 380.83203125 232.833007812 404.499023438 212.5 c 0
 428.166015625 192.166992188 439.999023438 165.666992188 439.999023438 133 c 0
 439.999023438 91.6669921875 423.83203125 57.5 391.499023438 30.5 c 0
 359.166015625 3.5 312.333007812 -10 251 -10 c 0
 173.666992188 -10 109 14 57 62 c 1
EndSplineSet
Validated: 1
EndChar

StartChar: t
Encoding: 116 116 87
Width: 500
GlyphClass: 2
Flags: W
AnchorPoint: "Anchor-8" 310 457 basechar 0
AnchorPoint: "Anchor-7" 213 312 basechar 0
AnchorPoint: "Anchor-6" 241 587 basechar 0
AnchorPoint: "Anchor-5" 0 0 basechar 0
AnchorPoint: "Anchor-4" 250 0 basechar 0
LayerCount: 2
Fore
SplineSet
444 42 m 1
 400 9.3330078125 351.66796875 -6.998046875 299.000976562 -6.998046875 c 0
 248.333984375 -6.998046875 212.500976562 8.3349609375 191.500976562 39.001953125 c 0
 170.500976562 69.6689453125 160.000976562 119.668945312 160.000976562 189.001953125 c 0
 160.000976562 200.334960938 160.66796875 220.001953125 162.000976562 248.001953125 c 2
 171.000976562 398.001953125 l 1
 70.0009765625 398.001953125 l 1
 70.0009765625 457.001953125 l 1
 175.000976562 457.001953125 l 1
 182.000976562 579.001953125 l 1
 262.000976562 592.001953125 l 1
 272.000976562 593.001953125 l 1
 273.000976562 587.001953125 l 1
 268.333984375 580.334960938 264.833984375 574.66796875 262.500976562 570.000976562 c 0
 260.16796875 565.333984375 258.66796875 558.000976562 258.000976562 548.000976562 c 2
 247.000976562 457.000976562 l 1
 399.000976562 457.000976562 l 1
 399.000976562 398.000976562 l 1
 243.000976562 398.000976562 l 1
 234.000976562 243.000976562 l 2
 232.66796875 216.333984375 232.000976562 198.666992188 232.000976562 190 c 0
 232.000976562 136.666992188 238.16796875 100.5 250.500976562 81.5 c 0
 262.833984375 62.5 282.666992188 53 310 53 c 0
 330 53 348.333007812 56.6669921875 365 64 c 0
 381.666992188 71.3330078125 400.666992188 83 422 99 c 1
 444 42 l 1
EndSplineSet
Validated: 1
EndChar

StartChar: u
Encoding: 117 117 88
Width: 500
GlyphClass: 2
Flags: W
AnchorPoint: "Anchor-8" 432 457 basechar 0
AnchorPoint: "Anchor-7" 0 0 basechar 0
AnchorPoint: "Anchor-6" 250 457 basechar 0
AnchorPoint: "Anchor-5" 392 0 basechar 0
AnchorPoint: "Anchor-4" 231 0 basechar 0
LayerCount: 2
Fore
SplineSet
106 42.5 m 0
 77.3330078125 78.1669921875 63.33203125 131.33203125 63.9990234375 201.999023438 c 2
 64.9990234375 456.999023438 l 1
 134.999023438 456.999023438 l 1
 134.999023438 201.999023438 l 2
 134.999023438 147.33203125 144.499023438 107.83203125 163.499023438 83.4990234375 c 0
 182.499023438 59.166015625 207.666015625 46.9990234375 238.999023438 46.9990234375 c 0
 273.666015625 46.9990234375 302.833007812 60.4990234375 326.5 87.4990234375 c 0
 350.166992188 114.499023438 362 153.666015625 362 204.999023438 c 2
 362 456.999023438 l 1
 432 456.999023438 l 1
 432 70.9990234375 l 2
 432 54.9990234375 432.5 41.83203125 433.5 31.4990234375 c 0
 434.5 21.166015625 437.333007812 10.666015625 442 -0.0009765625 c 1
 373 -0.0009765625 l 1
 368.333007812 9.9990234375 365.5 20.33203125 364.5 30.9990234375 c 0
 363.5 41.666015625 363 54.666015625 363 69.9990234375 c 1
 348.333007812 44.666015625 328.5 24.8330078125 303.5 10.5 c 0
 278.5 -3.8330078125 251 -11 221 -11 c 0
 173 -11 134.666992188 6.8330078125 106 42.5 c 0
EndSplineSet
Validated: 33
EndChar

StartChar: v
Encoding: 118 118 89
Width: 500
GlyphClass: 2
Flags: W
HStem: 0 21G<213.079 285.638> 437 20G<40 119.877 382.333 455>
VStem: 387 68<376.067 457>
AnchorPoint: "Anchor-8" 0 0 basechar 0
AnchorPoint: "Anchor-7" 0 0 basechar 0
AnchorPoint: "Anchor-6" 250 457 basechar 0
AnchorPoint: "Anchor-5" 0 0 basechar 0
AnchorPoint: "Anchor-4" 250 0 basechar 0
LayerCount: 2
Fore
SplineSet
455 457 m 1
 444.333007812 403 422 336.333007812 388 257 c 2
 277 0 l 1
 221 0 l 1
 191.691466083 74 l 0
 191.295404814 75 l 0
 40 457 l 1
 112 457 l 1
 221.097765363 180 l 0
 253 99 l 1
 327 268 l 2
 357.666992188 337.333007812 377.666992188 400.333007812 387 457 c 1
 455 457 l 1
EndSplineSet
EndChar

StartChar: w
Encoding: 119 119 90
Width: 500
GlyphClass: 2
Flags: W
AnchorPoint: "Anchor-8" 0 0 basechar 0
AnchorPoint: "Anchor-7" 0 0 basechar 0
AnchorPoint: "Anchor-6" 250 457 basechar 0
AnchorPoint: "Anchor-5" 0 0 basechar 0
AnchorPoint: "Anchor-4" 250 0 basechar 0
LayerCount: 2
Fore
SplineSet
16 457 m 1
 78.9990234375 457.000976562 l 1
 152.999023438 90.0009765625 l 1
 230.999023438 414.000976562 l 1
 274.999023438 414.000976562 l 1
 371.999023438 91.0009765625 l 1
 390.666015625 215.66796875 402.333007812 297.500976562 407 336.500976562 c 0
 411.666992188 375.500976562 414 410.66796875 414 442.000976562 c 2
 414 457.000976562 l 1
 481 457.000976562 l 1
 461 302.333984375 435.666992188 149.666992188 405 -1 c 1
 337 -1 l 1
 253 295 l 1
 173 -1 l 1
 108 -1 l 1
 16 457 l 1
EndSplineSet
Validated: 1
EndChar

StartChar: x
Encoding: 120 120 91
Width: 500
GlyphClass: 2
Flags: W
AnchorPoint: "Anchor-8" 0 0 basechar 0
AnchorPoint: "Anchor-7" 0 0 basechar 0
AnchorPoint: "Anchor-6" 250 457 basechar 0
AnchorPoint: "Anchor-5" 0 0 basechar 0
AnchorPoint: "Anchor-4" 250 0 basechar 0
LayerCount: 2
Fore
SplineSet
208 232 m 1
 50 457 l 1
 129 457 l 1
 248 288 l 1
 362 457 l 1
 436 457 l 1
 288 235 l 1
 456 0 l 1
 374 0 l 1
 248 178 l 1
 129 0 l 1
 47 0 l 1
 208 232 l 1
EndSplineSet
Validated: 1
EndChar

StartChar: y
Encoding: 121 121 92
Width: 500
GlyphClass: 2
Flags: W
AnchorPoint: "Anchor-8" 0 0 basechar 0
AnchorPoint: "Anchor-7" 0 0 basechar 0
AnchorPoint: "Anchor-6" 253 457 basechar 0
AnchorPoint: "Anchor-5" 0 0 basechar 0
AnchorPoint: "Anchor-4" 370 0 basechar 0
LayerCount: 2
Fore
SplineSet
443 457 m 1
 439 429.666992188 432.833007812 402.666015625 424.5 375.999023438 c 0
 416.166992188 349.33203125 404.333984375 313.999023438 389.000976562 269.999023438 c 2
 275.000976562 -52.0009765625 l 2
 259.66796875 -94.66796875 239.66796875 -125.66796875 215.000976562 -145.000976562 c 0
 190.333984375 -164.333984375 161.000976562 -174.000976562 127.000976562 -174.000976562 c 0
 84.333984375 -174.000976562 49.333984375 -161.000976562 22.0009765625 -135.000976562 c 1
 53.0009765625 -86.0009765625 l 1
 59.0009765625 -77.0009765625 l 1
 65.0009765625 -81.0009765625 l 1
 66.333984375 -87.66796875 68.6669921875 -93.16796875 72 -97.5009765625 c 0
 75.3330078125 -101.833984375 81.666015625 -105.666992188 90.9990234375 -109 c 0
 102.999023438 -113 116.33203125 -115 130.999023438 -115 c 0
 155.666015625 -115 175.333007812 -106.333007812 190 -89 c 0
 204.666992188 -71.6669921875 219 -43 233 -3 c 1
 46 457 l 1
 121 457 l 1
 263 91 l 1
 323 275 l 2
 337.666992188 321 348.5 356.166992188 355.5 380.5 c 0
 362.5 404.833007812 367.666992188 430.333007812 371 457 c 1
 443 457 l 1
EndSplineSet
Validated: 1
EndChar

StartChar: z
Encoding: 122 122 93
Width: 500
GlyphClass: 2
Flags: W
AnchorPoint: "Anchor-8" 0 0 basechar 0
AnchorPoint: "Anchor-7" 0 0 basechar 0
AnchorPoint: "Anchor-6" 250 457 basechar 0
AnchorPoint: "Anchor-5" 0 0 basechar 0
AnchorPoint: "Anchor-4" 250 0 basechar 0
LayerCount: 2
Fore
SplineSet
50 49 m 1
 333 394 l 1
 71 394 l 1
 71 457 l 1
 426 457 l 1
 426 408 l 1
 148 62 l 1
 406 62 l 2
 416.666992188 62 424.5 62.6669921875 429.5 64 c 0
 434.5 65.3330078125 439 68 443 72 c 1
 450 72 l 1
 450 0 l 1
 50 0 l 1
 50 49 l 1
EndSplineSet
Validated: 1
EndChar

StartChar: braceleft
Encoding: 123 123 94
Width: 500
GlyphClass: 2
Flags: W
LayerCount: 2
Fore
SplineSet
248 -144 m 0
 216.666992188 -134 193.502929688 -116.33203125 178.502929688 -90.9990234375 c 0
 163.502929688 -65.666015625 157.002929688 -29.9990234375 159.002929688 16.0009765625 c 2
 163.002929688 116.000976562 l 2
 163.002929688 158.000976562 155.669921875 187.16796875 141.002929688 203.500976562 c 0
 126.3359375 219.833984375 103.668945312 228.000976562 73.001953125 228.000976562 c 2
 53.001953125 228.000976562 l 1
 53.001953125 284.000976562 l 1
 72.001953125 284.000976562 l 2
 103.334960938 284.000976562 126.66796875 292.500976562 142.000976562 309.500976562 c 0
 157.333984375 326.500976562 165.000976562 353.66796875 165.000976562 391.000976562 c 2
 163.000976562 463.000976562 l 2
 163.000976562 579.000976562 223.66796875 637.000976562 345.000976562 637.000976562 c 2
 408.000976562 637.000976562 l 1
 408.000976562 580.000976562 l 1
 326.000976562 580.000976562 l 2
 264.000976562 580.000976562 233.000976562 544.66796875 233.000976562 474.000976562 c 2
 235.000976562 404.000976562 l 2
 235.000976562 330.66796875 206.000976562 281.334960938 148.000976562 256.001953125 c 1
 204.66796875 237.334960938 233.000976562 185.66796875 233.000976562 101.000976562 c 2
 230.000976562 17.0009765625 l 2
 230.000976562 -27.666015625 239.66796875 -58.8330078125 259.000976562 -76.5 c 0
 278.333984375 -94.1669921875 310.666992188 -103 356 -103 c 2
 407 -103 l 1
 407 -159 l 1
 371 -159 l 2
 320.333007812 -159 279.333007812 -154 248 -144 c 0
EndSplineSet
Validated: 33
EndChar

StartChar: bar
Encoding: 124 124 95
Width: 500
GlyphClass: 2
Flags: W
LayerCount: 2
Fore
SplineSet
217 652 m 1
 284 652 l 1
 284 -151 l 1
 217 -151 l 1
 217 652 l 1
EndSplineSet
Validated: 1
EndChar

StartChar: braceright
Encoding: 125 125 96
Width: 500
GlyphClass: 2
Flags: W
LayerCount: 2
Fore
SplineSet
55 -159 m 1
 55.0029296875 -103.000976562 l 1
 106.002929688 -103.000976562 l 2
 151.3359375 -103.000976562 183.668945312 -94.16796875 203.001953125 -76.5009765625 c 0
 222.334960938 -58.833984375 232.001953125 -27.6669921875 232.001953125 17 c 2
 229.001953125 101 l 2
 229.001953125 185.666992188 257.334960938 237.333984375 314.001953125 256.000976562 c 1
 256.001953125 281.333984375 227.001953125 330.666992188 227.001953125 404 c 2
 229.001953125 474 l 2
 229.001953125 544.666992188 198.001953125 580 136.001953125 580 c 2
 54.001953125 580 l 1
 54.001953125 637 l 1
 117.001953125 637 l 2
 238.334960938 637 299.001953125 579 299.001953125 463 c 2
 297.001953125 391 l 2
 297.001953125 353.666992188 304.668945312 326.5 320.001953125 309.5 c 0
 335.334960938 292.5 358.66796875 284 390.000976562 284 c 2
 409.000976562 284 l 1
 409.000976562 228 l 1
 389.000976562 228 l 2
 358.333984375 228 335.666992188 219.833007812 321 203.5 c 0
 306.333007812 187.166992188 299 158 299 116 c 2
 303 16 l 2
 305 -30 298.5 -65.6669921875 283.5 -91 c 0
 268.5 -116.333007812 245.333007812 -134 214 -144 c 0
 182.666992188 -154 141.666992188 -159 91 -159 c 2
 55 -159 l 1
EndSplineSet
Validated: 33
EndChar

StartChar: asciitilde
Encoding: 126 126 97
Width: 500
GlyphClass: 2
Flags: W
LayerCount: 2
Fore
SplineSet
303.5 274 m 0
 290.5 279.333007812 276.333007812 286.666015625 261 295.999023438 c 0
 246.333007812 303.999023438 234.5 309.999023438 225.5 313.999023438 c 0
 216.5 317.999023438 206.666992188 319.999023438 196 319.999023438 c 0
 180 319.999023438 166 316.499023438 154 309.499023438 c 0
 142 302.499023438 130.666992188 290.33203125 120 272.999023438 c 1
 71 294.999023438 l 1
 82.3330078125 318.999023438 98.3330078125 338.33203125 119 352.999023438 c 0
 139.666992188 367.666015625 164.666992188 374.999023438 194 374.999023438 c 0
 210 374.999023438 223.833007812 372.499023438 235.5 367.499023438 c 0
 247.166992188 362.499023438 261 355.33203125 277 345.999023438 c 0
 290.333007812 337.33203125 302 330.999023438 312 326.999023438 c 0
 322 322.999023438 332.666992188 320.999023438 344 320.999023438 c 0
 358.666992188 320.999023438 370.833984375 324.33203125 380.500976562 330.999023438 c 0
 390.16796875 337.666015625 401.66796875 350.333007812 415.000976562 369 c 1
 461.000976562 341 l 1
 443.66796875 313 426.66796875 293.5 410.000976562 282.5 c 0
 393.333984375 271.5 372.666992188 266 348 266 c 0
 331.333007812 266 316.5 268.666992188 303.5 274 c 0
EndSplineSet
Validated: 1
Substitution2: "'ss01' Style Set 1 in Latin lookup 25 subtable" asciitilde.ss01
Substitution2: "'salt' Stylistic Alternatives in Latin lookup 24 subtable" asciitilde.ss01
Substitution2: "'aalt' Access All Alternates in Latin lookup 0 subtable" asciitilde.ss01
EndChar

StartChar: exclamdown
Encoding: 161 161 99
Width: 500
GlyphClass: 2
Flags: W
LayerCount: 2
Fore
SplineSet
281 580.5 m 0
 293 568.833007812 299 555.333007812 299 540 c 0
 299 524 293 510 281 498 c 0
 269 486 255 480 239 480 c 0
 223 480 209.166992188 486 197.5 498 c 0
 185.833007812 510 180 524 180 540 c 0
 180 556 185.833007812 569.666992188 197.5 581 c 0
 209.166992188 592.333007812 223 598 239 598 c 0
 255 598 269 592.166992188 281 580.5 c 0
265 393 m 1
 292 3 l 2
 292 -53 275 -81 241 -81 c 0
 225 -81 212.5 -74.5 203.5 -61.5 c 0
 194.5 -48.5 190 -30.3330078125 190 -7 c 2
 215 393 l 1
 265 393 l 1
EndSplineSet
Validated: 1
EndChar

StartChar: cent
Encoding: 162 162 100
Width: 500
GlyphClass: 2
Flags: W
AnchorPoint: "Anchor-3" 0 0 basechar 0
AnchorPoint: "Anchor-2" 0 0 basechar 0
AnchorPoint: "Anchor-1" 286 500 basechar 0
AnchorPoint: "Anchor-0" 286 43 basechar 0
LayerCount: 2
Fore
SplineSet
408 153 m 1
 449.999023438 104.000976562 l 1
 405.33203125 56.0009765625 350.33203125 32.0009765625 284.999023438 32.0009765625 c 0
 273.666015625 32.0009765625 265.333007812 32.333984375 260 33.0009765625 c 1
 246 -72.9990234375 l 1
 194 -72.9990234375 l 1
 210 44.0009765625 l 1
 163.333007812 59.333984375 126 87.333984375 98 128.000976562 c 0
 70 168.66796875 56 216.334960938 56 271.001953125 c 0
 56 315.001953125 65.3330078125 354.668945312 84 390.001953125 c 0
 102.666992188 425.334960938 128.5 453.66796875 161.5 475.000976562 c 0
 194.5 496.333984375 231.666992188 507.666992188 273 509 c 1
 289 623 l 1
 338 623 l 1
 323 506 l 1
 351 501.333007812 376.666992188 492 400 478 c 0
 423.333007812 464 442.333007812 446 457 424 c 1
 412 380 l 1
 405 373 l 1
 400 378 l 1
 400 384 398.833007812 389.5 396.5 394.5 c 0
 394.166992188 399.5 389 405.333007812 381 412 c 0
 362.333007812 429.333007812 340 440.333007812 314 445 c 1
 269 98 l 1
 273 97.3330078125 279.666992188 97 289 97 c 0
 335 97 374.666992188 115.666992188 408 153 c 1
153.999023438 177.000976562 m 0
 169.999023438 148.333984375 191.666015625 127.001953125 218.999023438 113.001953125 c 1
 264.999023438 448.001953125 l 1
 240.999023438 446.001953125 218.666015625 437.668945312 197.999023438 423.001953125 c 0
 177.33203125 408.334960938 160.83203125 388.16796875 148.499023438 362.500976562 c 0
 136.166015625 336.833984375 129.999023438 308.000976562 129.999023438 276.000976562 c 0
 129.999023438 238.66796875 137.999023438 205.66796875 153.999023438 177.000976562 c 0
EndSplineSet
Validated: 1
EndChar

StartChar: sterling
Encoding: 163 163 101
Width: 500
GlyphClass: 2
Flags: W
LayerCount: 2
Fore
SplineSet
39 49 m 1
 80.3330078125 69 108.831054688 91.1689453125 124.498046875 115.501953125 c 0
 140.165039062 139.834960938 147.998046875 175.334960938 147.998046875 222.001953125 c 0
 147.998046875 247.334960938 142.998046875 280.334960938 132.998046875 321.001953125 c 1
 66.998046875 321.001953125 l 1
 66.998046875 378.001953125 l 1
 118.998046875 378.001953125 l 1
 114.331054688 399.334960938 111.998046875 420.66796875 111.998046875 442.000976562 c 0
 111.998046875 477.333984375 119.831054688 508.833984375 135.498046875 536.500976562 c 0
 151.165039062 564.16796875 172.498046875 585.500976562 199.498046875 600.500976562 c 0
 226.498046875 615.500976562 255.998046875 623.000976562 287.998046875 623.000976562 c 0
 337.998046875 623.000976562 381.331054688 606.000976562 417.998046875 572.000976562 c 1
 373.998046875 517.000976562 l 1
 359.998046875 533.66796875 345.998046875 546.000976562 331.998046875 554.000976562 c 0
 317.998046875 562.000976562 297.331054688 566.000976562 269.998046875 566.000976562 c 0
 242.665039062 566.000976562 220.665039062 555.000976562 203.998046875 533.000976562 c 0
 187.331054688 511.000976562 178.998046875 481.000976562 178.998046875 443.000976562 c 0
 178.998046875 428.333984375 181.665039062 406.666992188 186.998046875 378 c 1
 316.998046875 378 l 1
 316.998046875 321 l 1
 200.998046875 321 l 1
 209.665039062 285.666992188 213.998046875 253.333984375 213.998046875 224.000976562 c 0
 213.998046875 174.000976562 201.998046875 129.333984375 177.998046875 90.0009765625 c 1
 181.998046875 90.66796875 187.665039062 91.0009765625 194.998046875 91.0009765625 c 0
 210.331054688 91.0009765625 225.498046875 89.16796875 240.498046875 85.5009765625 c 0
 255.498046875 81.833984375 272.998046875 76.333984375 292.998046875 69.0009765625 c 0
 312.998046875 62.333984375 328.498046875 57.6669921875 339.498046875 55 c 0
 350.498046875 52.3330078125 361.665039062 51 372.998046875 51 c 0
 397.665039062 51 421.33203125 60.3330078125 443.999023438 79 c 1
 469.999023438 27 l 1
 435.33203125 -1 400.665039062 -15 365.998046875 -15 c 0
 354.665039062 -15 329.33203125 -8.6669921875 289.999023438 4 c 0
 261.999023438 12.6669921875 239.999023438 19.1669921875 223.999023438 23.5 c 0
 207.999023438 27.8330078125 193.33203125 30 179.999023438 30 c 0
 150.666015625 30 112.333007812 17.3330078125 65 -8 c 1
 39 49 l 1
EndSplineSet
Validated: 1
EndChar

StartChar: currency
Encoding: 164 164 102
Width: 500
GlyphClass: 2
Flags: W
LayerCount: 2
Fore
SplineSet
68 199 m 1
 124.000976562 255.998046875 l 1
 105.333984375 282.665039062 96.0009765625 312.33203125 96.0009765625 344.999023438 c 0
 96.0009765625 378.999023438 105.66796875 408.999023438 125.000976562 434.999023438 c 1
 68.0009765625 491.999023438 l 1
 104.000976562 526.999023438 l 1
 160.000976562 470.999023438 l 1
 187.333984375 490.33203125 217.666992188 499.999023438 251 499.999023438 c 0
 283 499.999023438 312.666992188 490.666015625 340 471.999023438 c 1
 396 526.999023438 l 1
 432 491.999023438 l 1
 376 436.999023438 l 1
 396 408.999023438 406 378.33203125 406 344.999023438 c 0
 406 311.666015625 396.333007812 281.333007812 377 254 c 1
 432 199 l 1
 396 164 l 1
 341 219 l 1
 315 199.666992188 285 190 251 190 c 0
 217.666992188 190 187 200 159 220 c 1
 104 164 l 1
 68 199 l 1
324.000976562 273.998046875 m 0
 342.000976562 293.331054688 351.000976562 316.998046875 351.000976562 344.998046875 c 0
 351.000976562 373.665039062 342.000976562 397.665039062 324.000976562 416.998046875 c 0
 306.000976562 436.331054688 281.333984375 445.998046875 250.000976562 445.998046875 c 0
 219.333984375 445.998046875 195.000976562 436.331054688 177.000976562 416.998046875 c 0
 159.000976562 397.665039062 150.000976562 373.665039062 150.000976562 344.998046875 c 0
 150.000976562 316.998046875 159.000976562 293.331054688 177.000976562 273.998046875 c 0
 195.000976562 254.665039062 219.333984375 244.998046875 250.000976562 244.998046875 c 0
 281.333984375 244.998046875 306.000976562 254.665039062 324.000976562 273.998046875 c 0
EndSplineSet
Validated: 1
EndChar

StartChar: yen
Encoding: 165 165 103
Width: 500
GlyphClass: 2
Flags: W
LayerCount: 2
Fore
SplineSet
292 274 m 1
 426 274 l 1
 426 217 l 1
 292 217 l 1
 292 154 l 1
 426 154 l 1
 426 98 l 1
 292 98 l 1
 292 0 l 1
 224 0 l 1
 224 98 l 1
 84 98 l 1
 84 154 l 1
 224 154 l 1
 224 217 l 1
 84 217 l 1
 84 274 l 1
 224 274 l 1
 224 295 l 1
 36 624 l 1
 114 624 l 1
 259 363 l 1
 392 623 l 1
 466 623 l 1
 292 295 l 1
 292 274 l 1
EndSplineSet
Validated: 1
EndChar

StartChar: brokenbar
Encoding: 166 166 104
Width: 500
GlyphClass: 2
Flags: W
LayerCount: 2
Fore
SplineSet
217 652 m 1
 284 652 l 1
 284 295 l 1
 217 295 l 1
 217 652 l 1
217 196 m 1
 284 196 l 1
 284 -151 l 1
 217 -151 l 1
 217 196 l 1
EndSplineSet
Validated: 1
EndChar

StartChar: section
Encoding: 167 167 105
Width: 500
GlyphClass: 2
Flags: W
LayerCount: 2
Fore
SplineSet
140.5 -32 m 0
 110.166992188 -17.3330078125 84.9990234375 3.666015625 64.9990234375 30.9990234375 c 1
 116.999023438 91.9990234375 l 1
 121.666015625 90.666015625 124.499023438 87.4990234375 125.499023438 82.4990234375 c 0
 126.499023438 77.4990234375 128.666015625 71.9990234375 131.999023438 65.9990234375 c 0
 135.33203125 59.9990234375 142.665039062 51.666015625 153.998046875 40.9990234375 c 0
 175.331054688 21.666015625 201.998046875 11.9990234375 233.998046875 11.9990234375 c 0
 265.331054688 11.9990234375 290.331054688 19.4990234375 308.998046875 34.4990234375 c 0
 327.665039062 49.4990234375 336.998046875 68.33203125 336.998046875 90.9990234375 c 0
 336.998046875 114.33203125 328.831054688 132.999023438 312.498046875 146.999023438 c 0
 296.165039062 160.999023438 265.33203125 174.666015625 219.999023438 187.999023438 c 0
 168.666015625 204.666015625 132.333007812 222.666015625 111 241.999023438 c 0
 89.6669921875 261.33203125 79 285.999023438 79 315.999023438 c 0
 79 337.999023438 86.5 358.166015625 101.5 376.499023438 c 0
 116.5 394.83203125 136.333007812 408.33203125 161 416.999023438 c 1
 116.333007812 443.666015625 94 481.333007812 94 530 c 0
 94 555.333007812 101.166992188 578.833007812 115.5 600.5 c 0
 129.833007812 622.166992188 149.5 639.5 174.5 652.5 c 0
 199.5 665.5 227 672 257 672 c 0
 289.666992188 672 319.833984375 664.166992188 347.500976562 648.5 c 0
 375.16796875 632.833007812 397.000976562 611 413.000976562 583 c 1
 356.000976562 533 l 2
 353.333984375 535.666992188 351.333984375 539.333984375 350.000976562 544.000976562 c 0
 347.333984375 562.000976562 337.000976562 578.000976562 319.000976562 592.000976562 c 0
 301.000976562 606.000976562 280.000976562 613.000976562 256.000976562 613.000976562 c 0
 231.333984375 613.000976562 210.333984375 605.500976562 193.000976562 590.500976562 c 0
 175.66796875 575.500976562 167.000976562 557.333984375 167.000976562 536.000976562 c 0
 167.000976562 518.000976562 171.500976562 503.333984375 180.500976562 492.000976562 c 0
 189.500976562 480.66796875 202.66796875 470.66796875 220.000976562 462.000976562 c 0
 237.333984375 453.333984375 264.666992188 442.000976562 302 428.000976562 c 2
 326 419.000976562 l 1
 387.333007812 389.66796875 418 351.66796875 418 305.000976562 c 0
 418 285.000976562 411.166992188 266.16796875 397.5 248.500976562 c 0
 383.833007812 230.833984375 366 217.666992188 344 209 c 1
 386.666992188 180.333007812 408 143.333007812 408 98 c 0
 408 69.3330078125 400.666992188 43.3330078125 386 20 c 0
 371.333007812 -3.3330078125 351 -21.5 325 -34.5 c 0
 299 -47.5 270 -54 238 -54 c 0
 203.333007812 -54 170.833007812 -46.6669921875 140.5 -32 c 0
342.999023438 291.999023438 m 0
 342.999023438 313.33203125 335.165039062 330.831054688 319.498046875 344.498046875 c 0
 303.831054688 358.165039062 277.331054688 371.33203125 239.998046875 383.999023438 c 2
 196.998046875 398.999023438 l 1
 183.665039062 394.33203125 172.83203125 386.33203125 164.499023438 374.999023438 c 0
 156.166015625 363.666015625 151.999023438 350.666015625 151.999023438 335.999023438 c 0
 151.999023438 313.999023438 160.166015625 295.83203125 176.499023438 281.499023438 c 0
 192.83203125 267.166015625 219.33203125 254.666015625 255.999023438 243.999023438 c 2
 275.999023438 237.999023438 l 2
 293.999023438 232.666015625 304.33203125 229.333007812 306.999023438 228 c 0
 330.999023438 241.333007812 342.999023438 262.666015625 342.999023438 291.999023438 c 0
EndSplineSet
Validated: 1
EndChar

StartChar: dieresis
Encoding: 168 168 106
Width: 500
GlyphClass: 2
Flags: W
LayerCount: 2
Fore
SplineSet
127 579 m 0
 117 589 112 600.66796875 112 614.000976562 c 0
 112 627.333984375 117 639.166992188 127 649.5 c 0
 137 659.833007812 149 665 163 665 c 0
 176.333007812 665 188 660 198 650 c 0
 208 640 213 628 213 614 c 0
 213 600.666992188 208 589 198 579 c 0
 188 569 176.333007812 564 163 564 c 0
 149 564 137 569 127 579 c 0
305.5 578.500976562 m 0
 295.833007812 588.16796875 291 600.000976562 291 614.000976562 c 0
 291 628.000976562 295.833007812 640.000976562 305.5 650.000976562 c 0
 315.166992188 660.000976562 327 665.000976562 341 665.000976562 c 0
 354.333007812 665.000976562 366 660.000976562 376 650.000976562 c 0
 386 640.000976562 391 628.000976562 391 614.000976562 c 0
 391 600.66796875 386 589.000976562 376 579.000976562 c 0
 366 569.000976562 354.333007812 564.000976562 341 564.000976562 c 0
 327 564.000976562 315.166992188 568.833984375 305.5 578.500976562 c 0
EndSplineSet
Validated: 1
Substitution2: "Single Substitution lookup 28 subtable" dieresis.case
Substitution2: "'case' Case-Sensitive Forms in Latin lookup 22 subtable" dieresis.case
Substitution2: "'aalt' Access All Alternates in Latin lookup 0 subtable" dieresis.case
EndChar

StartChar: copyright
Encoding: 169 169 107
Width: 500
GlyphClass: 2
Flags: W
LayerCount: 2
Fore
SplineSet
134.5 53.5 m 0
 97.5 76.5 68.16796875 107.5 46.5009765625 146.5 c 0
 24.833984375 185.5 14.0009765625 228 14.0009765625 274 c 0
 14.0009765625 320 24.833984375 362.666992188 46.5009765625 402 c 0
 68.16796875 441.333007812 97.66796875 472.5 135.000976562 495.5 c 0
 172.333984375 518.5 212.666992188 530 256 530 c 0
 299.333007812 530 339.5 518.5 376.5 495.5 c 0
 413.5 472.5 443 441.333007812 465 402 c 0
 487 362.666992188 498 320 498 274 c 0
 498 203.333007812 474 143 426 93 c 0
 378.666992188 43.6669921875 321.666992188 19 255 19 c 0
 211.666992188 19 171.5 30.5 134.5 53.5 c 0
355.500976562 91 m 0
 385.833984375 110.333007812 410.001953125 136.333007812 428.001953125 169 c 0
 446.001953125 201.666992188 455.001953125 237 455.001953125 275 c 0
 455.001953125 313 446.168945312 348.333007812 428.501953125 381 c 0
 410.834960938 413.666992188 386.834960938 439.666992188 356.501953125 459 c 0
 326.168945312 478.333007812 293.001953125 488 257.001953125 488 c 0
 221.001953125 488 187.834960938 478.5 157.501953125 459.5 c 0
 127.168945312 440.5 103.168945312 414.666992188 85.501953125 382 c 0
 67.8349609375 349.333007812 59.001953125 313.333007812 59.001953125 274 c 0
 59.001953125 235.333007812 67.8349609375 199.833007812 85.501953125 167.5 c 0
 103.168945312 135.166992188 127.168945312 109.5 157.501953125 90.5 c 0
 187.834960938 71.5 221.001953125 62 257.001953125 62 c 0
 292.334960938 62 325.16796875 71.6669921875 355.500976562 91 c 0
187.501953125 143 m 0
 165.168945312 157 147.502929688 175.834960938 134.502929688 199.501953125 c 0
 121.502929688 223.168945312 115.002929688 248.668945312 115.002929688 276.001953125 c 0
 115.002929688 303.334960938 121.669921875 328.334960938 135.002929688 351.001953125 c 0
 148.3359375 373.668945312 165.8359375 391.501953125 187.502929688 404.501953125 c 0
 209.169921875 417.501953125 231.336914062 424.001953125 254.00390625 424.001953125 c 0
 289.336914062 424.001953125 318.669921875 415.668945312 342.002929688 399.001953125 c 0
 365.3359375 382.334960938 380.3359375 359.66796875 387.002929688 331.000976562 c 1
 335.002929688 312.000976562 l 1
 332.3359375 316.000976562 330.8359375 321.000976562 330.502929688 327.000976562 c 0
 330.169921875 333.000976562 328.502929688 338.500976562 325.502929688 343.500976562 c 0
 322.502929688 348.500976562 314.669921875 355.333984375 302.002929688 364.000976562 c 0
 291.3359375 370.66796875 278.002929688 374.000976562 262.002929688 374.000976562 c 0
 240.002929688 374.000976562 219.3359375 366.16796875 200.002929688 350.500976562 c 0
 180.669921875 334.833984375 171.002929688 311.666992188 171.002929688 281 c 0
 171.002929688 251.666992188 180.169921875 226.5 198.502929688 205.5 c 0
 216.8359375 184.5 239.002929688 174 265.002929688 174 c 0
 281.002929688 174 295.669921875 178 309.002929688 186 c 0
 322.3359375 194 332.668945312 205 340.001953125 219 c 1
 384.001953125 190 l 1
 370.001953125 168.666992188 352.001953125 152 330.001953125 140 c 0
 308.001953125 128 285.001953125 122 261.001953125 122 c 0
 234.334960938 122 209.834960938 129 187.501953125 143 c 0
EndSplineSet
Validated: 1
EndChar

StartChar: ordfeminine
Encoding: 170 170 108
Width: 500
GlyphClass: 2
Flags: W
LayerCount: 2
Fore
SplineSet
136 287.5 m 0
 113.333007812 307.833007812 101.998046875 332.666992188 101.998046875 362 c 0
 101.998046875 439.333007812 159.998046875 478 275.998046875 478 c 0
 285.998046875 478 302.331054688 477.333007812 324.998046875 476 c 1
 324.998046875 508.666992188 319.331054688 532.333984375 307.998046875 547.000976562 c 0
 296.665039062 561.66796875 277.665039062 569.000976562 250.998046875 569.000976562 c 0
 209.665039062 569.000976562 178.33203125 554.333984375 156.999023438 525.000976562 c 1
 122.999023438 566.000976562 l 1
 156.33203125 603.333984375 200.999023438 622.000976562 256.999023438 622.000976562 c 0
 303.666015625 620.66796875 337.333007812 608.66796875 358 586.000976562 c 0
 378.666992188 563.333984375 389 529.666992188 389 485 c 2
 389 267 l 1
 326 267 l 1
 326 300 l 1
 295.333007812 271.333007812 261.333007812 257 224 257 c 0
 188 257 158.666992188 267.166992188 136 287.5 c 0
302.498046875 340.000976562 m 0
 319.498046875 359.333984375 327.998046875 387.333007812 327.998046875 424 c 1
 315.998046875 425.333007812 299.331054688 426 277.998046875 426 c 0
 239.998046875 426 211.831054688 420.833007812 193.498046875 410.5 c 0
 175.165039062 400.166992188 165.998046875 384.333984375 165.998046875 363.000976562 c 0
 165.998046875 349.000976562 171.831054688 336.833984375 183.498046875 326.500976562 c 0
 195.165039062 316.16796875 210.998046875 311.000976562 230.998046875 311.000976562 c 0
 261.665039062 311.000976562 285.498046875 320.66796875 302.498046875 340.000976562 c 0
75.998046875 206 m 1
 424.998046875 206 l 1
 424.998046875 152 l 1
 75.998046875 152 l 1
 75.998046875 206 l 1
EndSplineSet
Validated: 1
EndChar

StartChar: guillemotleft
Encoding: 171 171 109
Width: 500
GlyphClass: 2
Flags: W
LayerCount: 2
Fore
SplineSet
67 230 m 1
 67 253 l 1
 219 400 l 1
 258 359 l 1
 137 241 l 1
 265 101 l 1
 225 61 l 1
 67 230 l 1
249 230 m 1
 249 253 l 1
 400 400 l 1
 439 359 l 1
 318 241 l 1
 446 101 l 1
 406 61 l 1
 249 230 l 1
EndSplineSet
Validated: 1
EndChar

StartChar: logicalnot
Encoding: 172 172 110
Width: 500
GlyphClass: 2
Flags: W
LayerCount: 2
Fore
SplineSet
350 284 m 1
 91 284 l 1
 91 347 l 1
 414 347 l 1
 414 157 l 1
 350 157 l 1
 350 284 l 1
EndSplineSet
Validated: 1
EndChar

StartChar: uni00AD
Encoding: 173 173 111
Width: 500
GlyphClass: 2
Flags: W
LayerCount: 2
Fore
SplineSet
71 348 m 1
 431 348 l 1
 431 281 l 1
 71 281 l 1
 71 348 l 1
EndSplineSet
Validated: 1
EndChar

StartChar: registered
Encoding: 174 174 112
Width: 500
GlyphClass: 2
Flags: W
LayerCount: 2
Fore
SplineSet
134.5 53.5 m 0
 97.5 76.5 68.16796875 107.5 46.5009765625 146.5 c 0
 24.833984375 185.5 14.0009765625 228 14.0009765625 274 c 0
 14.0009765625 320 24.833984375 362.666992188 46.5009765625 402 c 0
 68.16796875 441.333007812 97.66796875 472.5 135.000976562 495.5 c 0
 172.333984375 518.5 212.666992188 530 256 530 c 0
 299.333007812 530 339.5 518.5 376.5 495.5 c 0
 413.5 472.5 443 441.333007812 465 402 c 0
 487 362.666992188 498 320 498 274 c 0
 498 203.333007812 474 143 426 93 c 0
 378.666992188 43.6669921875 321.666992188 19 255 19 c 0
 211.666992188 19 171.5 30.5 134.5 53.5 c 0
355.500976562 91 m 0
 385.833984375 110.333007812 410.001953125 136.333007812 428.001953125 169 c 0
 446.001953125 201.666992188 455.001953125 237 455.001953125 275 c 0
 455.001953125 313 446.168945312 348.333007812 428.501953125 381 c 0
 410.834960938 413.666992188 386.834960938 439.666992188 356.501953125 459 c 0
 326.168945312 478.333007812 293.001953125 488 257.001953125 488 c 0
 221.001953125 488 187.834960938 478.5 157.501953125 459.5 c 0
 127.168945312 440.5 103.168945312 414.666992188 85.501953125 382 c 0
 67.8349609375 349.333007812 59.001953125 313.333007812 59.001953125 274 c 0
 59.001953125 235.333007812 67.8349609375 199.833007812 85.501953125 167.5 c 0
 103.168945312 135.166992188 127.168945312 109.5 157.501953125 90.5 c 0
 187.834960938 71.5 221.001953125 62 257.001953125 62 c 0
 292.334960938 62 325.16796875 71.6669921875 355.500976562 91 c 0
267.001953125 256 m 1
 201.002929688 255.998046875 l 1
 201.002929688 132.998046875 l 1
 155.002929688 132.998046875 l 1
 155.002929688 424.998046875 l 1
 249.002929688 424.998046875 l 2
 290.3359375 424.998046875 320.668945312 417.331054688 340.001953125 401.998046875 c 0
 359.334960938 386.665039062 369.001953125 365.998046875 369.001953125 339.998046875 c 0
 369.001953125 322.665039062 364.001953125 306.83203125 354.001953125 292.499023438 c 0
 344.001953125 278.166015625 330.001953125 268.333007812 312.001953125 263 c 1
 376.001953125 138 l 1
 329.001953125 131 l 1
 267.001953125 256 l 1
253.002929688 295.998046875 m 2
 300.3359375 295.998046875 324.002929688 310.665039062 324.002929688 339.998046875 c 0
 324.002929688 369.331054688 299.3359375 383.998046875 250.002929688 383.998046875 c 2
 201.002929688 383.998046875 l 1
 201.002929688 295.998046875 l 1
 253.002929688 295.998046875 l 2
EndSplineSet
Validated: 1
EndChar

StartChar: macron
Encoding: 175 175 113
Width: 500
GlyphClass: 2
Flags: W
LayerCount: 2
Fore
SplineSet
123 621 m 1
 377 621 l 1
 377 565 l 1
 123 565 l 1
 123 621 l 1
EndSplineSet
Validated: 1
EndChar

StartChar: degree
Encoding: 176 176 114
Width: 500
GlyphClass: 2
Flags: W
LayerCount: 2
Fore
SplineSet
188 388 m 0
 167.333007812 400 151.001953125 416.165039062 139.001953125 436.498046875 c 0
 127.001953125 456.831054688 121.001953125 479.331054688 121.001953125 503.998046875 c 0
 121.001953125 528.665039062 127.168945312 551.33203125 139.501953125 571.999023438 c 0
 151.834960938 592.666015625 168.334960938 608.999023438 189.001953125 620.999023438 c 0
 209.668945312 632.999023438 232.001953125 638.999023438 256.001953125 638.999023438 c 0
 280.001953125 638.999023438 302.334960938 632.83203125 323.001953125 620.499023438 c 0
 343.668945312 608.166015625 360.168945312 591.666015625 372.501953125 570.999023438 c 0
 384.834960938 550.33203125 391.001953125 527.999023438 391.001953125 503.999023438 c 0
 391.001953125 479.999023438 385.001953125 457.83203125 373.001953125 437.499023438 c 0
 361.001953125 417.166015625 344.668945312 400.833007812 324.001953125 388.5 c 0
 303.334960938 376.166992188 280.66796875 370 256.000976562 370 c 0
 231.333984375 370 208.666992188 376 188 388 c 0
309.501953125 448.498046875 m 0
 323.834960938 464.165039062 331.00390625 482.998046875 331.00390625 504.998046875 c 0
 331.00390625 526.331054688 323.836914062 545.1640625 309.50390625 561.497070312 c 0
 295.170898438 577.830078125 277.670898438 585.997070312 257.00390625 585.997070312 c 0
 236.336914062 585.997070312 218.669921875 577.830078125 204.002929688 561.497070312 c 0
 189.3359375 545.1640625 182.002929688 526.331054688 182.002929688 504.998046875 c 0
 182.002929688 483.665039062 189.169921875 464.998046875 203.502929688 448.998046875 c 0
 217.8359375 432.998046875 235.3359375 424.998046875 256.002929688 424.998046875 c 0
 277.3359375 424.998046875 295.168945312 432.831054688 309.501953125 448.498046875 c 0
EndSplineSet
Validated: 1
EndChar

StartChar: plusminus
Encoding: 177 177 115
Width: 500
GlyphClass: 2
Flags: W
LayerCount: 2
Fore
SplineSet
222 343 m 1
 45 343 l 1
 45 404 l 1
 222 404 l 1
 222 575 l 1
 285 575 l 1
 285 404 l 1
 456 404 l 1
 456 343 l 1
 285 343 l 1
 285 155 l 1
 222 155 l 1
 222 343 l 1
46 80 m 1
 457 80 l 1
 457 17 l 1
 46 17 l 1
 46 80 l 1
EndSplineSet
Validated: 1
EndChar

StartChar: uni00B2
Encoding: 178 178 116
Width: 500
GlyphClass: 2
Flags: W
LayerCount: 2
Fore
SplineSet
400 317 m 1
 400.000976562 253.000976562 l 1
 121.000976562 253.000976562 l 1
 121.000976562 307.000976562 l 1
 173.66796875 350.333984375 213.66796875 384.500976562 241.000976562 409.500976562 c 0
 268.333984375 434.500976562 288.666992188 456.16796875 302 474.500976562 c 0
 315.333007812 492.833984375 322 509.666992188 322 525 c 0
 322 543.666992188 317 557.833984375 307 567.500976562 c 0
 297 577.16796875 283.333007812 582.000976562 266 582.000976562 c 0
 232 582.000976562 203.666992188 571.000976562 181 549.000976562 c 0
 173.666992188 542.333984375 169.333984375 536.666992188 168.000976562 532 c 0
 166.66796875 527.333007812 166.334960938 521.333007812 167.001953125 514 c 1
 163.001953125 508 l 1
 155.001953125 514 l 1
 111.001953125 554 l 1
 127.001953125 580.666992188 148.501953125 601.666992188 175.501953125 617 c 0
 202.501953125 632.333007812 233.001953125 640 267.001953125 640 c 0
 305.668945312 640 335.501953125 629.333007812 356.501953125 608 c 0
 377.501953125 586.666992188 388.001953125 559 388.001953125 525 c 0
 388.001953125 503.666992188 381.834960938 483.5 369.501953125 464.5 c 0
 357.168945312 445.5 341.668945312 427.666992188 323.001953125 411 c 0
 304.334960938 394.333007812 277.66796875 372.666015625 243.000976562 345.999023438 c 0
 235.66796875 339.999023438 227.66796875 333.83203125 219.000976562 327.499023438 c 0
 210.333984375 321.166015625 201.666992188 314.333007812 193 307 c 1
 356 307 l 2
 366.666992188 307 374.5 307.666992188 379.5 309 c 0
 384.5 310.333007812 389 313 393 317 c 1
 400 317 l 1
EndSplineSet
Validated: 1
EndChar

StartChar: uni00B3
Encoding: 179 179 117
Width: 500
GlyphClass: 2
Flags: W
LayerCount: 2
Fore
SplineSet
112 316 m 1
 159.999023438 370.998046875 l 1
 164.999023438 365.998046875 l 2
 164.999023438 364.665039062 165.166015625 361.665039062 165.499023438 356.998046875 c 0
 165.83203125 352.331054688 167.33203125 347.831054688 169.999023438 343.498046875 c 0
 172.666015625 339.165039062 176.333007812 334.665039062 181 329.998046875 c 0
 191 320.665039062 202.166992188 313.665039062 214.5 308.998046875 c 0
 226.833007812 304.331054688 242 301.998046875 260 301.998046875 c 0
 284.666992188 301.998046875 304.666992188 307.498046875 320 318.498046875 c 0
 335.333007812 329.498046875 343 343.998046875 343 361.998046875 c 0
 343 382.665039062 335 398.33203125 319 408.999023438 c 0
 303 419.666015625 282 424.999023438 256 424.999023438 c 0
 250.666992188 424.999023438 240.666992188 424.33203125 226 422.999023438 c 1
 226 477.999023438 l 1
 230.666992188 477.33203125 237.333984375 476.999023438 246.000976562 476.999023438 c 0
 272.66796875 476.999023438 291.834960938 481.666015625 303.501953125 490.999023438 c 0
 315.168945312 500.33203125 321.001953125 513.999023438 321.001953125 531.999023438 c 0
 321.001953125 565.999023438 299.668945312 582.999023438 257.001953125 582.999023438 c 0
 220.334960938 582.999023438 189.001953125 566.999023438 163.001953125 534.999023438 c 1
 123.001953125 578.999023438 l 1
 157.668945312 619.666015625 202.668945312 639.999023438 258.001953125 639.999023438 c 0
 295.334960938 639.999023438 325.66796875 631.33203125 349.000976562 613.999023438 c 0
 372.333984375 596.666015625 384.000976562 573.333007812 384.000976562 544 c 0
 384.000976562 523.333007812 380.000976562 506 372.000976562 492 c 0
 364.000976562 478 351.66796875 466.333007812 335.000976562 457 c 1
 357.000976562 451.666992188 374.500976562 441 387.500976562 425 c 0
 400.500976562 409 407.000976562 389.666992188 407.000976562 367 c 0
 407.000976562 345 400.333984375 324.833007812 387.000976562 306.5 c 0
 373.66796875 288.166992188 355.66796875 273.666992188 333.000976562 263 c 0
 310.333984375 252.333007812 285.666992188 247 259 247 c 0
 199 247 150 270 112 316 c 1
EndSplineSet
Validated: 1
EndChar

StartChar: acute
Encoding: 180 180 118
Width: 500
GlyphClass: 2
Flags: W
LayerCount: 2
Fore
SplineSet
216 548 m 1
 300 697 l 1
 355 657 l 1
 254 522 l 1
 216 548 l 1
EndSplineSet
Validated: 1
Substitution2: "Single Substitution lookup 28 subtable" acute.case
Substitution2: "'case' Case-Sensitive Forms in Latin lookup 22 subtable" acute.case
Substitution2: "'aalt' Access All Alternates in Latin lookup 0 subtable" acute.case
EndChar

StartChar: uni00B5
Encoding: 181 181 119
Width: 500
GlyphClass: 2
Flags: W
LayerCount: 2
Fore
SplineSet
33 -1 m 0
 40.3330078125 116.333007812 43.998046875 184 43.998046875 202 c 2
 43.998046875 457 l 1
 109.998046875 457 l 1
 109.998046875 186 l 2
 109.998046875 135.333007812 118.665039062 99.5 135.998046875 78.5 c 0
 153.331054688 57.5 176.998046875 45.6669921875 206.998046875 43 c 1
 239.665039062 45.6669921875 264.665039062 59.833984375 281.998046875 85.5009765625 c 0
 299.331054688 111.16796875 307.998046875 146.66796875 307.998046875 192.000976562 c 2
 307.998046875 457.000976562 l 1
 371.998046875 457.000976562 l 1
 371.998046875 116.000976562 l 2
 371.998046875 70.0009765625 385.331054688 47.0009765625 411.998046875 47.0009765625 c 0
 421.331054688 47.0009765625 430.831054688 50.833984375 440.498046875 58.5009765625 c 0
 450.165039062 66.16796875 456.998046875 74.66796875 460.998046875 84.0009765625 c 2
 466.998046875 96.0009765625 l 1
 493.998046875 45.0009765625 l 1
 469.331054688 8.333984375 439.998046875 -9.9990234375 405.998046875 -9.9990234375 c 0
 384.665039062 -9.9990234375 366.33203125 -2.666015625 350.999023438 12.0009765625 c 0
 335.666015625 26.66796875 326.666015625 45.0009765625 323.999023438 67.0009765625 c 1
 312.666015625 42.333984375 295.833007812 23.333984375 273.5 10.0009765625 c 0
 251.166992188 -3.33203125 227 -9.9990234375 201 -9.9990234375 c 0
 175.666992188 -9.9990234375 152.666992188 -3.9990234375 132 8.0009765625 c 0
 111.333007812 20.0009765625 96.3330078125 37.333984375 87 60.0009765625 c 1
 87 -40.666015625 86.6669921875 -116.333007812 86 -167 c 1
 24 -167 l 1
 24 -143 27 -87.6669921875 33 -1 c 0
EndSplineSet
Validated: 1
EndChar

StartChar: paragraph
Encoding: 182 182 120
Width: 500
GlyphClass: 2
Flags: W
LayerCount: 2
Fore
SplineSet
243 322 m 1
 210.333007812 323.333007812 180.333007812 332.333007812 153 349 c 0
 125.666992188 365.666992188 104 387.5 88 414.5 c 0
 72 441.5 64 470.666992188 64 502 c 0
 64 550 83.6669921875 589.166992188 123 619.5 c 0
 162.333007812 649.833007812 225 665 311 665 c 2
 436 665 l 1
 436 -68 l 1
 378 -68 l 1
 378 608 l 1
 302 608 l 1
 302 -68 l 1
 243 -68 l 1
 243 322 l 1
EndSplineSet
Validated: 1
EndChar

StartChar: periodcentered
Encoding: 183 183 121
Width: 500
GlyphClass: 2
Flags: W
LayerCount: 2
Fore
SplineSet
196 290.5 m 0
 184.666992188 301.5 179.001953125 314.998046875 179.001953125 330.998046875 c 0
 179.001953125 346.998046875 184.834960938 360.498046875 196.501953125 371.498046875 c 0
 208.168945312 382.498046875 222.001953125 387.998046875 238.001953125 387.998046875 c 0
 253.334960938 387.998046875 267.16796875 382.331054688 279.500976562 370.998046875 c 0
 291.833984375 359.665039062 298.000976562 346.33203125 298.000976562 330.999023438 c 0
 298.000976562 315.666015625 292.16796875 302.333007812 280.500976562 291 c 0
 268.833984375 279.666992188 254.666992188 274 238 274 c 0
 221.333007812 274 207.333007812 279.5 196 290.5 c 0
EndSplineSet
Validated: 1
Substitution2: "Single Substitution lookup 28 subtable" periodcentered.loclCAT
Substitution2: "'aalt' Access All Alternates in Latin lookup 0 subtable" periodcentered.loclCAT
EndChar

StartChar: cedilla
Encoding: 184 184 122
Width: 500
GlyphClass: 2
Flags: W
LayerCount: 2
Fore
SplineSet
169 -166 m 1
 194 -124.000976562 l 1
 219.333007812 -144.000976562 248.333007812 -154.000976562 281 -154.000976562 c 0
 314.333007812 -154.000976562 331 -142.000976562 331 -118.000976562 c 0
 331 -107.333984375 326.5 -99.1669921875 317.5 -93.5 c 0
 308.5 -87.8330078125 296 -85 280 -85 c 2
 250 -85 l 1
 261 0 l 1
 305 0 l 1
 299 -47 l 1
 327 -49.6669921875 348.166992188 -57.1669921875 362.5 -69.5 c 0
 376.833007812 -81.8330078125 384 -96 384 -112 c 0
 384 -136 374 -156.166992188 354 -172.5 c 0
 334 -188.833007812 305.333007812 -197 268 -197 c 0
 232.666992188 -197 199.666992188 -186.666992188 169 -166 c 1
EndSplineSet
Validated: 1
EndChar

StartChar: uni00B9
Encoding: 185 185 123
Width: 500
GlyphClass: 2
Flags: W
LayerCount: 2
Fore
SplineSet
235 563 m 1
 138 528 l 1
 122 559 l 1
 255 633 l 1
 299 633 l 1
 299 253 l 1
 235 253 l 1
 235 563 l 1
EndSplineSet
Validated: 1
EndChar

StartChar: ordmasculine
Encoding: 186 186 124
Width: 500
GlyphClass: 2
Flags: W
LayerCount: 2
Fore
SplineSet
170 278.5 m 0
 147.333007812 293.5 129.333984375 314.5 116.000976562 341.5 c 0
 102.66796875 368.5 96.0009765625 399.333007812 96.0009765625 434 c 0
 96.0009765625 470 103.000976562 502.333007812 117.000976562 531 c 0
 131.000976562 559.666992188 149.66796875 582 173.000976562 598 c 0
 196.333984375 614 221.666992188 622 249 622 c 0
 291.666992188 622 327 605.833007812 355 573.5 c 0
 383 541.166992188 397 497 397 441 c 0
 397 403.666992188 390 371 376 343 c 0
 362 315 343.5 293.5 320.5 278.5 c 0
 297.5 263.5 272.333007812 256 245 256 c 0
 217.666992188 256 192.666992188 263.5 170 278.5 c 0
311.000976562 346.5 m 0
 328.333984375 368.166992188 337.000976562 398.333984375 337.000976562 437.000976562 c 0
 337.000976562 476.333984375 328.333984375 507.666992188 311.000976562 531 c 0
 293.66796875 554.333007812 272.334960938 566 247.001953125 566 c 0
 221.668945312 566 200.168945312 554.333007812 182.501953125 531 c 0
 164.834960938 507.666992188 156.001953125 476.666992188 156.001953125 438 c 0
 156.001953125 399.333007812 164.668945312 369 182.001953125 347 c 0
 199.334960938 325 220.66796875 314 246.000976562 314 c 0
 272.000976562 314 293.66796875 324.833007812 311.000976562 346.5 c 0
76.0009765625 206 m 1
 425.000976562 206 l 1
 425.000976562 152 l 1
 76.0009765625 152 l 1
 76.0009765625 206 l 1
EndSplineSet
Validated: 1
EndChar

StartChar: guillemotright
Encoding: 187 187 125
Width: 500
GlyphClass: 2
Flags: W
LayerCount: 2
Fore
SplineSet
72 101 m 1
 200 241 l 1
 79 359 l 1
 118 400 l 1
 269 253 l 1
 269 230 l 1
 112 61 l 1
 72 101 l 1
253 101 m 1
 381 241 l 1
 260 359 l 1
 299 400 l 1
 451 253 l 1
 451 230 l 1
 293 61 l 1
 253 101 l 1
EndSplineSet
Validated: 1
EndChar

StartChar: onequarter
Encoding: 188 188 126
Width: 500
GlyphClass: 2
Flags: W
LayerCount: 2
Fore
SplineSet
95 614 m 1
 18 594 l 1
 5 619 l 1
 112 677 l 1
 146 677 l 1
 146 374 l 1
 95 374 l 1
 95 614 l 1
76 -16 m 1
 389 665 l 1
 437 638 l 1
 123 -42 l 1
 76 -16 l 1
381 8 m 1
 236 8 l 1
 236 37 l 1
 396 242 l 1
 427 242 l 1
 427 45 l 1
 477 45 l 1
 477 8 l 1
 427 8 l 1
 427 -70 l 1
 381 -70 l 1
 381 8 l 1
382 45 m 1
 382 164 l 1
 288 45 l 1
 382 45 l 1
EndSplineSet
Validated: 1
EndChar

StartChar: onehalf
Encoding: 189 189 127
Width: 500
GlyphClass: 2
Flags: W
LayerCount: 2
Fore
SplineSet
95 614 m 1
 18 594 l 1
 5 619 l 1
 112 677 l 1
 146 677 l 1
 146 374 l 1
 95 374 l 1
 95 614 l 1
76 -16 m 1
 389 665 l 1
 437 638 l 1
 123 -42 l 1
 76 -16 l 1
270 -38 m 1
 298 -0.6669921875 333 33.666015625 375 64.9990234375 c 0
 400.333007812 84.9990234375 417.333007812 99.83203125 426 109.499023438 c 0
 434.666992188 119.166015625 439 129.333007812 439 140 c 0
 439 156.666992188 433.5 169.833984375 422.5 179.500976562 c 0
 411.5 189.16796875 397 194.000976562 379 194.000976562 c 0
 348.333007812 194.000976562 324.666015625 182.66796875 307.999023438 160.000976562 c 0
 306.666015625 158.66796875 305.333007812 156.000976562 304 152.000976562 c 0
 302.666992188 148.000976562 301.333984375 145.000976562 300.000976562 143.000976562 c 2
 263.000976562 168.000976562 l 1
 289.000976562 212.66796875 331.000976562 235.000976562 389.000976562 235.000976562 c 0
 416.333984375 235.000976562 439.500976562 225.833984375 458.500976562 207.500976562 c 0
 477.500976562 189.16796875 487.000976562 167.66796875 487.000976562 143.000976562 c 0
 487.000976562 128.333984375 484.833984375 116.000976562 480.500976562 106.000976562 c 0
 476.16796875 96.0009765625 468.000976562 85.66796875 456.000976562 75.0009765625 c 0
 444.000976562 64.333984375 424.66796875 49.6669921875 398.000976562 31 c 0
 368.66796875 9.6669921875 345.66796875 -10.3330078125 329.000976562 -29 c 1
 475.000976562 -29 l 2
 476.333984375 -29 479.166992188 -27.8330078125 483.5 -25.5 c 0
 487.833007812 -23.1669921875 491.333007812 -22 494 -22 c 2
 494 -73 l 1
 270 -73 l 1
 270 -38 l 1
EndSplineSet
Validated: 1
EndChar

StartChar: threequarters
Encoding: 190 190 128
Width: 500
GlyphClass: 2
Flags: W
LayerCount: 2
Fore
SplineSet
11 426 m 1
 48.998046875 467.999023438 l 2
 50.3310546875 466.666015625 51.998046875 462.999023438 53.998046875 456.999023438 c 0
 55.998046875 450.999023438 57.998046875 446.999023438 59.998046875 444.999023438 c 0
 77.3310546875 427.666015625 98.3310546875 418.999023438 122.998046875 418.999023438 c 0
 142.331054688 418.999023438 159.498046875 423.83203125 174.498046875 433.499023438 c 0
 189.498046875 443.166015625 196.998046875 454.333007812 196.998046875 467 c 0
 196.998046875 483 191.498046875 495 180.498046875 503 c 0
 169.498046875 511 151.331054688 515 125.998046875 515 c 0
 115.331054688 515 107.331054688 514.666992188 101.998046875 514 c 1
 101.998046875 554 l 1
 105.998046875 552.666992188 108.998046875 552 110.998046875 552 c 2
 123.998046875 553 l 2
 143.998046875 553 159.165039062 557 169.498046875 565 c 0
 179.831054688 573 184.998046875 582.666992188 184.998046875 594 c 0
 184.998046875 606 179.331054688 617 167.998046875 627 c 0
 156.665039062 637 142.33203125 642 124.999023438 642 c 0
 94.9990234375 642 70.33203125 629.333007812 50.9990234375 604 c 1
 21.9990234375 634 l 1
 49.9990234375 667.333007812 85.33203125 684 127.999023438 684 c 0
 157.33203125 684 181.999023438 675.666992188 201.999023438 659 c 0
 221.999023438 642.333007812 231.999023438 622 231.999023438 598 c 0
 231.999023438 583.333007812 227.83203125 570.333007812 219.499023438 559 c 0
 211.166015625 547.666992188 200.333007812 539.666992188 187 535 c 1
 204.333007812 532.333007812 218.5 524.5 229.5 511.5 c 0
 240.5 498.5 246 483.666992188 246 467 c 0
 246 441 234 419 210 401 c 0
 186 383 157.666992188 374 125 374 c 0
 79.6669921875 374 41.6669921875 391.333007812 11 426 c 1
80.998046875 -16.0009765625 m 1
 393.998046875 664.999023438 l 1
 441.998046875 637.999023438 l 1
 127.998046875 -42.0009765625 l 1
 80.998046875 -16.0009765625 l 1
380.998046875 7.9990234375 m 1
 235.998046875 7.9990234375 l 1
 235.998046875 36.9990234375 l 1
 395.998046875 241.999023438 l 1
 426.998046875 241.999023438 l 1
 426.998046875 44.9990234375 l 1
 476.998046875 44.9990234375 l 1
 476.998046875 7.9990234375 l 1
 426.998046875 7.9990234375 l 1
 426.998046875 -70.0009765625 l 1
 380.998046875 -70.0009765625 l 1
 380.998046875 7.9990234375 l 1
381.998046875 44.9990234375 m 1
 381.998046875 163.999023438 l 1
 287.998046875 44.9990234375 l 1
 381.998046875 44.9990234375 l 1
EndSplineSet
Validated: 1
EndChar

StartChar: questiondown
Encoding: 191 191 129
Width: 500
GlyphClass: 2
Flags: W
LayerCount: 2
Fore
SplineSet
278 536 m 0
 289.333007812 524.666992188 295 511.333984375 295 496.000976562 c 0
 295 480.66796875 289.333007812 467.334960938 278 456.001953125 c 0
 266.666992188 444.668945312 253 439.001953125 237 439.001953125 c 0
 221.666992188 439.001953125 208.333984375 444.668945312 197.000976562 456.001953125 c 0
 185.66796875 467.334960938 180.000976562 480.66796875 180.000976562 496.000976562 c 0
 180.000976562 511.333984375 185.66796875 524.666992188 197.000976562 536 c 0
 208.333984375 547.333007812 221.666992188 553 237 553 c 0
 253 553 266.666992188 547.333007812 278 536 c 0
272 316 m 2
 272 283.333007812 265.998046875 257 253.998046875 237 c 0
 241.998046875 217 224.331054688 195.666992188 200.998046875 173 c 0
 178.331054688 150.333007812 161.331054688 129.666015625 149.998046875 110.999023438 c 0
 138.665039062 92.33203125 132.998046875 67.9990234375 132.998046875 37.9990234375 c 0
 132.998046875 7.9990234375 143.331054688 -16.16796875 163.998046875 -34.5009765625 c 0
 184.665039062 -52.833984375 211.33203125 -62.0009765625 243.999023438 -62.0009765625 c 0
 269.33203125 -62.0009765625 291.665039062 -58.333984375 310.998046875 -51.0009765625 c 0
 330.331054688 -43.66796875 347.331054688 -32.0009765625 361.998046875 -16.0009765625 c 0
 368.665039062 -8.66796875 372.83203125 -2.66796875 374.499023438 1.9990234375 c 0
 376.166015625 6.666015625 376.666015625 12.3330078125 375.999023438 19 c 1
 379.999023438 25 l 1
 387.999023438 19 l 1
 433.999023438 -19 l 1
 410.666015625 -53.6669921875 384.333007812 -79.6669921875 355 -97 c 0
 325.666992188 -114.333007812 287.666992188 -123 241 -123 c 0
 187.666992188 -123 144.833984375 -109 112.500976562 -81 c 0
 80.16796875 -53 64.0009765625 -15 64.0009765625 33 c 0
 64.0009765625 71 70.66796875 101.333007812 84.0009765625 124 c 0
 97.333984375 146.666992188 116.666992188 170 142 194 c 0
 164 216 180.166992188 235.333007812 190.5 252 c 0
 200.833007812 268.666992188 206 290 206 316 c 2
 206 357 l 1
 272 357 l 1
 272 316 l 2
EndSplineSet
Validated: 1
EndChar

StartChar: Agrave
Encoding: 192 192 130
Width: 500
GlyphClass: 2
Flags: W
AnchorPoint: "Anchor-8" 0 0 basechar 0
AnchorPoint: "Anchor-7" 0 0 basechar 0
AnchorPoint: "Anchor-6" 231 791 basechar 0
AnchorPoint: "Anchor-5" 414 0 basechar 0
AnchorPoint: "Anchor-4" 250 0 basechar 0
LayerCount: 2
Fore
SplineSet
349 182 m 1
 148 182 l 1
 85 0 l 1
 16 0 l 1
 246 634 l 1
 254 634 l 1
 484 0 l 1
 412 0 l 1
 349 182 l 1
331 236 m 1
 249 474 l 1
 167 236 l 1
 331 236 l 1
123 721 m 1
 163 791 l 1
 316 702 l 1
 293 660 l 1
 123 721 l 1
EndSplineSet
Validated: 1
EndChar

StartChar: Aacute
Encoding: 193 193 131
Width: 500
GlyphClass: 2
Flags: W
AnchorPoint: "Anchor-8" 0 0 basechar 0
AnchorPoint: "Anchor-7" 0 0 basechar 0
AnchorPoint: "Anchor-6" 250 741 basechar 0
AnchorPoint: "Anchor-5" 414 0 basechar 0
AnchorPoint: "Anchor-4" 250 0 basechar 0
LayerCount: 2
Fore
SplineSet
349 182 m 1
 148 182 l 1
 85 0 l 1
 16 0 l 1
 246 634 l 1
 254 634 l 1
 484 0 l 1
 412 0 l 1
 349 182 l 1
331 236 m 1
 249 474 l 1
 167 236 l 1
 331 236 l 1
154 702 m 1
 306 791 l 1
 346 721 l 1
 177 660 l 1
 154 702 l 1
EndSplineSet
Validated: 1
EndChar

StartChar: Acircumflex
Encoding: 194 194 132
Width: 500
GlyphClass: 2
Flags: W
AnchorPoint: "Anchor-8" 0 0 basechar 0
AnchorPoint: "Anchor-7" 0 0 basechar 0
AnchorPoint: "Anchor-6" 402 730 basechar 0
AnchorPoint: "Anchor-5" 414 0 basechar 0
AnchorPoint: "Anchor-4" 250 0 basechar 0
LayerCount: 2
Fore
SplineSet
349 182 m 1
 148 182 l 1
 85 0 l 1
 16 0 l 1
 246 634 l 1
 254 634 l 1
 484 0 l 1
 412 0 l 1
 349 182 l 1
331 236 m 1
 249 474 l 1
 167 236 l 1
 331 236 l 1
92 693 m 1
 235 791 l 1
 257 791 l 1
 408 692 l 1
 378 656 l 1
 248 726 l 1
 125 655 l 1
 92 693 l 1
EndSplineSet
Validated: 1
EndChar

StartChar: Atilde
Encoding: 195 195 133
Width: 500
GlyphClass: 2
Flags: W
AnchorPoint: "Anchor-8" 0 0 basechar 0
AnchorPoint: "Anchor-7" 0 0 basechar 0
AnchorPoint: "Anchor-6" 250 778 basechar 0
AnchorPoint: "Anchor-5" 414 0 basechar 0
AnchorPoint: "Anchor-4" 250 0 basechar 0
LayerCount: 2
Fore
SplineSet
349 182 m 1
 148 182 l 1
 85 0 l 1
 16 0 l 1
 246 634 l 1
 254 634 l 1
 484 0 l 1
 412 0 l 1
 349 182 l 1
331 236 m 1
 249 474 l 1
 167 236 l 1
 331 236 l 1
425 763 m 1
 410.333007812 735 396.16796875 715.499023438 382.500976562 704.499023438 c 0
 368.833984375 693.499023438 352.000976562 687.999023438 332.000976562 687.999023438 c 0
 318.000976562 687.999023438 305.500976562 690.499023438 294.500976562 695.499023438 c 0
 283.500976562 700.499023438 270.66796875 707.999023438 256.000976562 717.999023438 c 0
 243.333984375 725.999023438 233.166992188 731.999023438 225.5 735.999023438 c 0
 217.833007812 739.999023438 209.333007812 741.999023438 200 741.999023438 c 0
 188 741.999023438 177.666992188 738.499023438 169 731.499023438 c 0
 160.333007812 724.499023438 152 712.33203125 144 694.999023438 c 1
 95 716.999023438 l 1
 105 740.999023438 118.5 760.33203125 135.5 774.999023438 c 0
 152.5 789.666015625 173.333007812 796.999023438 198 796.999023438 c 0
 212 796.999023438 224 794.499023438 234 789.499023438 c 0
 244 784.499023438 256 777.33203125 270 767.999023438 c 0
 281.333007812 759.33203125 291.333007812 752.999023438 300 748.999023438 c 0
 308.666992188 744.999023438 318 742.999023438 328 742.999023438 c 0
 338.666992188 742.999023438 347.5 746.33203125 354.5 752.999023438 c 0
 361.5 759.666015625 369.666992188 772.333007812 379 791 c 1
 425 763 l 1
EndSplineSet
Validated: 1
EndChar

StartChar: Adieresis
Encoding: 196 196 134
Width: 500
GlyphClass: 2
Flags: W
AnchorPoint: "Anchor-8" 0 0 basechar 0
AnchorPoint: "Anchor-7" 0 0 basechar 0
AnchorPoint: "Anchor-6" 248 765 basechar 0
AnchorPoint: "Anchor-5" 414 0 basechar 0
AnchorPoint: "Anchor-4" 250 0 basechar 0
LayerCount: 2
Fore
SplineSet
349 182 m 1
 148 182 l 1
 85 0 l 1
 16 0 l 1
 246 634 l 1
 254 634 l 1
 484 0 l 1
 412 0 l 1
 349 182 l 1
331 236 m 1
 249 474 l 1
 167 236 l 1
 331 236 l 1
125 703 m 0
 115 713 110 724.66796875 110 738.000976562 c 0
 110 751.333984375 115 763.166992188 125 773.5 c 0
 135 783.833007812 146.666992188 789 160 789 c 0
 174 789 186 784 196 774 c 0
 206 764 211 752 211 738 c 0
 211 724.666992188 206 713 196 703 c 0
 186 693 174 688 160 688 c 0
 146.666992188 688 135 693 125 703 c 0
303.5 702.500976562 m 0
 293.833007812 712.16796875 289 724.000976562 289 738.000976562 c 0
 289 752.000976562 293.833007812 764.000976562 303.5 774.000976562 c 0
 313.166992188 784.000976562 324.666992188 789.000976562 338 789.000976562 c 0
 352 789.000976562 364 784.000976562 374 774.000976562 c 0
 384 764.000976562 389 752.000976562 389 738.000976562 c 0
 389 724.66796875 384 713.000976562 374 703.000976562 c 0
 364 693.000976562 352 688.000976562 338 688.000976562 c 0
 324.666992188 688.000976562 313.166992188 692.833984375 303.5 702.500976562 c 0
EndSplineSet
Validated: 1
EndChar

StartChar: Aring
Encoding: 197 197 135
Width: 500
GlyphClass: 2
Flags: W
AnchorPoint: "Anchor-8" 0 0 basechar 0
AnchorPoint: "Anchor-7" 0 0 basechar 0
AnchorPoint: "Anchor-6" 250 795 basechar 0
AnchorPoint: "Anchor-5" 414 0 basechar 0
AnchorPoint: "Anchor-4" 250 0 basechar 0
LayerCount: 2
Fore
SplineSet
349 182 m 1
 148 181.999023438 l 1
 85 -0.0009765625 l 1
 16 -0.0009765625 l 1
 241 618.999023438 l 1
 217.666992188 621.666015625 198 631.333007812 182 648 c 0
 166 664.666992188 158 684.333984375 158 707.000976562 c 0
 158 731.000976562 167.166992188 751.66796875 185.5 769.000976562 c 0
 203.833007812 786.333984375 225.333007812 795.000976562 250 795.000976562 c 0
 274.666992188 795.000976562 296 786.333984375 314 769.000976562 c 0
 332 751.66796875 341 730.66796875 341 706.000976562 c 0
 341 684.000976562 333.166992188 664.66796875 317.5 648.000976562 c 0
 301.833007812 631.333984375 282.333007812 621.666992188 259 619 c 1
 484 0 l 1
 412 0 l 1
 349 182 l 1
221.5 674.999023438 m 0
 229.833007812 666.33203125 239.666992188 661.999023438 251 661.999023438 c 0
 262.333007812 661.999023438 272 666.33203125 280 674.999023438 c 0
 288 683.666015625 292 694.333007812 292 707 c 0
 292 720.333007812 288 731.333007812 280 740 c 0
 272 748.666992188 262.333007812 753 251 753 c 0
 239 753 229 748.666992188 221 740 c 0
 213 731.333007812 209 720.333007812 209 707 c 0
 209 694.333007812 213.166992188 683.666015625 221.5 674.999023438 c 0
331.000976562 235.999023438 m 1
 249.000976562 473.999023438 l 1
 167.000976562 235.999023438 l 1
 331.000976562 235.999023438 l 1
EndSplineSet
Validated: 1
EndChar

StartChar: AE
Encoding: 198 198 136
Width: 500
GlyphClass: 2
Flags: W
LayerCount: 2
Fore
SplineSet
211 624 m 1
 495 624 l 1
 495 562 l 1
 324 562 l 1
 324 357 l 1
 469 357 l 1
 469 293 l 1
 324 293 l 1
 324 62 l 1
 493 62 l 1
 493 0 l 1
 263 0 l 1
 263 169 l 1
 133 169 l 1
 79 0 l 1
 15 0 l 1
 211 624 l 1
263 227 m 1
 263 562 l 1
 252 562 l 1
 147 227 l 1
 263 227 l 1
EndSplineSet
Validated: 1
EndChar

StartChar: Ccedilla
Encoding: 199 199 137
Width: 500
GlyphClass: 2
Flags: W
AnchorPoint: "Anchor-8" 0 0 basechar 0
AnchorPoint: "Anchor-7" 0 0 basechar 0
AnchorPoint: "Anchor-6" 270 623 basechar 0
AnchorPoint: "Anchor-5" 0 0 basechar 0
AnchorPoint: "Anchor-4" 280 -177 basechar 0
LayerCount: 2
Fore
SplineSet
353 70.5 m 0
 375.666992188 84.1669921875 394.000976562 102.665039062 408.000976562 125.998046875 c 1
 460.000976562 91.998046875 l 1
 442.000976562 61.998046875 421.16796875 38.6650390625 397.500976562 21.998046875 c 0
 373.833984375 5.3310546875 345.666992188 -5.001953125 313 -9.001953125 c 1
 308 -47.001953125 l 1
 336 -49.6689453125 357.166992188 -57.1689453125 371.5 -69.501953125 c 0
 385.833007812 -81.8349609375 393 -96.001953125 393 -112.001953125 c 0
 393 -136.001953125 383 -156.168945312 363 -172.501953125 c 0
 343 -188.834960938 314.333007812 -197.001953125 277 -197.001953125 c 0
 241.666992188 -197.001953125 208.666992188 -186.668945312 178 -166.001953125 c 1
 203 -124.001953125 l 1
 228.333007812 -144.001953125 257.333007812 -154.001953125 290 -154.001953125 c 0
 323.333007812 -154.001953125 340 -142.001953125 340 -118.001953125 c 0
 340 -107.334960938 335.5 -99.16796875 326.5 -93.5009765625 c 0
 317.5 -87.833984375 305 -85.0009765625 289 -85.0009765625 c 2
 259 -85.0009765625 l 1
 269 -10.0009765625 l 1
 201 -6.0009765625 146.166992188 22.666015625 104.5 75.9990234375 c 0
 62.8330078125 129.33203125 41.666015625 206.665039062 40.9990234375 307.998046875 c 0
 40.9990234375 384.665039062 52.666015625 446.83203125 75.9990234375 494.499023438 c 0
 99.33203125 542.166015625 128.999023438 576.333007812 164.999023438 597 c 0
 200.999023438 617.666992188 239.666015625 628 280.999023438 628 c 0
 324.999023438 628 363.166015625 617 395.499023438 595 c 0
 427.83203125 573 452.33203125 543 468.999023438 505 c 1
 408.999023438 477 l 1
 399.999023438 473 l 1
 396.999023438 480 l 1
 398.999023438 488 l 2
 398.999023438 494.666992188 394.33203125 504 384.999023438 516 c 0
 369.666015625 536.666992188 353.333007812 551.166992188 336 559.5 c 0
 318.666992188 567.833007812 299.666992188 572 279 572 c 0
 226.333007812 572 184.833007812 549.166992188 154.5 503.5 c 0
 124.166992188 457.833007812 109 394.333007812 109 313 c 0
 109 261.666992188 116.666992188 216 132 176 c 0
 147.333007812 136 168.166015625 105 194.499023438 83 c 0
 220.83203125 61 249.999023438 50 281.999023438 50 c 0
 306.666015625 50 330.333007812 56.8330078125 353 70.5 c 0
EndSplineSet
Validated: 1
EndChar

StartChar: Egrave
Encoding: 200 200 138
Width: 500
GlyphClass: 2
Flags: W
AnchorPoint: "Anchor-8" 0 0 basechar 0
AnchorPoint: "Anchor-7" 0 0 basechar 0
AnchorPoint: "Anchor-6" 251 791 basechar 0
AnchorPoint: "Anchor-5" 450 10 basechar 0
AnchorPoint: "Anchor-4" 250 0 basechar 0
LayerCount: 2
Fore
SplineSet
59 624 m 1
 441 624 l 1
 441 562 l 1
 125 562 l 1
 125 357 l 1
 386 357 l 1
 386 293 l 1
 125 293 l 1
 125 62 l 1
 438 62 l 1
 438 0 l 1
 59 0 l 1
 59 624 l 1
143 721 m 1
 183 791 l 1
 336 702 l 1
 313 660 l 1
 143 721 l 1
EndSplineSet
Validated: 1
EndChar

StartChar: Eacute
Encoding: 201 201 139
Width: 500
GlyphClass: 2
Flags: W
AnchorPoint: "Anchor-8" 0 0 basechar 0
AnchorPoint: "Anchor-7" 0 0 basechar 0
AnchorPoint: "Anchor-6" 270 741 basechar 0
AnchorPoint: "Anchor-5" 450 10 basechar 0
AnchorPoint: "Anchor-4" 250 0 basechar 0
LayerCount: 2
Fore
SplineSet
59 624 m 1
 441 624 l 1
 441 562 l 1
 125 562 l 1
 125 357 l 1
 386 357 l 1
 386 293 l 1
 125 293 l 1
 125 62 l 1
 438 62 l 1
 438 0 l 1
 59 0 l 1
 59 624 l 1
174 702 m 1
 326 791 l 1
 366 721 l 1
 197 660 l 1
 174 702 l 1
EndSplineSet
Validated: 1
EndChar

StartChar: Ecircumflex
Encoding: 202 202 140
Width: 500
GlyphClass: 2
Flags: W
AnchorPoint: "Anchor-8" 0 0 basechar 0
AnchorPoint: "Anchor-7" 0 0 basechar 0
AnchorPoint: "Anchor-6" 422 730 basechar 0
AnchorPoint: "Anchor-5" 450 10 basechar 0
AnchorPoint: "Anchor-4" 250 0 basechar 0
LayerCount: 2
Fore
SplineSet
59 624 m 1
 441 624 l 1
 441 562 l 1
 125 562 l 1
 125 357 l 1
 386 357 l 1
 386 293 l 1
 125 293 l 1
 125 62 l 1
 438 62 l 1
 438 0 l 1
 59 0 l 1
 59 624 l 1
112 693 m 1
 255 791 l 1
 277 791 l 1
 428 692 l 1
 398 656 l 1
 268 726 l 1
 145 655 l 1
 112 693 l 1
EndSplineSet
Validated: 1
EndChar

StartChar: Edieresis
Encoding: 203 203 141
Width: 500
GlyphClass: 2
Flags: W
AnchorPoint: "Anchor-8" 0 0 basechar 0
AnchorPoint: "Anchor-7" 0 0 basechar 0
AnchorPoint: "Anchor-6" 268 765 basechar 0
AnchorPoint: "Anchor-5" 450 10 basechar 0
AnchorPoint: "Anchor-4" 250 0 basechar 0
LayerCount: 2
Fore
SplineSet
59 624 m 1
 441 624 l 1
 441 562 l 1
 125 562 l 1
 125 357 l 1
 386 357 l 1
 386 293 l 1
 125 293 l 1
 125 62 l 1
 438 62 l 1
 438 0 l 1
 59 0 l 1
 59 624 l 1
145 703 m 0
 135 713 130 724.66796875 130 738.000976562 c 0
 130 751.333984375 135 763.166992188 145 773.5 c 0
 155 783.833007812 166.666992188 789 180 789 c 0
 194 789 206 784 216 774 c 0
 226 764 231 752 231 738 c 0
 231 724.666992188 226 713 216 703 c 0
 206 693 194 688 180 688 c 0
 166.666992188 688 155 693 145 703 c 0
323.5 702.500976562 m 0
 313.833007812 712.16796875 309 724.000976562 309 738.000976562 c 0
 309 752.000976562 313.833007812 764.000976562 323.5 774.000976562 c 0
 333.166992188 784.000976562 344.666992188 789.000976562 358 789.000976562 c 0
 372 789.000976562 384 784.000976562 394 774.000976562 c 0
 404 764.000976562 409 752.000976562 409 738.000976562 c 0
 409 724.66796875 404 713.000976562 394 703.000976562 c 0
 384 693.000976562 372 688.000976562 358 688.000976562 c 0
 344.666992188 688.000976562 333.166992188 692.833984375 323.5 702.500976562 c 0
EndSplineSet
Validated: 1
EndChar

StartChar: Igrave
Encoding: 204 204 142
Width: 500
GlyphClass: 2
Flags: W
AnchorPoint: "Anchor-8" 0 0 basechar 0
AnchorPoint: "Anchor-7" 0 0 basechar 0
AnchorPoint: "Anchor-6" 220 791 basechar 0
AnchorPoint: "Anchor-5" 353 0 basechar 0
AnchorPoint: "Anchor-4" 250 0 basechar 0
LayerCount: 2
Fore
SplineSet
81 59 m 1
 204 59 l 1
 204 564 l 1
 88 564 l 1
 88 623 l 1
 397 623 l 1
 397 564 l 1
 274 564 l 1
 274 58 l 1
 403 58 l 1
 403 0 l 1
 81 0 l 1
 81 59 l 1
112 721 m 1
 152 791 l 1
 305 702 l 1
 282 660 l 1
 112 721 l 1
EndSplineSet
Validated: 1
EndChar

StartChar: Iacute
Encoding: 205 205 143
Width: 500
GlyphClass: 2
Flags: W
AnchorPoint: "Anchor-8" 0 0 basechar 0
AnchorPoint: "Anchor-7" 0 0 basechar 0
AnchorPoint: "Anchor-6" 239 741 basechar 0
AnchorPoint: "Anchor-5" 353 0 basechar 0
AnchorPoint: "Anchor-4" 250 0 basechar 0
LayerCount: 2
Fore
SplineSet
81 59 m 1
 204 59 l 1
 204 564 l 1
 88 564 l 1
 88 623 l 1
 397 623 l 1
 397 564 l 1
 274 564 l 1
 274 58 l 1
 403 58 l 1
 403 0 l 1
 81 0 l 1
 81 59 l 1
143 702 m 1
 295 791 l 1
 335 721 l 1
 166 660 l 1
 143 702 l 1
EndSplineSet
Validated: 1
EndChar

StartChar: Icircumflex
Encoding: 206 206 144
Width: 500
GlyphClass: 2
Flags: W
AnchorPoint: "Anchor-8" 0 0 basechar 0
AnchorPoint: "Anchor-7" 0 0 basechar 0
AnchorPoint: "Anchor-6" 391 730 basechar 0
AnchorPoint: "Anchor-5" 353 0 basechar 0
AnchorPoint: "Anchor-4" 250 0 basechar 0
LayerCount: 2
Fore
SplineSet
81 59 m 1
 204 59 l 1
 204 564 l 1
 88 564 l 1
 88 623 l 1
 397 623 l 1
 397 564 l 1
 274 564 l 1
 274 58 l 1
 403 58 l 1
 403 0 l 1
 81 0 l 1
 81 59 l 1
81 693 m 1
 224 791 l 1
 246 791 l 1
 397 692 l 1
 367 656 l 1
 237 726 l 1
 114 655 l 1
 81 693 l 1
EndSplineSet
Validated: 1
EndChar

StartChar: Idieresis
Encoding: 207 207 145
Width: 500
GlyphClass: 2
Flags: W
AnchorPoint: "Anchor-8" 0 0 basechar 0
AnchorPoint: "Anchor-7" 0 0 basechar 0
AnchorPoint: "Anchor-6" 237 765 basechar 0
AnchorPoint: "Anchor-5" 353 0 basechar 0
AnchorPoint: "Anchor-4" 250 0 basechar 0
LayerCount: 2
Fore
SplineSet
81 59 m 1
 204 59 l 1
 204 564 l 1
 88 564 l 1
 88 623 l 1
 397 623 l 1
 397 564 l 1
 274 564 l 1
 274 58 l 1
 403 58 l 1
 403 0 l 1
 81 0 l 1
 81 59 l 1
114 703 m 0
 104 713 99 724.66796875 99 738.000976562 c 0
 99 751.333984375 104 763.166992188 114 773.5 c 0
 124 783.833007812 135.666992188 789 149 789 c 0
 163 789 175 784 185 774 c 0
 195 764 200 752 200 738 c 0
 200 724.666992188 195 713 185 703 c 0
 175 693 163 688 149 688 c 0
 135.666992188 688 124 693 114 703 c 0
292.5 702.500976562 m 0
 282.833007812 712.16796875 278 724.000976562 278 738.000976562 c 0
 278 752.000976562 282.833007812 764.000976562 292.5 774.000976562 c 0
 302.166992188 784.000976562 313.666992188 789.000976562 327 789.000976562 c 0
 341 789.000976562 353 784.000976562 363 774.000976562 c 0
 373 764.000976562 378 752.000976562 378 738.000976562 c 0
 378 724.66796875 373 713.000976562 363 703.000976562 c 0
 353 693.000976562 341 688.000976562 327 688.000976562 c 0
 313.666992188 688.000976562 302.166992188 692.833984375 292.5 702.500976562 c 0
EndSplineSet
Validated: 1
EndChar

StartChar: Eth
Encoding: 208 208 146
Width: 500
GlyphClass: 2
Flags: W
LayerCount: 2
Fore
SplineSet
79 301 m 1
 29.9990234375 301.000976562 l 1
 29.9990234375 359.000976562 l 1
 78.9990234375 359.000976562 l 1
 78.9990234375 623.000976562 l 1
 217.999023438 623.000976562 l 2
 303.33203125 623.000976562 365.999023438 595.000976562 405.999023438 539.000976562 c 0
 445.999023438 483.000976562 465.999023438 405.333984375 465.999023438 306.000976562 c 0
 465.999023438 244.000976562 452.83203125 185.66796875 426.499023438 131.000976562 c 0
 400.166015625 76.333984375 364.333007812 38.6669921875 319 18 c 0
 293.666992188 5.3330078125 256 -1 206 -1 c 2
 79 -1 l 1
 79 301 l 1
202.999023438 57.0009765625 m 2
 266.33203125 57.0009765625 314.83203125 78.66796875 348.499023438 122.000976562 c 0
 382.166015625 165.333984375 398.999023438 226.666992188 398.999023438 306 c 0
 398.999023438 388.666992188 383.83203125 452.333984375 353.499023438 497.000976562 c 0
 323.166015625 541.66796875 276.666015625 564.000976562 213.999023438 564.000976562 c 2
 142.999023438 564.000976562 l 1
 142.999023438 359.000976562 l 1
 247.999023438 359.000976562 l 1
 247.999023438 301.000976562 l 1
 142.999023438 301.000976562 l 1
 142.999023438 57.0009765625 l 1
 202.999023438 57.0009765625 l 2
EndSplineSet
Validated: 1
EndChar

StartChar: Ntilde
Encoding: 209 209 147
Width: 500
GlyphClass: 2
Flags: W
AnchorPoint: "Anchor-8" 0 0 basechar 0
AnchorPoint: "Anchor-7" 0 0 basechar 0
AnchorPoint: "Anchor-6" 250 778 basechar 0
AnchorPoint: "Anchor-5" 0 0 basechar 0
AnchorPoint: "Anchor-4" 250 0 basechar 0
LayerCount: 2
Fore
SplineSet
50 623 m 1
 118 623 l 1
 380 161 l 1
 380 623 l 1
 456 623 l 1
 456 616 l 1
 452 612 449.5 607.666992188 448.5 603 c 0
 447.5 598.333007812 447 590.333007812 447 579 c 2
 447 0 l 1
 392 0 l 1
 117 490 l 1
 117 0 l 1
 50 0 l 1
 50 623 l 1
425 763 m 1
 410.333007812 735 396.16796875 715.499023438 382.500976562 704.499023438 c 0
 368.833984375 693.499023438 352.000976562 687.999023438 332.000976562 687.999023438 c 0
 318.000976562 687.999023438 305.500976562 690.499023438 294.500976562 695.499023438 c 0
 283.500976562 700.499023438 270.66796875 707.999023438 256.000976562 717.999023438 c 0
 243.333984375 725.999023438 233.166992188 731.999023438 225.5 735.999023438 c 0
 217.833007812 739.999023438 209.333007812 741.999023438 200 741.999023438 c 0
 188 741.999023438 177.666992188 738.499023438 169 731.499023438 c 0
 160.333007812 724.499023438 152 712.33203125 144 694.999023438 c 1
 95 716.999023438 l 1
 105 740.999023438 118.5 760.33203125 135.5 774.999023438 c 0
 152.5 789.666015625 173.333007812 796.999023438 198 796.999023438 c 0
 212 796.999023438 224 794.499023438 234 789.499023438 c 0
 244 784.499023438 256 777.33203125 270 767.999023438 c 0
 281.333007812 759.33203125 291.333007812 752.999023438 300 748.999023438 c 0
 308.666992188 744.999023438 318 742.999023438 328 742.999023438 c 0
 338.666992188 742.999023438 347.5 746.33203125 354.5 752.999023438 c 0
 361.5 759.666015625 369.666992188 772.333007812 379 791 c 1
 425 763 l 1
EndSplineSet
Validated: 1
EndChar

StartChar: Ograve
Encoding: 210 210 148
Width: 500
GlyphClass: 2
Flags: W
AnchorPoint: "Anchor-8" 379 584 basechar 0
AnchorPoint: "Anchor-7" 250 312 basechar 0
AnchorPoint: "Anchor-6" 231 791 basechar 0
AnchorPoint: "Anchor-5" 287 10 basechar 0
AnchorPoint: "Anchor-4" 250 0 basechar 0
LayerCount: 2
Fore
SplineSet
85 72 m 0
 46.3330078125 127.333007812 27 206 27 308 c 0
 27 407.333007812 46.5 485.333007812 85.5 542 c 0
 124.5 598.666992188 179.333007812 627 250 627 c 0
 320.666992188 627 375.5 598.666992188 414.5 542 c 0
 453.5 485.333007812 473 407.333007812 473 308 c 0
 473 206 453.666992188 127.333007812 415 72 c 0
 376.333007812 16.6669921875 321.333007812 -11 250 -11 c 0
 178.666992188 -11 123.666992188 16.6669921875 85 72 c 0
361.5 117 m 0
 387.833007812 161.666992188 401 225.333984375 401 308.000976562 c 0
 401 387.333984375 387.666992188 450.166992188 361 496.5 c 0
 334.333007812 542.833007812 297.333007812 566 250 566 c 0
 202.666992188 566 165.666992188 542.833007812 139 496.5 c 0
 112.333007812 450.166992188 99 387.333984375 99 308.000976562 c 0
 99 225.333984375 112.166992188 161.666992188 138.5 117 c 0
 164.833007812 72.3330078125 202 50 250 50 c 0
 298 50 335.166992188 72.3330078125 361.5 117 c 0
123 721 m 1
 163 791 l 1
 316 702 l 1
 293 660 l 1
 123 721 l 1
EndSplineSet
Validated: 1
EndChar

StartChar: Oacute
Encoding: 211 211 149
Width: 500
GlyphClass: 2
Flags: W
AnchorPoint: "Anchor-8" 379 584 basechar 0
AnchorPoint: "Anchor-7" 250 312 basechar 0
AnchorPoint: "Anchor-6" 250 741 basechar 0
AnchorPoint: "Anchor-5" 287 10 basechar 0
AnchorPoint: "Anchor-4" 250 0 basechar 0
LayerCount: 2
Fore
SplineSet
85 72 m 0
 46.3330078125 127.333007812 27 206 27 308 c 0
 27 407.333007812 46.5 485.333007812 85.5 542 c 0
 124.5 598.666992188 179.333007812 627 250 627 c 0
 320.666992188 627 375.5 598.666992188 414.5 542 c 0
 453.5 485.333007812 473 407.333007812 473 308 c 0
 473 206 453.666992188 127.333007812 415 72 c 0
 376.333007812 16.6669921875 321.333007812 -11 250 -11 c 0
 178.666992188 -11 123.666992188 16.6669921875 85 72 c 0
361.5 117 m 0
 387.833007812 161.666992188 401 225.333984375 401 308.000976562 c 0
 401 387.333984375 387.666992188 450.166992188 361 496.5 c 0
 334.333007812 542.833007812 297.333007812 566 250 566 c 0
 202.666992188 566 165.666992188 542.833007812 139 496.5 c 0
 112.333007812 450.166992188 99 387.333984375 99 308.000976562 c 0
 99 225.333984375 112.166992188 161.666992188 138.5 117 c 0
 164.833007812 72.3330078125 202 50 250 50 c 0
 298 50 335.166992188 72.3330078125 361.5 117 c 0
154 702 m 1
 306 791 l 1
 346 721 l 1
 177 660 l 1
 154 702 l 1
EndSplineSet
Validated: 1
EndChar

StartChar: Ocircumflex
Encoding: 212 212 150
Width: 500
GlyphClass: 2
Flags: W
AnchorPoint: "Anchor-8" 379 584 basechar 0
AnchorPoint: "Anchor-7" 250 312 basechar 0
AnchorPoint: "Anchor-6" 402 730 basechar 0
AnchorPoint: "Anchor-5" 287 10 basechar 0
AnchorPoint: "Anchor-4" 250 0 basechar 0
LayerCount: 2
Fore
SplineSet
85 72 m 0
 46.3330078125 127.333007812 27 206 27 308 c 0
 27 407.333007812 46.5 485.333007812 85.5 542 c 0
 124.5 598.666992188 179.333007812 627 250 627 c 0
 320.666992188 627 375.5 598.666992188 414.5 542 c 0
 453.5 485.333007812 473 407.333007812 473 308 c 0
 473 206 453.666992188 127.333007812 415 72 c 0
 376.333007812 16.6669921875 321.333007812 -11 250 -11 c 0
 178.666992188 -11 123.666992188 16.6669921875 85 72 c 0
361.5 117 m 0
 387.833007812 161.666992188 401 225.333984375 401 308.000976562 c 0
 401 387.333984375 387.666992188 450.166992188 361 496.5 c 0
 334.333007812 542.833007812 297.333007812 566 250 566 c 0
 202.666992188 566 165.666992188 542.833007812 139 496.5 c 0
 112.333007812 450.166992188 99 387.333984375 99 308.000976562 c 0
 99 225.333984375 112.166992188 161.666992188 138.5 117 c 0
 164.833007812 72.3330078125 202 50 250 50 c 0
 298 50 335.166992188 72.3330078125 361.5 117 c 0
92 693 m 1
 235 791 l 1
 257 791 l 1
 408 692 l 1
 378 656 l 1
 248 726 l 1
 125 655 l 1
 92 693 l 1
EndSplineSet
Validated: 1
EndChar

StartChar: Otilde
Encoding: 213 213 151
Width: 500
GlyphClass: 2
Flags: W
AnchorPoint: "Anchor-8" 379 584 basechar 0
AnchorPoint: "Anchor-7" 250 312 basechar 0
AnchorPoint: "Anchor-6" 250 778 basechar 0
AnchorPoint: "Anchor-5" 287 10 basechar 0
AnchorPoint: "Anchor-4" 250 0 basechar 0
LayerCount: 2
Fore
SplineSet
85 72 m 0
 46.3330078125 127.333007812 27 206 27 308 c 0
 27 407.333007812 46.5 485.333007812 85.5 542 c 0
 124.5 598.666992188 179.333007812 627 250 627 c 0
 320.666992188 627 375.5 598.666992188 414.5 542 c 0
 453.5 485.333007812 473 407.333007812 473 308 c 0
 473 206 453.666992188 127.333007812 415 72 c 0
 376.333007812 16.6669921875 321.333007812 -11 250 -11 c 0
 178.666992188 -11 123.666992188 16.6669921875 85 72 c 0
361.5 117 m 0
 387.833007812 161.666992188 401 225.333984375 401 308.000976562 c 0
 401 387.333984375 387.666992188 450.166992188 361 496.5 c 0
 334.333007812 542.833007812 297.333007812 566 250 566 c 0
 202.666992188 566 165.666992188 542.833007812 139 496.5 c 0
 112.333007812 450.166992188 99 387.333984375 99 308.000976562 c 0
 99 225.333984375 112.166992188 161.666992188 138.5 117 c 0
 164.833007812 72.3330078125 202 50 250 50 c 0
 298 50 335.166992188 72.3330078125 361.5 117 c 0
425 763 m 1
 410.333007812 735 396.16796875 715.499023438 382.500976562 704.499023438 c 0
 368.833984375 693.499023438 352.000976562 687.999023438 332.000976562 687.999023438 c 0
 318.000976562 687.999023438 305.500976562 690.499023438 294.500976562 695.499023438 c 0
 283.500976562 700.499023438 270.66796875 707.999023438 256.000976562 717.999023438 c 0
 243.333984375 725.999023438 233.166992188 731.999023438 225.5 735.999023438 c 0
 217.833007812 739.999023438 209.333007812 741.999023438 200 741.999023438 c 0
 188 741.999023438 177.666992188 738.499023438 169 731.499023438 c 0
 160.333007812 724.499023438 152 712.33203125 144 694.999023438 c 1
 95 716.999023438 l 1
 105 740.999023438 118.5 760.33203125 135.5 774.999023438 c 0
 152.5 789.666015625 173.333007812 796.999023438 198 796.999023438 c 0
 212 796.999023438 224 794.499023438 234 789.499023438 c 0
 244 784.499023438 256 777.33203125 270 767.999023438 c 0
 281.333007812 759.33203125 291.333007812 752.999023438 300 748.999023438 c 0
 308.666992188 744.999023438 318 742.999023438 328 742.999023438 c 0
 338.666992188 742.999023438 347.5 746.33203125 354.5 752.999023438 c 0
 361.5 759.666015625 369.666992188 772.333007812 379 791 c 1
 425 763 l 1
EndSplineSet
Validated: 1
EndChar

StartChar: Odieresis
Encoding: 214 214 152
Width: 500
GlyphClass: 2
Flags: W
AnchorPoint: "Anchor-8" 379 584 basechar 0
AnchorPoint: "Anchor-7" 250 312 basechar 0
AnchorPoint: "Anchor-6" 248 765 basechar 0
AnchorPoint: "Anchor-5" 287 10 basechar 0
AnchorPoint: "Anchor-4" 250 0 basechar 0
LayerCount: 2
Fore
SplineSet
85 72 m 0
 46.3330078125 127.333007812 27 206 27 308 c 0
 27 407.333007812 46.5 485.333007812 85.5 542 c 0
 124.5 598.666992188 179.333007812 627 250 627 c 0
 320.666992188 627 375.5 598.666992188 414.5 542 c 0
 453.5 485.333007812 473 407.333007812 473 308 c 0
 473 206 453.666992188 127.333007812 415 72 c 0
 376.333007812 16.6669921875 321.333007812 -11 250 -11 c 0
 178.666992188 -11 123.666992188 16.6669921875 85 72 c 0
361.5 117 m 0
 387.833007812 161.666992188 401 225.333984375 401 308.000976562 c 0
 401 387.333984375 387.666992188 450.166992188 361 496.5 c 0
 334.333007812 542.833007812 297.333007812 566 250 566 c 0
 202.666992188 566 165.666992188 542.833007812 139 496.5 c 0
 112.333007812 450.166992188 99 387.333984375 99 308.000976562 c 0
 99 225.333984375 112.166992188 161.666992188 138.5 117 c 0
 164.833007812 72.3330078125 202 50 250 50 c 0
 298 50 335.166992188 72.3330078125 361.5 117 c 0
125 703 m 0
 115 713 110 724.66796875 110 738.000976562 c 0
 110 751.333984375 115 763.166992188 125 773.5 c 0
 135 783.833007812 146.666992188 789 160 789 c 0
 174 789 186 784 196 774 c 0
 206 764 211 752 211 738 c 0
 211 724.666992188 206 713 196 703 c 0
 186 693 174 688 160 688 c 0
 146.666992188 688 135 693 125 703 c 0
303.5 702.500976562 m 0
 293.833007812 712.16796875 289 724.000976562 289 738.000976562 c 0
 289 752.000976562 293.833007812 764.000976562 303.5 774.000976562 c 0
 313.166992188 784.000976562 324.666992188 789.000976562 338 789.000976562 c 0
 352 789.000976562 364 784.000976562 374 774.000976562 c 0
 384 764.000976562 389 752.000976562 389 738.000976562 c 0
 389 724.66796875 384 713.000976562 374 703.000976562 c 0
 364 693.000976562 352 688.000976562 338 688.000976562 c 0
 324.666992188 688.000976562 313.166992188 692.833984375 303.5 702.500976562 c 0
EndSplineSet
Validated: 1
EndChar

StartChar: multiply
Encoding: 215 215 153
Width: 500
GlyphClass: 2
Flags: W
LayerCount: 2
Fore
SplineSet
254 278 m 1
 129 149 l 1
 85 193 l 1
 211 324 l 1
 85 457 l 1
 132 503 l 1
 256 372 l 1
 382 503 l 1
 430 459 l 1
 300 325 l 1
 427 191 l 1
 381 145 l 1
 254 278 l 1
EndSplineSet
Validated: 1
EndChar

StartChar: Oslash
Encoding: 216 216 154
Width: 500
GlyphClass: 2
Flags: W
AnchorPoint: "Anchor-8" 379 584 basechar 0
AnchorPoint: "Anchor-7" 250 312 basechar 0
AnchorPoint: "Anchor-6" 250 623 basechar 0
AnchorPoint: "Anchor-5" 287 10 basechar 0
AnchorPoint: "Anchor-4" 250 0 basechar 0
LayerCount: 2
Fore
SplineSet
455 452.5 m 0
 467 410.166992188 473 361.999023438 473 307.999023438 c 0
 473 205.999023438 453.666992188 127.33203125 415 71.9990234375 c 0
 376.333007812 16.666015625 321.333007812 -11.0009765625 250 -11.0009765625 c 0
 200 -11.0009765625 157.666992188 2.666015625 123 29.9990234375 c 1
 85 -42.0009765625 l 1
 41 -22.0009765625 l 1
 88 66.9990234375 l 1
 47.3330078125 121.666015625 27 201.999023438 27 307.999023438 c 0
 27 407.33203125 46.5 485.33203125 85.5 541.999023438 c 0
 124.5 598.666015625 179.333007812 626.999023438 250 626.999023438 c 0
 294 626.999023438 333.333007812 614.999023438 368 590.999023438 c 1
 416 681.999023438 l 1
 458 659.999023438 l 1
 403 556.999023438 l 1
 425.666992188 529.666015625 443 494.833007812 455 452.5 c 0
127 139.999023438 m 1
 335 529.998046875 l 1
 311 553.998046875 282.666992188 565.998046875 250 565.998046875 c 0
 202.666992188 565.998046875 165.666992188 542.831054688 139 496.498046875 c 0
 112.333007812 450.165039062 99 387.33203125 99 307.999023438 c 0
 99 239.33203125 108.333007812 183.33203125 127 139.999023438 c 1
361.5 116.998046875 m 0
 387.833007812 161.665039062 401.000976562 225.330078125 401.000976562 307.997070312 c 0
 401.000976562 382.6640625 389.333984375 442.331054688 366.000976562 486.998046875 c 1
 156.000976562 91.998046875 l 1
 181.333984375 63.998046875 212.666992188 49.998046875 250 49.998046875 c 0
 298 49.998046875 335.166992188 72.3310546875 361.5 116.998046875 c 0
EndSplineSet
Validated: 1
EndChar

StartChar: Ugrave
Encoding: 217 217 155
Width: 500
GlyphClass: 2
Flags: W
AnchorPoint: "Anchor-8" 454 623 basechar 0
AnchorPoint: "Anchor-7" 0 0 basechar 0
AnchorPoint: "Anchor-6" 231 791 basechar 0
AnchorPoint: "Anchor-5" 302 10 basechar 0
AnchorPoint: "Anchor-4" 250 0 basechar 0
LayerCount: 2
Fore
SplineSet
101 48 m 0
 67 87.3330078125 50 143 50 215 c 2
 50 623 l 1
 128 623 l 1
 128 616 l 1
 124 612 121.5 607.666992188 120.5 603 c 0
 119.5 598.333007812 119 590.333007812 119 579 c 2
 119 214 l 2
 119 160.666992188 129.333007812 119.666992188 150 91 c 0
 170.666992188 62.3330078125 204.666992188 48 252 48 c 0
 300 48 334.5 62.3330078125 355.5 91 c 0
 376.5 119.666992188 387 161.666992188 387 217 c 2
 387 623 l 1
 454 623 l 1
 454 218 l 2
 454 141.333007812 436.166992188 84 400.5 46 c 0
 364.833007812 8 315 -11 251 -11 c 0
 185 -11 135 8.6669921875 101 48 c 0
123 721 m 1
 163 791 l 1
 316 702 l 1
 293 660 l 1
 123 721 l 1
EndSplineSet
Validated: 1
EndChar

StartChar: Uacute
Encoding: 218 218 156
Width: 500
GlyphClass: 2
Flags: W
AnchorPoint: "Anchor-8" 454 623 basechar 0
AnchorPoint: "Anchor-7" 0 0 basechar 0
AnchorPoint: "Anchor-6" 250 741 basechar 0
AnchorPoint: "Anchor-5" 302 10 basechar 0
AnchorPoint: "Anchor-4" 250 0 basechar 0
LayerCount: 2
Fore
SplineSet
101 48 m 0
 67 87.3330078125 50 143 50 215 c 2
 50 623 l 1
 128 623 l 1
 128 616 l 1
 124 612 121.5 607.666992188 120.5 603 c 0
 119.5 598.333007812 119 590.333007812 119 579 c 2
 119 214 l 2
 119 160.666992188 129.333007812 119.666992188 150 91 c 0
 170.666992188 62.3330078125 204.666992188 48 252 48 c 0
 300 48 334.5 62.3330078125 355.5 91 c 0
 376.5 119.666992188 387 161.666992188 387 217 c 2
 387 623 l 1
 454 623 l 1
 454 218 l 2
 454 141.333007812 436.166992188 84 400.5 46 c 0
 364.833007812 8 315 -11 251 -11 c 0
 185 -11 135 8.6669921875 101 48 c 0
154 702 m 1
 306 791 l 1
 346 721 l 1
 177 660 l 1
 154 702 l 1
EndSplineSet
Validated: 1
EndChar

StartChar: Ucircumflex
Encoding: 219 219 157
Width: 500
GlyphClass: 2
Flags: W
AnchorPoint: "Anchor-8" 454 623 basechar 0
AnchorPoint: "Anchor-7" 0 0 basechar 0
AnchorPoint: "Anchor-6" 402 730 basechar 0
AnchorPoint: "Anchor-5" 302 10 basechar 0
AnchorPoint: "Anchor-4" 250 0 basechar 0
LayerCount: 2
Fore
SplineSet
101 48 m 0
 67 87.3330078125 50 143 50 215 c 2
 50 623 l 1
 128 623 l 1
 128 616 l 1
 124 612 121.5 607.666992188 120.5 603 c 0
 119.5 598.333007812 119 590.333007812 119 579 c 2
 119 214 l 2
 119 160.666992188 129.333007812 119.666992188 150 91 c 0
 170.666992188 62.3330078125 204.666992188 48 252 48 c 0
 300 48 334.5 62.3330078125 355.5 91 c 0
 376.5 119.666992188 387 161.666992188 387 217 c 2
 387 623 l 1
 454 623 l 1
 454 218 l 2
 454 141.333007812 436.166992188 84 400.5 46 c 0
 364.833007812 8 315 -11 251 -11 c 0
 185 -11 135 8.6669921875 101 48 c 0
92 693 m 1
 235 791 l 1
 257 791 l 1
 408 692 l 1
 378 656 l 1
 248 726 l 1
 125 655 l 1
 92 693 l 1
EndSplineSet
Validated: 1
EndChar

StartChar: Udieresis
Encoding: 220 220 158
Width: 500
GlyphClass: 2
Flags: W
AnchorPoint: "Anchor-8" 454 623 basechar 0
AnchorPoint: "Anchor-7" 0 0 basechar 0
AnchorPoint: "Anchor-6" 248 765 basechar 0
AnchorPoint: "Anchor-5" 302 10 basechar 0
AnchorPoint: "Anchor-4" 250 0 basechar 0
LayerCount: 2
Fore
SplineSet
101 48 m 0
 67 87.3330078125 50 143 50 215 c 2
 50 623 l 1
 128 623 l 1
 128 616 l 1
 124 612 121.5 607.666992188 120.5 603 c 0
 119.5 598.333007812 119 590.333007812 119 579 c 2
 119 214 l 2
 119 160.666992188 129.333007812 119.666992188 150 91 c 0
 170.666992188 62.3330078125 204.666992188 48 252 48 c 0
 300 48 334.5 62.3330078125 355.5 91 c 0
 376.5 119.666992188 387 161.666992188 387 217 c 2
 387 623 l 1
 454 623 l 1
 454 218 l 2
 454 141.333007812 436.166992188 84 400.5 46 c 0
 364.833007812 8 315 -11 251 -11 c 0
 185 -11 135 8.6669921875 101 48 c 0
125 703 m 0
 115 713 110 724.66796875 110 738.000976562 c 0
 110 751.333984375 115 763.166992188 125 773.5 c 0
 135 783.833007812 146.666992188 789 160 789 c 0
 174 789 186 784 196 774 c 0
 206 764 211 752 211 738 c 0
 211 724.666992188 206 713 196 703 c 0
 186 693 174 688 160 688 c 0
 146.666992188 688 135 693 125 703 c 0
303.5 702.500976562 m 0
 293.833007812 712.16796875 289 724.000976562 289 738.000976562 c 0
 289 752.000976562 293.833007812 764.000976562 303.5 774.000976562 c 0
 313.166992188 784.000976562 324.666992188 789.000976562 338 789.000976562 c 0
 352 789.000976562 364 784.000976562 374 774.000976562 c 0
 384 764.000976562 389 752.000976562 389 738.000976562 c 0
 389 724.66796875 384 713.000976562 374 703.000976562 c 0
 364 693.000976562 352 688.000976562 338 688.000976562 c 0
 324.666992188 688.000976562 313.166992188 692.833984375 303.5 702.500976562 c 0
EndSplineSet
Validated: 1
EndChar

StartChar: Yacute
Encoding: 221 221 159
Width: 500
GlyphClass: 2
Flags: W
AnchorPoint: "Anchor-8" 0 0 basechar 0
AnchorPoint: "Anchor-7" 0 0 basechar 0
AnchorPoint: "Anchor-6" 250 741 basechar 0
AnchorPoint: "Anchor-5" 0 0 basechar 0
AnchorPoint: "Anchor-4" 258 0 basechar 0
LayerCount: 2
Fore
SplineSet
220 246 m 1
 28 623 l 1
 108 623 l 1
 261 321 l 1
 399 623 l 1
 473 623 l 1
 296 246 l 1
 296 0 l 1
 220 0 l 1
 220 246 l 1
154 702 m 1
 306 791 l 1
 346 721 l 1
 177 660 l 1
 154 702 l 1
EndSplineSet
Validated: 1
EndChar

StartChar: Thorn
Encoding: 222 222 160
Width: 500
GlyphClass: 2
Flags: W
LayerCount: 2
Fore
SplineSet
59 623 m 1
 137 622.999023438 l 2
 138.333007812 621.666015625 139 620.666015625 139 619.999023438 c 0
 139 618.666015625 137.666992188 615.333007812 135 610 c 0
 132.333007812 604.666992188 130.333007812 599.666992188 129 595 c 2
 129 506 l 1
 259 506 l 2
 324.333007812 506 372.833007812 489.833007812 404.5 457.5 c 0
 436.166992188 425.166992188 453.333984375 382.666992188 456.000976562 330 c 1
 453.333984375 278 436.666992188 236.333007812 406 205 c 0
 375.333007812 173.666992188 328 158 264 158 c 2
 129 158 l 1
 129 0 l 1
 59 0 l 1
 59 623 l 1
264 218.999023438 m 2
 338 218.999023438 377.999023438 255.33203125 383.999023438 327.999023438 c 1
 381.33203125 361.33203125 369.83203125 388.33203125 349.499023438 408.999023438 c 0
 329.166015625 429.666015625 298.333007812 439.999023438 257 439.999023438 c 2
 129 439.999023438 l 1
 129 218.999023438 l 1
 264 218.999023438 l 2
EndSplineSet
Validated: 1
EndChar

StartChar: germandbls
Encoding: 223 223 161
Width: 500
GlyphClass: 2
Flags: W
LayerCount: 2
Fore
SplineSet
177 21 m 1
 211.998046875 77.001953125 l 1
 231.998046875 61.001953125 256.331054688 53.001953125 284.998046875 53.001953125 c 0
 303.665039062 53.001953125 321.83203125 59.1689453125 339.499023438 71.501953125 c 0
 357.166015625 83.8349609375 371.333007812 100.66796875 382 122.000976562 c 0
 392.666992188 143.333984375 398 167.000976562 398 193.000976562 c 0
 398 231.66796875 385.166992188 263.000976562 359.5 287.000976562 c 0
 333.833007812 311.000976562 295.333007812 323.000976562 244 323.000976562 c 2
 214 323.000976562 l 1
 214 380.000976562 l 1
 250 380.000976562 l 2
 276.666992188 380.000976562 300.333984375 389.833984375 321.000976562 409.500976562 c 0
 341.66796875 429.16796875 352.000976562 456.000976562 352.000976562 490.000976562 c 0
 352.000976562 524.000976562 341.333984375 552.66796875 320.000976562 576.000976562 c 0
 298.66796875 599.333984375 272.334960938 611.000976562 241.001953125 611.000976562 c 0
 203.668945312 611.000976562 174.668945312 594.16796875 154.001953125 560.500976562 c 0
 133.334960938 526.833984375 123.001953125 481.666992188 123.001953125 425 c 2
 123.001953125 0 l 1
 55.001953125 0 l 1
 55.001953125 423 l 2
 55.001953125 503 70.8349609375 564 102.501953125 606 c 0
 134.168945312 648 177.001953125 669 231.001953125 669 c 0
 265.668945312 669 297.501953125 660.833007812 326.501953125 644.5 c 0
 355.501953125 628.166992188 378.334960938 606.5 395.001953125 579.5 c 0
 411.668945312 552.5 420.001953125 523.666992188 420.001953125 493 c 0
 420.001953125 464.333007812 413.001953125 438 399.001953125 414 c 0
 385.001953125 390 365.668945312 371.666992188 341.001953125 359 c 1
 379.001953125 347 409.001953125 324.833007812 431.001953125 292.5 c 0
 453.001953125 260.166992188 464.001953125 223 464.001953125 181 c 0
 464.001953125 145.666992188 456.501953125 113.5 441.501953125 84.5 c 0
 426.501953125 55.5 405.168945312 32.5 377.501953125 15.5 c 0
 349.834960938 -1.5 317.66796875 -10 281.000976562 -10 c 0
 242.333984375 -10 207.666992188 0.3330078125 177 21 c 1
EndSplineSet
Validated: 1
EndChar

StartChar: agrave
Encoding: 224 224 162
Width: 500
GlyphClass: 2
Flags: W
AnchorPoint: "Anchor-8" 0 0 basechar 0
AnchorPoint: "Anchor-7" 0 0 basechar 0
AnchorPoint: "Anchor-6" 212 671 basechar 0
AnchorPoint: "Anchor-5" 385 0 basechar 0
AnchorPoint: "Anchor-4" 250 0 basechar 0
LayerCount: 2
Fore
SplineSet
393.5 416 m 0
 427.833007812 382 445.001953125 324.333984375 445.001953125 243.000976562 c 2
 445.001953125 0.0009765625 l 1
 367.001953125 0.0009765625 l 1
 367.001953125 70.0009765625 l 1
 339.001953125 16.0009765625 287.001953125 -10.9990234375 211.001953125 -10.9990234375 c 0
 160.334960938 -10.9990234375 120.66796875 0.5009765625 92.0009765625 23.5009765625 c 0
 63.333984375 46.5009765625 49.0009765625 77.0009765625 49.0009765625 115.000976562 c 0
 49.0009765625 147.000976562 59.333984375 175.000976562 80.0009765625 199.000976562 c 0
 100.66796875 223.000976562 128.500976562 241.500976562 163.500976562 254.500976562 c 0
 198.500976562 267.500976562 237.000976562 274.000976562 279.000976562 274.000976562 c 0
 317.000976562 274.000976562 351.333984375 272.000976562 382.000976562 268.000976562 c 1
 378.000976562 319.333984375 364.500976562 355.500976562 341.500976562 376.500976562 c 0
 318.500976562 397.500976562 284.333984375 408.000976562 239.000976562 408.000976562 c 0
 216.333984375 408.000976562 194.500976562 403.66796875 173.500976562 395.000976562 c 0
 152.500976562 386.333984375 133.333984375 373.666992188 116.000976562 357 c 1
 81.0009765625 403 l 1
 123.66796875 445.666992188 178.000976562 467 244.000976562 467 c 0
 309.333984375 467 359.166992188 450 393.5 416 c 0
335.001953125 87.5009765625 m 0
 363.668945312 116.500976562 379.334960938 158.333984375 382.001953125 213.000976562 c 1
 352.001953125 217.66796875 319.668945312 220.000976562 285.001953125 220.000976562 c 0
 234.334960938 220.000976562 194.334960938 211.66796875 165.001953125 195.000976562 c 0
 135.668945312 178.333984375 121.001953125 153.000976562 121.001953125 119.000976562 c 0
 121.001953125 69.0009765625 153.334960938 44.0009765625 218.001953125 44.0009765625 c 0
 267.334960938 44.0009765625 306.334960938 58.5009765625 335.001953125 87.5009765625 c 0
143.000976562 642.000976562 m 1
 198.000976562 682.000976562 l 1
 282.000976562 533.000976562 l 1
 244.000976562 507.000976562 l 1
 143.000976562 642.000976562 l 1
EndSplineSet
Validated: 1
EndChar

StartChar: aacute
Encoding: 225 225 163
Width: 500
GlyphClass: 2
Flags: W
AnchorPoint: "Anchor-8" 0 0 basechar 0
AnchorPoint: "Anchor-7" 0 0 basechar 0
AnchorPoint: "Anchor-6" 269 609 basechar 0
AnchorPoint: "Anchor-5" 385 0 basechar 0
AnchorPoint: "Anchor-4" 250 0 basechar 0
LayerCount: 2
Fore
SplineSet
393.5 416 m 0
 427.833007812 382 445.001953125 324.333984375 445.001953125 243.000976562 c 2
 445.001953125 0.0009765625 l 1
 367.001953125 0.0009765625 l 1
 367.001953125 70.0009765625 l 1
 339.001953125 16.0009765625 287.001953125 -10.9990234375 211.001953125 -10.9990234375 c 0
 160.334960938 -10.9990234375 120.66796875 0.5009765625 92.0009765625 23.5009765625 c 0
 63.333984375 46.5009765625 49.0009765625 77.0009765625 49.0009765625 115.000976562 c 0
 49.0009765625 147.000976562 59.333984375 175.000976562 80.0009765625 199.000976562 c 0
 100.66796875 223.000976562 128.500976562 241.500976562 163.500976562 254.500976562 c 0
 198.500976562 267.500976562 237.000976562 274.000976562 279.000976562 274.000976562 c 0
 317.000976562 274.000976562 351.333984375 272.000976562 382.000976562 268.000976562 c 1
 378.000976562 319.333984375 364.500976562 355.500976562 341.500976562 376.500976562 c 0
 318.500976562 397.500976562 284.333984375 408.000976562 239.000976562 408.000976562 c 0
 216.333984375 408.000976562 194.500976562 403.66796875 173.500976562 395.000976562 c 0
 152.500976562 386.333984375 133.333984375 373.666992188 116.000976562 357 c 1
 81.0009765625 403 l 1
 123.66796875 445.666992188 178.000976562 467 244.000976562 467 c 0
 309.333984375 467 359.166992188 450 393.5 416 c 0
335.001953125 87.5009765625 m 0
 363.668945312 116.500976562 379.334960938 158.333984375 382.001953125 213.000976562 c 1
 352.001953125 217.66796875 319.668945312 220.000976562 285.001953125 220.000976562 c 0
 234.334960938 220.000976562 194.334960938 211.66796875 165.001953125 195.000976562 c 0
 135.668945312 178.333984375 121.001953125 153.000976562 121.001953125 119.000976562 c 0
 121.001953125 69.0009765625 153.334960938 44.0009765625 218.001953125 44.0009765625 c 0
 267.334960938 44.0009765625 306.334960938 58.5009765625 335.001953125 87.5009765625 c 0
205.000976562 533.000976562 m 1
 289.000976562 682.000976562 l 1
 344.000976562 642.000976562 l 1
 243.000976562 507.000976562 l 1
 205.000976562 533.000976562 l 1
EndSplineSet
Validated: 1
EndChar

